<svg xmlns="http://www.w3.org/2000/svg" xmlns:xlink="http://www.w3.org/1999/xlink" version="1.1" width="468.17655pt" height="251.44055pt" viewBox="0 0 468.17655 251.44055">
<g>
<path transform="matrix(1,0,0,-1,-63.281595,-51.483339)" stroke-width=".796032" stroke-linecap="butt" stroke-miterlimit="10" stroke-linejoin="miter" fill="none" stroke="#000000" d="M63.562-52.535H530.992"/>
<text xml:space="preserve" transform="matrix(1 0 0 1 -63.281595 -51.483339)" font-size="9.950897" font-family="CMBX10" font-weight="bold"><tspan y="61.834768" x="71.02362 79.67095 82.84529 88.567058 94.28882 98.99559 102.16993 106.61798 112.996509 122.529468 131.58478 141.1277">Algorithme5:</tspan></text>
<text xml:space="preserve" transform="matrix(1 0 0 1 -63.281595 -51.483339)" font-size="9.950897" font-family="CMR10"><tspan y="61.834768" x="147.62563 154.39225 159.36769 159.64632 164.06452 168.48271 174.00547 177.86641 180.65265 185.6281 194.47444 199.9972 202.75359 208.27634 217.13265 221.55084 226.79497 231.24301 233.9994 241.7412 247.55252 252.52797 258.05073 265.26515 268.02156 276.32063 281.29609 285.1869 287.9433 290.6997 293.48597">Ex&#x00b4;ecutiond&#x2019;uncyclepourlagrille</tspan></text>
<path transform="matrix(1,0,0,-1,-63.281595,-51.483339)" stroke-width=".796032" stroke-linecap="butt" stroke-miterlimit="10" stroke-linejoin="miter" fill="none" stroke="#000000" d="M63.562-66.156H530.992"/>
<text xml:space="preserve" transform="matrix(1 0 0 1 -63.281595 -51.483339)" font-size="9.950897" font-family="CMBX10" font-weight="bold"><tspan y="75.4562" x="78.48654 85.999469 92.04961 96.49766 100.96561 101.20442 106.44855 111.69267 120.021579">Entr&#x00b4;ees:</tspan></text>
<text xml:space="preserve" transform="matrix(1 0 0 1 -63.281595 -51.483339)" font-size="9.950897" font-family="CMR10"><tspan y="75.4562" x="126.519519 131.49497 135.38578 138.14217 140.89856 143.6848">grille</tspan></text>
<text xml:space="preserve" transform="matrix(1 0 0 1 -63.281595 -51.483339)" font-size="6.965528" font-family="CMBX7" font-weight="bold"><tspan y="87.396678" x="69.003078">1</tspan></text>
<text xml:space="preserve" transform="matrix(1 0 0 1 -63.281595 -51.483339)" font-size="9.950897" font-family="CMBX10" font-weight="bold"><tspan y="87.396678" x="78.48654 84.60634 84.84515 90.08928 96.43795 102.78662">d&#x00b4;ebut</tspan></text>
<path transform="matrix(1,0,0,-1,-63.281595,-51.483339)" stroke-width=".397517" stroke-linecap="butt" stroke-miterlimit="10" stroke-linejoin="miter" fill="none" stroke="#000000" d="M83.66-287.004V-90.977"/>
<text xml:space="preserve" transform="matrix(1 0 0 1 -63.281595 -51.483339)" font-size="6.965528" font-family="CMBX7" font-weight="bold"><tspan y="99.33715" x="69.40059">2</tspan></text>
<text xml:space="preserve" transform="matrix(1 0 0 1 -63.281595 -51.483339)" font-size="9.950897" font-family="CMTI10" font-style="italic"><tspan y="99.33715" x="93.809909 102.72591 107.30332 110.60702 113.91071 117.61245 125.75229 129.05599 134.1409 139.47458 147.10692 149.6444 154.2218 161.85414 166.93906 172.53147 175.57643 183.70632 188.79123 194.15476 202.3344 207.41931 215.55915 218.09662 226.74396 231.32137 235.5107 238.55567 241.62055 244.15802 252.29785 256.87528 265.7714 266.03013 270.60755 273.91127 278.99617 285.87226 290.95716 294.00215 298.0621 302.64945 307.73435 313.32676 316.37174 320.94917 323.48664">Mettretouslesanimauxdelagrilleen&#x00b4;etatdisponible</tspan></text>
<text xml:space="preserve" transform="matrix(1 0 0 1 -63.281595 -51.483339)" font-size="9.950897" font-family="CMR10"><tspan y="99.33715" x="328.8203">;</tspan></text>
<text xml:space="preserve" transform="matrix(1 0 0 1 -63.281595 -51.483339)" font-size="6.965528" font-family="CMBX7" font-weight="bold"><tspan y="111.27763" x="69.40059">3</tspan></text>
<text xml:space="preserve" transform="matrix(1 0 0 1 -63.281595 -51.483339)" font-size="9.950897" font-family="CMTI10" font-style="italic"><tspan y="111.27763" x="93.809909 101.4323 106.00971 109.31341 113.89082 119.48323 122.528209 130.30982 132.84729 137.4247 145.04709 150.132 153.17697 161.30686 165.88426 171.47667 175.56649 178.61145 183.69637 189.28878 196.93106 200.99103 206.58344 211.66835 219.79824 224.37564 228.07738 236.21721 241.30213 249.44196 251.97943 255.0244 259.6018 265.1942 269.77165 277.41395 281.99137 288.85749 293.94239 302.0822 306.15214 311.23704 313.7745 318.8594 324.4518 330.04423 334.62165 338.6816 346.33387 351.41877 359.54866 362.08613 370.7434 375.32084 379.51017 382.55516 385.62004 388.1575">Obtenirlesdimensions(nombredelignesetdecolonnes)delagrille</tspan></text>
<text xml:space="preserve" transform="matrix(1 0 0 1 -63.281595 -51.483339)" font-size="9.950897" font-family="CMR10"><tspan y="111.27763" x="393.47129">;</tspan></text>
<text xml:space="preserve" transform="matrix(1 0 0 1 -63.281595 -51.483339)" font-size="6.965528" font-family="CMBX7" font-weight="bold"><tspan y="123.21811" x="69.40059">4</tspan></text>
<text xml:space="preserve" transform="matrix(1 0 0 1 -63.281595 -51.483339)" font-size="9.950897" font-family="CMBX10" font-weight="bold"><tspan y="123.21811" x="93.809909 100.48695 106.20872 112.55739">pour</tspan></text>
<text xml:space="preserve" transform="matrix(1 0 0 1 -63.281595 -51.483339)" font-size="9.950897" font-family="CMTI10" font-style="italic"><tspan y="123.21811" x="120.59771 123.135189 126.18016 130.75757 136.34998 144.49976 149.58467 157.7245 166.3619 166.3619 175.00923 180.60164 185.68656 193.81644 198.39385 202.09558 210.23542 215.32033 223.45021 225.98769 229.03266 233.61006 239.20247 243.77988 251.43212 258.55696">lignede0`anombredelignes-1</tspan></text>
<text xml:space="preserve" transform="matrix(1 0 0 1 -63.281595 -51.483339)" font-size="9.950897" font-family="CMBX10" font-weight="bold"><tspan y="123.21811" x="268.29887 271.79164 277.3542 280.52854 285.23533">faire</tspan></text>
<path transform="matrix(1,0,0,-1,-63.281595,-51.483339)" stroke-width=".397517" stroke-linecap="butt" stroke-miterlimit="10" stroke-linejoin="miter" fill="none" stroke="#000000" d="M98.984-274.07V-126.801"/>
<text xml:space="preserve" transform="matrix(1 0 0 1 -63.281595 -51.483339)" font-size="6.965528" font-family="CMBX7" font-weight="bold"><tspan y="135.15958" x="69.79911">5</tspan></text>
<text xml:space="preserve" transform="matrix(1 0 0 1 -63.281595 -51.483339)" font-size="9.950897" font-family="CMBX10" font-weight="bold"><tspan y="135.15958" x="109.13427 115.81132 121.53308 127.88175">pour</tspan></text>
<text xml:space="preserve" transform="matrix(1 0 0 1 -63.281595 -51.483339)" font-size="9.950897" font-family="CMTI10" font-style="italic"><tspan y="135.15958" x="135.92209 139.992 145.07692 147.6144 152.69931 158.29172 163.88413 172.0339 177.11882 185.2487 193.89604 193.89604 202.54338 208.13579 213.2207 221.35059 225.928 229.62973 237.76956 242.85448 250.98436 255.05428 260.1392 262.67668 267.76158 273.35398 278.94639 283.5238 291.1661 298.29096">colonnede0`anombredecolonnes-1</tspan></text>
<text xml:space="preserve" transform="matrix(1 0 0 1 -63.281595 -51.483339)" font-size="9.950897" font-family="CMBX10" font-weight="bold"><tspan y="135.15958" x="308.03288 311.52565 317.0882 320.26255 324.96934">faire</tspan></text>
<path transform="matrix(1,0,0,-1,-63.281595,-51.483339)" stroke-width=".397517" stroke-linecap="butt" stroke-miterlimit="10" stroke-linejoin="miter" fill="none" stroke="#000000" d="M114.309-261.133V-138.742"/>
<text xml:space="preserve" transform="matrix(1 0 0 1 -63.281595 -51.483339)" font-size="6.965528" font-family="CMBX7" font-weight="bold"><tspan y="147.10007" x="70.196628">6</tspan></text>
<text xml:space="preserve" transform="matrix(1 0 0 1 -63.281595 -51.483339)" font-size="9.950897" font-family="CMBX10" font-weight="bold"><tspan y="147.10007" x="124.45763 128.96538">si</tspan></text>
<text xml:space="preserve" transform="matrix(1 0 0 1 -63.281595 -51.483339)" font-size="9.950897" font-family="CMTI10" font-style="italic"><tspan y="147.10007" x="135.4633 138.00078 140.80693 141.06566 145.64307 148.94676 154.03168 160.8978 165.98271 174.1126 176.65007 185.30736 189.37728 194.46219 198.52216 206.67194 210.7319 213.26938 216.31435 220.89176 226.48416 231.06157 237.68886 241.75878 246.84369 249.38117 254.46608 260.05848 265.65089 270.2283 277.8706 282.44804 285.493 290.07044 294.1304 301.01646 305.59385 310.67875 318.30113 325.69465 329.52574 337.03868">l&#x2019;&#x00b4;etatdelacase(ligne,colonne)n&#x2019;estpasVIDE</tspan></text>
<text xml:space="preserve" transform="matrix(1 0 0 1 -63.281595 -51.483339)" font-size="9.950897" font-family="CMBX10" font-weight="bold"><tspan y="147.10007" x="348.31303 353.87559 357.04994 362.7717 367.4785">alors</tspan></text>
<path transform="matrix(1,0,0,-1,-63.281595,-51.483339)" stroke-width=".397517" stroke-linecap="butt" stroke-miterlimit="10" stroke-linejoin="miter" fill="none" stroke="#000000" d="M129.633-248.195V-150.684"/>
<text xml:space="preserve" transform="matrix(1 0 0 1 -63.281595 -51.483339)" font-size="6.965528" font-family="CMBX7" font-weight="bold"><tspan y="159.04055" x="70.59514">7</tspan></text>
<text xml:space="preserve" transform="matrix(1 0 0 1 -63.281595 -51.483339)" font-size="9.950897" font-family="CMTI10" font-style="italic"><tspan y="159.04055" x="139.782 146.77748 147.03621 151.61362 156.19103 161.5247 166.36084 166.61957 171.19698 174.88877 179.46617 187.21793 189.7554 192.80037 197.88529 203.47769 206.52266 214.68239 219.7673 225.87715 230.96207 236.04698 241.63939 249.27173 251.8092 260.4665 264.52647 269.61137 273.67134 281.8211 285.88108 288.41856 291.46354 296.04096 301.63337 306.2108 312.84806 316.91798 322.00288 324.54035 329.62525 335.21766 340.81007 345.38749">R&#x00b4;ecup&#x00b4;ererl&#x2019;animaldanslacase(ligne,colonne)</tspan></text>
<text xml:space="preserve" transform="matrix(1 0 0 1 -63.281595 -51.483339)" font-size="9.950897" font-family="CMR10"><tspan y="159.04055" x="349.8256">;</tspan></text>
<text xml:space="preserve" transform="matrix(1 0 0 1 -63.281595 -51.483339)" font-size="6.965528" font-family="CMBX7" font-weight="bold"><tspan y="170.98102" x="70.59514">8</tspan></text>
<text xml:space="preserve" transform="matrix(1 0 0 1 -63.281595 -51.483339)" font-size="9.950897" font-family="CMBX10" font-weight="bold"><tspan y="170.98102" x="139.782 144.28975">si</tspan></text>
<text xml:space="preserve" transform="matrix(1 0 0 1 -63.281595 -51.483339)" font-size="9.950897" font-family="CMTI10" font-style="italic"><tspan y="170.98102" x="150.78768 153.32515 156.1313 156.39003 160.96744 164.27114 169.35605 176.22217 181.30709 189.43697 191.97444 200.63173 204.70165 209.78656 213.84653 221.9963 226.05628 228.59375 231.63872 236.21613 241.80854 246.38594 253.02318 257.08314 262.16804 264.7055 269.7904 275.3828 280.97523 285.55265 293.19496 297.77238 301.83235 308.70845 315.45515 322.46058 330.08296 333.91404">l&#x2019;&#x00b4;etatdelacase(ligne,colonne)estPROIE</tspan></text>
<text xml:space="preserve" transform="matrix(1 0 0 1 -63.281595 -51.483339)" font-size="9.950897" font-family="CMBX10" font-weight="bold"><tspan y="170.98102" x="345.1884 350.75096 353.9253 359.64707 364.35386">alors</tspan></text>
<path transform="matrix(1,0,0,-1,-63.281595,-51.483339)" stroke-width=".397517" stroke-linecap="butt" stroke-miterlimit="10" stroke-linejoin="miter" fill="none" stroke="#000000" d="M144.957-198.445V-174.562"/>
<text xml:space="preserve" transform="matrix(1 0 0 1 -63.281595 -51.483339)" font-size="6.965528" font-family="CMBX7" font-weight="bold"><tspan y="182.9215" x="70.99265">9</tspan></text>
<text xml:space="preserve" transform="matrix(1 0 0 1 -63.281595 -51.483339)" font-size="9.950897" font-family="CMTI10" font-style="italic"><tspan y="182.9215" x="155.10535 161.85205 166.21054 166.46927 171.04668 175.62409 180.95777 184.26146 188.83887 196.61052 199.148 207.27788 211.85529 216.68148 221.25888 223.79636 231.95609 237.041 245.18083 249.75824 252.8032 260.94303 265.52043 270.60533 275.939 283.70069 286.23817 294.89546 299.98036 303.67213 308.75703 311.802 319.94184 319.94184 328.58915 331.12663 339.77394 343.84385 348.92875 352.9887 361.1385 365.19847 367.73594 370.81077 375.38819 380.9806 385.558 392.15547 396.22538 401.31028 403.84776 408.93266 414.52507 420.11747 424.6949 432.3372 436.9146 446.0794 451.4131 454.7168 457.76179 460.29927 463.37409 467.43406 472.51896 478.11137">Ex&#x00b4;ecuterlecycledeviepourlaproie`alacase(ligne,colonne)enutilisant</tspan><tspan y="194.86197" x="160.08029 162.61777 165.66274 170.74765 176.34006 179.38503 187.54476 192.62967 198.73952 202.68007 202.9388 207.5162 212.09362 217.42729 222.25348 222.5122 227.08962 231.03017 231.27895">l&#x2019;animalr&#x00b4;ecup&#x00b4;er&#x00b4;e</tspan></text>
<text xml:space="preserve" transform="matrix(1 0 0 1 -63.281595 -51.483339)" font-size="9.950897" font-family="CMR10"><tspan y="194.86197" x="236.60268">;</tspan></text>
<text xml:space="preserve" transform="matrix(1 0 0 1 -63.281595 -51.483339)" font-size="6.965528" font-family="CMBX7" font-weight="bold"><tspan y="207.79824" x="66.086627 70.59332">10</tspan></text>
<text xml:space="preserve" transform="matrix(1 0 0 1 -63.281595 -51.483339)" font-size="9.950897" font-family="CMBX10" font-weight="bold"><tspan y="207.79824" x="139.782 144.28975 147.46408 153.81276 159.53453">sinon</tspan></text>
<path transform="matrix(1,0,0,-1,-63.281595,-51.483339)" stroke-width=".397517" stroke-linecap="butt" stroke-miterlimit="10" stroke-linejoin="miter" fill="none" stroke="#000000" d="M144.957-235.262V-211.383"/>
<text xml:space="preserve" transform="matrix(1 0 0 1 -63.281595 -51.483339)" font-size="6.965528" font-family="CMBX7" font-weight="bold"><tspan y="219.73871" x="66.48514 70.99184">11</tspan></text>
<text xml:space="preserve" transform="matrix(1 0 0 1 -63.281595 -51.483339)" font-size="9.950897" font-family="CMTI10" font-style="italic"><tspan y="219.73871" x="155.10535 161.85205 166.21054 166.46927 171.04668 175.62409 180.95777 184.26146 188.83887 196.61052 199.148 207.27788 211.85529 216.68148 221.25888 223.79636 231.95609 237.041 245.18083 249.75824 252.8032 260.94303 265.52043 270.60533 275.939 283.70069 286.23817 294.38795 299.47285 303.4134 303.67213 308.24955 313.33445 318.41935 321.72306 326.30049 331.63417 339.39588 339.39588 348.04319 350.58067 359.22798 363.29789 368.38279 372.44276 380.59254 384.6525 387.18998 390.2648 394.84223 400.43464 405.01206 411.6095 415.6794 420.7643 423.3018 428.3867 433.9791 439.5715 444.14894 451.80119 456.3786 465.53343 470.8671 474.1708 477.2158 479.75328 482.8281 486.88807 491.97297 497.56538">Ex&#x00b4;ecuterlecycledeviepourlepr&#x00b4;edateur`alacase(ligne,colonne)enutilisant</tspan><tspan y="231.67919" x="160.08029 162.61777 165.66274 170.74765 176.34006 179.38503 187.54476 192.62967 198.73952 202.68007 202.9388 207.5162 212.09362 217.42729 222.25348 222.5122 227.08962 231.03017 231.27895">l&#x2019;animalr&#x00b4;ecup&#x00b4;er&#x00b4;e</tspan></text>
<text xml:space="preserve" transform="matrix(1 0 0 1 -63.281595 -51.483339)" font-size="9.950897" font-family="CMR10"><tspan y="231.67919" x="236.60268">;</tspan></text>
<text xml:space="preserve" transform="matrix(1 0 0 1 -63.281595 -51.483339)" font-size="6.965528" font-family="CMBX7" font-weight="bold"><tspan y="244.61547" x="66.086627 70.59332">12</tspan></text>
<text xml:space="preserve" transform="matrix(1 0 0 1 -63.281595 -51.483339)" font-size="9.950897" font-family="CMBX10" font-weight="bold"><tspan y="244.61547" x="139.782">&#xfb01;</tspan></text>
<text xml:space="preserve" transform="matrix(1 0 0 1 -63.281595 -51.483339)" font-size="9.950897" font-family="CMBX10" font-weight="bold"><tspan y="244.61547" x="146.13068">n</tspan></text>
<text xml:space="preserve" transform="matrix(1 0 0 1 -63.281595 -51.483339)" font-size="6.965528" font-family="CMBX7" font-weight="bold"><tspan y="257.55073" x="65.68911 70.19581">13</tspan></text>
<text xml:space="preserve" transform="matrix(1 0 0 1 -63.281595 -51.483339)" font-size="9.950897" font-family="CMBX10" font-weight="bold"><tspan y="257.55073" x="124.45763">&#xfb01;</tspan></text>
<text xml:space="preserve" transform="matrix(1 0 0 1 -63.281595 -51.483339)" font-size="9.950897" font-family="CMBX10" font-weight="bold"><tspan y="257.55073" x="130.8063">n</tspan></text>
<text xml:space="preserve" transform="matrix(1 0 0 1 -63.281595 -51.483339)" font-size="6.965528" font-family="CMBX7" font-weight="bold"><tspan y="270.486" x="65.29059 69.79729">14</tspan></text>
<text xml:space="preserve" transform="matrix(1 0 0 1 -63.281595 -51.483339)" font-size="9.950897" font-family="CMBX10" font-weight="bold"><tspan y="270.486" x="109.13427">&#xfb01;</tspan></text>
<text xml:space="preserve" transform="matrix(1 0 0 1 -63.281595 -51.483339)" font-size="9.950897" font-family="CMBX10" font-weight="bold"><tspan y="270.486" x="115.48294">n</tspan></text>
<text xml:space="preserve" transform="matrix(1 0 0 1 -63.281595 -51.483339)" font-size="6.965528" font-family="CMBX7" font-weight="bold"><tspan y="283.42228" x="64.893077 69.39977">15</tspan></text>
<text xml:space="preserve" transform="matrix(1 0 0 1 -63.281595 -51.483339)" font-size="9.950897" font-family="CMBX10" font-weight="bold"><tspan y="283.42228" x="93.809909">&#xfb01;</tspan></text>
<text xml:space="preserve" transform="matrix(1 0 0 1 -63.281595 -51.483339)" font-size="9.950897" font-family="CMBX10" font-weight="bold"><tspan y="283.42228" x="100.15858">n</tspan></text>
<text xml:space="preserve" transform="matrix(1 0 0 1 -63.281595 -51.483339)" font-size="6.965528" font-family="CMBX7" font-weight="bold"><tspan y="296.35755" x="64.49456 69.00126">16</tspan></text>
<text xml:space="preserve" transform="matrix(1 0 0 1 -63.281595 -51.483339)" font-size="9.950897" font-family="CMBX10" font-weight="bold"><tspan y="296.35755" x="78.48654">&#xfb01;</tspan></text>
<text xml:space="preserve" transform="matrix(1 0 0 1 -63.281595 -51.483339)" font-size="9.950897" font-family="CMBX10" font-weight="bold"><tspan y="296.35755" x="84.83521">n</tspan></text>
<path transform="matrix(1,0,0,-1,-63.281595,-51.483339)" stroke-width=".796032" stroke-linecap="butt" stroke-miterlimit="10" stroke-linejoin="miter" fill="none" stroke="#000000" d="M63.562-302.328H530.992"/>
</g>
</svg>
