<svg xmlns="http://www.w3.org/2000/svg" xmlns:xlink="http://www.w3.org/1999/xlink" version="1.1" width="468.17655pt" height="310.52668pt" viewBox="0 0 468.17655 310.52668">
<g>
<path transform="matrix(1,0,0,-1,-63.281595,-51.483339)" stroke-width=".796032" stroke-linecap="butt" stroke-miterlimit="10" stroke-linejoin="miter" fill="none" stroke="#000000" d="M63.562-52.535H530.992"/>
<text xml:space="preserve" transform="matrix(1 0 0 1 -63.281595 -51.483339)" font-size="9.950498" font-family="CMBX10" font-weight="bold"><tspan y="61.834768" x="71.02362 79.6706 82.84481 88.566349 94.28788 98.99447 102.16868 106.616558 112.99483 122.527408 131.58235 141.12488">Algorithme5:</tspan></text>
<text xml:space="preserve" transform="matrix(1 0 0 1 -63.281595 -51.483339)" font-size="9.950498" font-family="CMR10"><tspan y="61.834768" x="147.62256 154.80683 160.32935 165.3046 168.06089 176.63822 182.16074 184.91703 190.43955 199.30544 204.29064 209.26589 212.02217 215.94268 218.69896 227.5549 232.53015 238.05268 241.91347 246.88872 252.41124 259.64524 265.16777 267.92405 273.44657 278.99894 286.73048 292.54158 297.5168 301.43733 304.1936 308.05439 310.8405 315.81578 324.6518 330.17433 335.14958 340.6721 345.94587 346.21455 350.63258 358.384 363.08064 368.05589 372.4739 380.2154 385.7379 394.59385 399.01188 403.98713 409.24098 413.10176 417.51979 422.77363 431.62956 435.55006 440.8039 441.08253 445.50056 449.91859">Choixd&#x2019;unvoisinautourd&#x2019;unepositiondonn&#x00b4;eeavecuncontenusp&#x00b4;eci</tspan></text>
<text xml:space="preserve" transform="matrix(1 0 0 1 -63.281595 -51.483339)" font-size="9.950498" font-family="CMR10"><tspan y="61.834768" x="452.67488">&#xfb01;</tspan></text>
<text xml:space="preserve" transform="matrix(1 0 0 1 -63.281595 -51.483339)" font-size="9.950498" font-family="CMR10"><tspan y="61.834768" x="457.93867 458.2173">&#x00b4;e</tspan></text>
<path transform="matrix(1,0,0,-1,-63.281595,-51.483339)" stroke-width=".796032" stroke-linecap="butt" stroke-miterlimit="10" stroke-linejoin="miter" fill="none" stroke="#000000" d="M63.562-66.156H530.992"/>
<text xml:space="preserve" transform="matrix(1 0 0 1 -63.281595 -51.483339)" font-size="9.950498" font-family="CMBX10" font-weight="bold"><tspan y="75.4562" x="78.48654 85.99917 92.03912 96.487 100.96473 101.20354 106.44745 111.69136 120.01993">Entr&#x00b4;ees:</tspan></text>
<text xml:space="preserve" transform="matrix(1 0 0 1 -63.281595 -51.483339)" font-size="9.950498" font-family="CMR10"><tspan y="75.4562" x="126.5176 131.49285 135.38349 138.13977 140.89606 143.68219 148.1002 154.17996 156.93625 159.69254 164.66779 170.22016 174.63817 180.72788 185.14589 190.12114 192.87743 197.85268 203.3752 208.89772 213.34558 219.41539 223.8334 228.80866 234.06252 237.92331 242.34133 247.60514">grille,ligne,colonne,contenu</tspan></text>
<text xml:space="preserve" transform="matrix(1 0 0 1 -63.281595 -51.483339)" font-size="9.950498" font-family="CMBX10" font-weight="bold"><tspan y="87.396678" x="78.48654 84.83496 90.556499 95.263088 99.71096 102.88517 108.12908 116.47755">Sorties:</tspan></text>
<text xml:space="preserve" transform="matrix(1 0 0 1 -63.281595 -51.483339)" font-size="9.950498" font-family="CMR10"><tspan y="87.396678" x="122.97522 130.4381 135.96062 143.7021 149.51319 154.48844 158.40894 161.16522 165.02602 167.7823 172.75756 181.62345 185.48424 188.24053 191.02666 196.0019 201.52443 205.94245 212.03215 216.45017 221.42542 224.1817 229.15695 234.67948 240.23184 244.64986 251.83412 257.35667 260.11296 265.63548 274.50135 279.46665 284.4419 287.19819 291.11869 293.87498 302.75083 307.44746 312.4227 316.84074 324.59217 330.1147 338.96067 343.3787 348.35395 353.6078 357.46858 361.8866 367.1504 375.99638 381.5189 386.49415 392.01667 397.28047 397.54914 405.30058 410.27583 419.11186 422.97264 430.4355 435.41075 440.93327 445.3513 451.45094 458.9138 463.88905 469.41157 473.8296 481.03373 484.95423 487.7105 490.4668 496.56645 502.08897 504.84526">Uneposition(ligne,colonne)d&#x2019;unvoisinavecuncontenudonn&#x00b4;eou(None,None)s&#x2019;iln&#x2019;y</tspan><tspan y="99.33715" x="122.97443 127.39245 136.23845 144.53717 150.0597 155.03495">enapas</tspan></text>
<text xml:space="preserve" transform="matrix(1 0 0 1 -63.281595 -51.483339)" font-size="6.965328" font-family="CMBX7" font-weight="bold"><tspan y="111.27763" x="69.003078">1</tspan></text>
<text xml:space="preserve" transform="matrix(1 0 0 1 -63.281595 -51.483339)" font-size="9.950498" font-family="CMBX10" font-weight="bold"><tspan y="111.27763" x="78.48654 84.6061 84.84491 90.08882 96.43724 102.78566">d&#x00b4;ebut</tspan></text>
<path transform="matrix(1,0,0,-1,-63.281595,-51.483339)" stroke-width=".397517" stroke-linecap="butt" stroke-miterlimit="10" stroke-linejoin="miter" fill="none" stroke="#000000" d="M83.66-344.719V-114.859"/>
<text xml:space="preserve" transform="matrix(1 0 0 1 -63.281595 -51.483339)" font-size="6.965328" font-family="CMBX7" font-weight="bold"><tspan y="123.21811" x="69.40059">2</tspan></text>
<text xml:space="preserve" transform="matrix(1 0 0 1 -63.281595 -51.483339)" font-size="9.950498" font-family="CMR10"><tspan y="123.21811" x="93.809909 97.6707 102.64595 108.466999 112.88502 117.86027 121.78076 126.198787">tabcases</tspan></text>
<text xml:space="preserve" transform="matrix(1 0 0 1 -63.281595 -51.483339)" font-size="9.950498" font-family="CMSY10" font-style="italic"><tspan y="123.21811" x="133.44275">&#x2190;</tspan></text>
<text xml:space="preserve" transform="matrix(1 0 0 1 -63.281595 -51.483339)" font-size="9.950498" font-family="CMR10"><tspan y="123.21811" x="146.71672 149.473 152.2293 156.1498 160.04044 167.77198 173.01589 175.77217 181.2947 185.74256">listevide;</tspan></text>
<text xml:space="preserve" transform="matrix(1 0 0 1 -63.281595 -51.483339)" font-size="6.965328" font-family="CMBX7" font-weight="bold"><tspan y="135.15958" x="69.40059">3</tspan></text>
<text xml:space="preserve" transform="matrix(1 0 0 1 -63.281595 -51.483339)" font-size="9.950498" font-family="CMTI10" font-style="italic"><tspan y="135.15958" x="93.809909 101.431987 106.00922 109.31278 113.890018 119.48219 122.52705 130.30834 132.84572 137.42295 145.04502 150.12972 153.17456 161.30413 165.88135 171.47353 175.56317 178.60802 183.69272 189.2849 196.92688 202.01158 210.15108 212.68846 221.33544 225.91266 230.10182 233.14667 236.21143 238.74881 246.8883 250.9481 256.54029">Obtenirlesdimensionsdelagrille(nb</tspan></text>
<path transform="matrix(1,0,0,-1,-63.281595,-51.483339)" stroke-width=".397517" stroke-linecap="butt" stroke-miterlimit="10" stroke-linejoin="miter" fill="none" stroke="#000000" d="M261.742-134.961H264.793"/>
<text xml:space="preserve" transform="matrix(1 0 0 1 -63.281595 -51.483339)" font-size="9.950498" font-family="CMTI10" font-style="italic"><tspan y="135.15958" x="264.79496 267.33235 270.3772 274.95445 281.58149 287.17369">lig,nb</tspan></text>
<path transform="matrix(1,0,0,-1,-63.281595,-51.483339)" stroke-width=".397517" stroke-linecap="butt" stroke-miterlimit="10" stroke-linejoin="miter" fill="none" stroke="#000000" d="M292.359-134.961H295.41"/>
<text xml:space="preserve" transform="matrix(1 0 0 1 -63.281595 -51.483339)" font-size="9.950498" font-family="CMTI10" font-style="italic"><tspan y="135.15958" x="295.4107 299.48048 304.5652 307.10258">col)</tspan></text>
<text xml:space="preserve" transform="matrix(1 0 0 1 -63.281595 -51.483339)" font-size="9.950498" font-family="CMR10"><tspan y="135.15958" x="311.5405">;</tspan></text>
<text xml:space="preserve" transform="matrix(1 0 0 1 -63.281595 -51.483339)" font-size="6.965328" font-family="CMBX7" font-weight="bold"><tspan y="147.10007" x="69.40059">4</tspan></text>
<text xml:space="preserve" transform="matrix(1 0 0 1 -63.281595 -51.483339)" font-size="9.950498" font-family="CMBX10" font-weight="bold"><tspan y="147.10007" x="93.809909 100.486698 106.20823 112.55665">pour</tspan></text>
<text xml:space="preserve" transform="matrix(1 0 0 1 -63.281595 -51.483339)" font-size="9.950498" font-family="CMTI10" font-style="italic"><tspan y="147.10007" x="120.59666">i</tspan></text>
<text xml:space="preserve" transform="matrix(1 0 0 1 -63.281595 -51.483339)" font-size="9.950498" font-family="CMBXTI10" font-weight="bold" font-style="italic"><tspan y="147.10007" x="127.20379 133.08454 136.6269 139.57225 145.45299 151.9208 159.88121 165.76195">allantde</tspan></text>
<text xml:space="preserve" transform="matrix(1 0 0 1 -63.281595 -51.483339)" font-size="9.950498" font-family="CMTI10" font-style="italic"><tspan y="147.10007" x="174.61789 177.15528 180.20012 184.77735 190.36952 198.52893 205.63358">ligne-1</tspan></text>
<text xml:space="preserve" transform="matrix(1 0 0 1 -63.281595 -51.483339)" font-size="9.950498" font-family="CMBXTI10" font-weight="bold" font-style="italic"><tspan y="147.10007" x="214.29051 214.29051">`a</tspan></text>
<text xml:space="preserve" transform="matrix(1 0 0 1 -63.281595 -51.483339)" font-size="9.950498" font-family="CMTI10" font-style="italic"><tspan y="147.10007" x="223.73352 226.2709 229.31575 233.89298 239.48516 247.63462 258.81898">ligne+1</tspan></text>
<text xml:space="preserve" transform="matrix(1 0 0 1 -63.281595 -51.483339)" font-size="9.950498" font-family="CMBX10" font-weight="bold"><tspan y="147.10007" x="268.57048 272.06309 277.6254 280.7996 285.50617">faire</tspan></text>
<path transform="matrix(1,0,0,-1,-63.281595,-51.483339)" stroke-width=".397517" stroke-linecap="butt" stroke-miterlimit="10" stroke-linejoin="miter" fill="none" stroke="#000000" d="M98.984-272.078V-150.684"/>
<text xml:space="preserve" transform="matrix(1 0 0 1 -63.281595 -51.483339)" font-size="6.965328" font-family="CMBX7" font-weight="bold"><tspan y="159.04055" x="69.79911">5</tspan></text>
<text xml:space="preserve" transform="matrix(1 0 0 1 -63.281595 -51.483339)" font-size="9.950498" font-family="CMBX10" font-weight="bold"><tspan y="159.04055" x="109.13427 115.81106 121.53259 127.88101">pour</tspan></text>
<text xml:space="preserve" transform="matrix(1 0 0 1 -63.281595 -51.483339)" font-size="9.950498" font-family="CMTI10" font-style="italic"><tspan y="159.04055" x="135.92102">j</tspan></text>
<text xml:space="preserve" transform="matrix(1 0 0 1 -63.281595 -51.483339)" font-size="9.950498" font-family="CMBXTI10" font-weight="bold" font-style="italic"><tspan y="159.04055" x="142.52814 148.40888 151.95125 154.89659 160.77733 167.24515 175.20555 181.08629">allantde</tspan></text>
<text xml:space="preserve" transform="matrix(1 0 0 1 -63.281595 -51.483339)" font-size="9.950498" font-family="CMTI10" font-style="italic"><tspan y="159.04055" x="189.94223 194.01198 199.09668 201.63407 206.71877 212.31095 217.90312 226.05258 233.16718">colonne-1</tspan></text>
<text xml:space="preserve" transform="matrix(1 0 0 1 -63.281595 -51.483339)" font-size="9.950498" font-family="CMBXTI10" font-weight="bold" font-style="italic"><tspan y="159.04055" x="241.81415 241.81415">`a</tspan></text>
<text xml:space="preserve" transform="matrix(1 0 0 1 -63.281595 -51.483339)" font-size="9.950498" font-family="CMTI10" font-style="italic"><tspan y="159.04055" x="251.25716 255.3269 260.41163 262.949 268.03373 273.62593 279.2181 287.36759 298.55195">colonne+1</tspan></text>
<text xml:space="preserve" transform="matrix(1 0 0 1 -63.281595 -51.483339)" font-size="9.950498" font-family="CMBX10" font-weight="bold"><tspan y="159.04055" x="308.3134 311.806 317.36833 320.5425 325.24909">faire</tspan></text>
<path transform="matrix(1,0,0,-1,-63.281595,-51.483339)" stroke-width=".397517" stroke-linecap="butt" stroke-miterlimit="10" stroke-linejoin="miter" fill="none" stroke="#000000" d="M114.309-259.145V-162.621"/>
<text xml:space="preserve" transform="matrix(1 0 0 1 -63.281595 -51.483339)" font-size="6.965328" font-family="CMBX7" font-weight="bold"><tspan y="170.98102" x="70.196628">6</tspan></text>
<text xml:space="preserve" transform="matrix(1 0 0 1 -63.281595 -51.483339)" font-size="9.950498" font-family="CMBX10" font-weight="bold"><tspan y="170.98102" x="124.45763 128.9652">si</tspan></text>
<text xml:space="preserve" transform="matrix(1 0 0 1 -63.281595 -51.483339)" font-size="9.950498" font-family="CMTI10" font-style="italic"><tspan y="170.98102" x="139.02515 145.64223 150.21945 154.27925 161.15505 166.23975">iestdi</tspan></text>
<text xml:space="preserve" transform="matrix(1 0 0 1 -63.281595 -51.483339)" font-size="9.950498" font-family="CMTI10" font-style="italic"><tspan y="170.98102" x="169.28459">&#xfb00;</tspan></text>
<text xml:space="preserve" transform="matrix(1 0 0 1 -63.281595 -51.483339)" font-size="9.950498" font-family="CMTI10" font-style="italic"><tspan y="170.98102" x="175.13549 175.38425 179.96147 183.6531 188.23033 193.82251 200.68834 205.77304 213.91254 216.44992 219.49477 224.07199 229.66417">&#x00b4;erentdeligne</tspan></text>
<text xml:space="preserve" transform="matrix(1 0 0 1 -63.281595 -51.483339)" font-size="9.950498" font-family="CMBXTI10" font-weight="bold" font-style="italic"><tspan y="170.98102" x="237.82358 243.70432">ou</tspan></text>
<text xml:space="preserve" transform="matrix(1 0 0 1 -63.281595 -51.483339)" font-size="9.950498" font-family="CMTI10" font-style="italic"><tspan y="170.98102" x="253.4359 260.05299 264.63023 268.69004 275.56584 280.65055">jestdi</tspan></text>
<text xml:space="preserve" transform="matrix(1 0 0 1 -63.281595 -51.483339)" font-size="9.950498" font-family="CMTI10" font-style="italic"><tspan y="170.98102" x="283.6954">&#xfb00;</tspan></text>
<text xml:space="preserve" transform="matrix(1 0 0 1 -63.281595 -51.483339)" font-size="9.950498" font-family="CMTI10" font-style="italic"><tspan y="170.98102" x="289.54634 289.7951 294.37236 298.06398 302.6412 308.2334 315.09925 320.18397 328.3235 332.39326 337.47798 340.01536 345.10008 350.69227 356.28446 360.8617">&#x00b4;erentdecolonne)</tspan></text>
<text xml:space="preserve" transform="matrix(1 0 0 1 -63.281595 -51.483339)" font-size="9.950498" font-family="CMBX10" font-weight="bold"><tspan y="170.98102" x="368.6231 374.18544 377.35963 383.08116 387.78773">alors</tspan></text>
<path transform="matrix(1,0,0,-1,-63.281595,-51.483339)" stroke-width=".397517" stroke-linecap="butt" stroke-miterlimit="10" stroke-linejoin="miter" fill="none" stroke="#000000" d="M129.633-246.207V-174.562"/>
<text xml:space="preserve" transform="matrix(1 0 0 1 -63.281595 -51.483339)" font-size="6.965328" font-family="CMBX7" font-weight="bold"><tspan y="182.9215" x="70.59514">7</tspan></text>
<text xml:space="preserve" transform="matrix(1 0 0 1 -63.281595 -51.483339)" font-size="9.950498" font-family="CMTI10" font-style="italic"><tspan y="182.9215" x="139.782 147.17522 150.22006 155.55353 159.64318 162.94673 167.52396 175.28536 178.3302 184.93732 191.5544 196.13162 201.21633 206.54979 214.31119 217.61475 222.19197 227.78415 230.829 238.5904 242.66014 247.74485 255.8744 260.9591 264.26268 272.41215 277.49687 282.0741 289.70616 292.24354 295.2884 303.41795 306.49266 309.7962 314.37345 322.0055 327.0902 335.2198 337.75718 346.41413 350.99137 355.1805 358.22538 361.29014 363.8275 371.96705 376.02687 379.07173 384.15644 390.79344 393.8383 398.923">Ajusteri,jpourtenircomptedeslimitesdelagrille(i2,j2)</tspan></text>
<text xml:space="preserve" transform="matrix(1 0 0 1 -63.281595 -51.483339)" font-size="9.950498" font-family="CMR10"><tspan y="182.9215" x="403.36094">;</tspan></text>
<text xml:space="preserve" transform="matrix(1 0 0 1 -63.281595 -51.483339)" font-size="6.965328" font-family="CMBX7" font-weight="bold"><tspan y="194.86197" x="70.59514">8</tspan></text>
<text xml:space="preserve" transform="matrix(1 0 0 1 -63.281595 -51.483339)" font-size="9.950498" font-family="CMTI10" font-style="italic"><tspan y="194.86197" x="139.782 147.40409 151.98131 155.28487 159.86209 165.45427 168.49912 176.28041 178.8178 187.45482 191.52457 196.60927 200.66907 208.81853 212.87833 215.92317 221.00788 227.64485 230.6897 235.7744 243.40644 248.49114 256.6207 259.15809 267.81504 272.39228 276.58143 279.62629 282.69105 285.22843">Obtenirlacase(i2,j2)delagrille</tspan></text>
<text xml:space="preserve" transform="matrix(1 0 0 1 -63.281595 -51.483339)" font-size="9.950498" font-family="CMR10"><tspan y="194.86197" x="290.5619">;</tspan></text>
<text xml:space="preserve" transform="matrix(1 0 0 1 -63.281595 -51.483339)" font-size="6.965328" font-family="CMBX7" font-weight="bold"><tspan y="206.80345" x="70.59514">9</tspan></text>
<text xml:space="preserve" transform="matrix(1 0 0 1 -63.281595 -51.483339)" font-size="9.950498" font-family="CMBX10" font-weight="bold"><tspan y="206.80345" x="139.782 144.28957">si</tspan></text>
<text xml:space="preserve" transform="matrix(1 0 0 1 -63.281595 -51.483339)" font-size="9.950498" font-family="CMTI10" font-style="italic"><tspan y="206.80345" x="150.37928 150.62804 155.20526 158.50882 163.59352 170.33 175.4147 183.40496 185.94234 194.45996 198.52971 203.61441 207.67421 215.67441 220.25164 224.31143 230.7892 231.04792 235.62514 240.20236 245.28707 251.24742 251.24742 259.7551 263.8149 268.89964 274.49183 277.79539 282.37263 287.9648">&#x00b4;etatdelacaseest&#x00b4;egal`acontenu</tspan></text>
<text xml:space="preserve" transform="matrix(1 0 0 1 -63.281595 -51.483339)" font-size="9.950498" font-family="CMBXTI10" font-weight="bold" font-style="italic"><tspan y="206.80345" x="296.7312 302.02488">et</tspan></text>
<text xml:space="preserve" transform="matrix(1 0 0 1 -63.281595 -51.483339)" font-size="9.950498" font-family="CMTI10" font-style="italic"><tspan y="206.80345" x="309.27879 313.3386 317.4183 322.50303 328.0952 331.39878 335.976 341.5682 350.32466 354.9019 358.9617 365.69819 373.0914 376.92234 384.43498">(contenuestVIDE</tspan></text>
<text xml:space="preserve" transform="matrix(1 0 0 1 -63.281595 -51.483339)" font-size="9.950498" font-family="CMBXTI10" font-weight="bold" font-style="italic"><tspan y="206.80345" x="394.61433 400.49507">ou</tspan></text>
<text xml:space="preserve" transform="matrix(1 0 0 1 -63.281595 -51.483339)" font-size="9.950498" font-family="CMTI10" font-style="italic"><tspan y="206.80345" x="410.08735 412.62474 415.6696 420.7543 426.3465 429.39137 437.55076 442.63548 448.59584 453.68055 458.76527 464.35746 471.8502 474.38758 482.89527 486.96504 492.04975 496.10957 504.11973 508.69697 512.7568">l&#x2019;animaldanslacaseest</tspan><tspan y="218.74393" x="144.75695 149.84165 152.88649 156.94629 161.54341 166.62812 172.22029 175.26514 179.84236 182.37975 186.95697">disponible)</tspan></text>
<text xml:space="preserve" transform="matrix(1 0 0 1 -63.281595 -51.483339)" font-size="9.950498" font-family="CMBX10" font-weight="bold"><tspan y="218.74393" x="194.71836 200.28069 203.4549 209.17644 213.88303">alors</tspan></text>
<path transform="matrix(1,0,0,-1,-63.281595,-51.483339)" stroke-width=".397517" stroke-linecap="butt" stroke-miterlimit="10" stroke-linejoin="miter" fill="none" stroke="#000000" d="M144.957-234.266V-222.324"/>
<text xml:space="preserve" transform="matrix(1 0 0 1 -63.281595 -51.483339)" font-size="6.965328" font-family="CMBX7" font-weight="bold"><tspan y="230.6844" x="66.48514 70.99171">10</tspan></text>
<text xml:space="preserve" transform="matrix(1 0 0 1 -63.281595 -51.483339)" font-size="9.950498" font-family="CMTI10" font-style="italic"><tspan y="230.6844" x="155.10535 162.49857 165.54341 170.62812 175.96158 179.26514 183.84236 191.62366 195.68346 198.7283 203.813 210.43009 213.47493 218.55963 226.20162 226.20162 234.84859 238.15215 243.23685 247.3066 251.37635 256.46107 260.52088 265.0981">Ajouter(i2,j2)`atabcases</tspan></text>
<text xml:space="preserve" transform="matrix(1 0 0 1 -63.281595 -51.483339)" font-size="9.950498" font-family="CMR10"><tspan y="230.6844" x="269.99378">;</tspan></text>
<text xml:space="preserve" transform="matrix(1 0 0 1 -63.281595 -51.483339)" font-size="6.965328" font-family="CMBX7" font-weight="bold"><tspan y="242.62488" x="66.086627 70.59319">11</tspan></text>
<text xml:space="preserve" transform="matrix(1 0 0 1 -63.281595 -51.483339)" font-size="9.950498" font-family="CMBX10" font-weight="bold"><tspan y="242.62488" x="139.782">&#xfb01;</tspan></text>
<text xml:space="preserve" transform="matrix(1 0 0 1 -63.281595 -51.483339)" font-size="9.950498" font-family="CMBX10" font-weight="bold"><tspan y="242.62488" x="146.13042">n</tspan></text>
<text xml:space="preserve" transform="matrix(1 0 0 1 -63.281595 -51.483339)" font-size="6.965328" font-family="CMBX7" font-weight="bold"><tspan y="255.56015" x="65.68911 70.19568">12</tspan></text>
<text xml:space="preserve" transform="matrix(1 0 0 1 -63.281595 -51.483339)" font-size="9.950498" font-family="CMBX10" font-weight="bold"><tspan y="255.56015" x="124.45763">&#xfb01;</tspan></text>
<text xml:space="preserve" transform="matrix(1 0 0 1 -63.281595 -51.483339)" font-size="9.950498" font-family="CMBX10" font-weight="bold"><tspan y="255.56015" x="130.80605">n</tspan></text>
<text xml:space="preserve" transform="matrix(1 0 0 1 -63.281595 -51.483339)" font-size="6.965328" font-family="CMBX7" font-weight="bold"><tspan y="268.4964" x="65.29059 69.79716">13</tspan></text>
<text xml:space="preserve" transform="matrix(1 0 0 1 -63.281595 -51.483339)" font-size="9.950498" font-family="CMBX10" font-weight="bold"><tspan y="268.4964" x="109.13427">&#xfb01;</tspan></text>
<text xml:space="preserve" transform="matrix(1 0 0 1 -63.281595 -51.483339)" font-size="9.950498" font-family="CMBX10" font-weight="bold"><tspan y="268.4964" x="115.48269">n</tspan></text>
<text xml:space="preserve" transform="matrix(1 0 0 1 -63.281595 -51.483339)" font-size="6.965328" font-family="CMBX7" font-weight="bold"><tspan y="281.43168" x="64.893077 69.39964">14</tspan></text>
<text xml:space="preserve" transform="matrix(1 0 0 1 -63.281595 -51.483339)" font-size="9.950498" font-family="CMBX10" font-weight="bold"><tspan y="281.43168" x="93.809909">&#xfb01;</tspan></text>
<text xml:space="preserve" transform="matrix(1 0 0 1 -63.281595 -51.483339)" font-size="9.950498" font-family="CMBX10" font-weight="bold"><tspan y="281.43168" x="100.158329">n</tspan></text>
<text xml:space="preserve" transform="matrix(1 0 0 1 -63.281595 -51.483339)" font-size="6.965328" font-family="CMBX7" font-weight="bold"><tspan y="293.37318" x="64.893077 69.39964">15</tspan></text>
<text xml:space="preserve" transform="matrix(1 0 0 1 -63.281595 -51.483339)" font-size="9.950498" font-family="CMBX10" font-weight="bold"><tspan y="293.37318" x="93.809909 98.31748">si</tspan></text>
<text xml:space="preserve" transform="matrix(1 0 0 1 -63.281595 -51.483339)" font-size="9.950498" font-family="CMTI10" font-style="italic"><tspan y="293.37318" x="104.815158 108.11872 113.20342 117.28313 121.35288 126.437587 130.49739 135.07462 142.7166 147.28388 150.32872 154.90595 158.96575 165.85149 170.42871 175.51342 183.14545 187.72267 190.76752 195.85222">tabcasesn&#x2019;estpasvide</tspan></text>
<text xml:space="preserve" transform="matrix(1 0 0 1 -63.281595 -51.483339)" font-size="9.950498" font-family="CMBX10" font-weight="bold"><tspan y="293.37318" x="204.49919 210.06153 213.23574 218.95728 223.66387">alors</tspan></text>
<path transform="matrix(1,0,0,-1,-63.281595,-51.483339)" stroke-width=".397517" stroke-linecap="butt" stroke-miterlimit="10" stroke-linejoin="miter" fill="none" stroke="#000000" d="M98.984-308.895V-296.953"/>
<text xml:space="preserve" transform="matrix(1 0 0 1 -63.281595 -51.483339)" font-size="6.965328" font-family="CMBX7" font-weight="bold"><tspan y="305.31364" x="65.29059 69.79716">16</tspan></text>
<text xml:space="preserve" transform="matrix(1 0 0 1 -63.281595 -51.483339)" font-size="9.950498" font-family="CMBX10" font-weight="bold"><tspan y="305.31364" x="109.13427 113.84086 119.08477 123.532649 129.25418 135.6026 140.30919 146.68746 151.93137">retourner</tspan></text>
<text xml:space="preserve" transform="matrix(1 0 0 1 -63.281595 -51.483339)" font-size="9.950498" font-family="CMTI10" font-style="italic"><tspan y="305.31364" x="159.96143 164.02123 169.6134 174.6981 182.82767 187.40489 191.11643 199.25592 204.34062 212.47017 217.0474 222.1321 225.17694 229.23674 232.31143 237.90361 244.51073 249.8442 258.74989 259.0086 263.58586 265.87449 266.1332 270.71046 278.84 283.41725 289.00944 295.87528 300.96 303.25859 303.50736 308.0846 313.1693 316.47288 321.5576 324.60246 328.30403 336.44355 341.52827 349.6678 352.97135 358.05607 362.12583 366.18565 371.27037 375.33018 379.9074 383.96723">(nombredevoisin,un&#x00b4;el&#x00b4;emental&#x00b4;eatoiredetabcases)</tspan></text>
<text xml:space="preserve" transform="matrix(1 0 0 1 -63.281595 -51.483339)" font-size="9.950498" font-family="CMR10"><tspan y="305.31364" x="388.42506">;</tspan></text>
<text xml:space="preserve" transform="matrix(1 0 0 1 -63.281595 -51.483339)" font-size="6.965328" font-family="CMBX7" font-weight="bold"><tspan y="317.25413" x="64.893077 69.39964">17</tspan></text>
<text xml:space="preserve" transform="matrix(1 0 0 1 -63.281595 -51.483339)" font-size="9.950498" font-family="CMBX10" font-weight="bold"><tspan y="317.25413" x="93.809909 98.31748 101.49169 107.84011 113.561649">sinon</tspan></text>
<path transform="matrix(1,0,0,-1,-63.281595,-51.483339)" stroke-width=".397517" stroke-linecap="butt" stroke-miterlimit="10" stroke-linejoin="miter" fill="none" stroke="#000000" d="M98.984-332.777V-320.836"/>
<text xml:space="preserve" transform="matrix(1 0 0 1 -63.281595 -51.483339)" font-size="6.965328" font-family="CMBX7" font-weight="bold"><tspan y="329.19459" x="65.29059 69.79716">18</tspan></text>
<text xml:space="preserve" transform="matrix(1 0 0 1 -63.281595 -51.483339)" font-size="9.950498" font-family="CMBX10" font-weight="bold"><tspan y="329.19459" x="109.13427 113.84086 119.08477 123.532649 129.25418 135.6026 140.30919 146.68746 151.93137">retourner</tspan></text>
<text xml:space="preserve" transform="matrix(1 0 0 1 -63.281595 -51.483339)" font-size="9.950498" font-family="CMTI10" font-style="italic"><tspan y="329.19459" x="159.96143 164.02123 169.10593 175.73296 183.12618 188.21088 193.80306 198.38028 204.99736 212.39058 217.47528 223.06746 227.64469">(0,None,None)</tspan></text>
<text xml:space="preserve" transform="matrix(1 0 0 1 -63.281595 -51.483339)" font-size="9.950498" font-family="CMR10"><tspan y="329.19459" x="232.0826">;</tspan></text>
<text xml:space="preserve" transform="matrix(1 0 0 1 -63.281595 -51.483339)" font-size="6.965328" font-family="CMBX7" font-weight="bold"><tspan y="341.13508" x="64.893077 69.39964">19</tspan></text>
<text xml:space="preserve" transform="matrix(1 0 0 1 -63.281595 -51.483339)" font-size="9.950498" font-family="CMBX10" font-weight="bold"><tspan y="341.13508" x="93.809909">&#xfb01;</tspan></text>
<text xml:space="preserve" transform="matrix(1 0 0 1 -63.281595 -51.483339)" font-size="9.950498" font-family="CMBX10" font-weight="bold"><tspan y="341.13508" x="100.158329">n</tspan></text>
<text xml:space="preserve" transform="matrix(1 0 0 1 -63.281595 -51.483339)" font-size="6.965328" font-family="CMBX7" font-weight="bold"><tspan y="354.07136" x="64.49456 69.00113">20</tspan></text>
<text xml:space="preserve" transform="matrix(1 0 0 1 -63.281595 -51.483339)" font-size="9.950498" font-family="CMBX10" font-weight="bold"><tspan y="354.07136" x="78.48654">&#xfb01;</tspan></text>
<text xml:space="preserve" transform="matrix(1 0 0 1 -63.281595 -51.483339)" font-size="9.950498" font-family="CMBX10" font-weight="bold"><tspan y="354.07136" x="84.83496">n</tspan></text>
<path transform="matrix(1,0,0,-1,-63.281595,-51.483339)" stroke-width=".796032" stroke-linecap="butt" stroke-miterlimit="10" stroke-linejoin="miter" fill="none" stroke="#000000" d="M63.562-360.043H530.992"/>
<text xml:space="preserve" transform="matrix(1 0 0 1 -63.281595 -51.483339)" font-size="9.950498" font-family="CMR10"><tspan y="798.13027" x="294.78846">5</tspan></text>
</g>
</svg>
