<svg xmlns="http://www.w3.org/2000/svg" xmlns:xlink="http://www.w3.org/1999/xlink" version="1.1" width="468.17655pt" height="344.21784pt" viewBox="0 0 468.17655 344.21784">
<g>
<path transform="matrix(1,0,0,-1,-63.281595,-51.483339)" stroke-width=".796032" stroke-linecap="butt" stroke-miterlimit="10" stroke-linejoin="miter" fill="none" stroke="#000000" d="M63.562-52.535H530.992"/>
<text xml:space="preserve" transform="matrix(1 0 0 1 -63.281595 -51.483339)" font-size="9.950897" font-family="CMBX10" font-weight="bold"><tspan y="61.834768" x="71.02362 79.67095 82.84529 88.567058 94.28882 98.99559 102.16993 106.61798 112.996509 122.529468 131.58478 141.1277">Algorithme2:</tspan></text>
<text xml:space="preserve" transform="matrix(1 0 0 1 -63.281595 -51.483339)" font-size="9.950897" font-family="CMR10"><tspan y="61.834768" x="147.62563 154.9495 159.36769 167.65679 173.17954 175.93593 178.72217 182.64282 186.56348 191.53893 196.51438 204.25617 209.77892 217.53067 220.28707 228.5861 233.56156 237.45236 240.20876 242.96515 245.75139 253.48323 258.19 263.16545 267.58366 275.32548 280.8482 285.26643 292.52064 298.04338 301.93418 306.9096 309.66603 314.11408 321.3484 325.7666 332.95118 338.4739 342.89213 350.15629 355.67903 359.30116 359.57978 363.998 369.52073 374.49617 378.35713 382.77534 388.3279 392.21873">Remplissagedelagrilleavecdesproiesetdespr&#x00b4;edateurs</tspan></text>
<path transform="matrix(1,0,0,-1,-63.281595,-51.483339)" stroke-width=".796032" stroke-linecap="butt" stroke-miterlimit="10" stroke-linejoin="miter" fill="none" stroke="#000000" d="M63.562-66.156H530.992"/>
<text xml:space="preserve" transform="matrix(1 0 0 1 -63.281595 -51.483339)" font-size="9.950897" font-family="CMBX10" font-weight="bold"><tspan y="75.4562" x="78.48654 85.999469 92.04961 96.49766 100.96561 101.20442 106.44855 111.69267 120.021579">Entr&#x00b4;ees:</tspan></text>
<text xml:space="preserve" transform="matrix(1 0 0 1 -63.281595 -51.483339)" font-size="9.950897" font-family="CMR10"><tspan y="75.4562" x="126.519519 131.49497 135.38578 138.14217 140.89856 143.6848 148.103 154.18299 159.99431 164.96976 170.49251 174.38332 178.80152 183.21971 188.49369 192.35463 197.33008 202.30553">grille,pourcentage</tspan></text>
<path transform="matrix(1,0,0,-1,-63.281595,-51.483339)" stroke-width=".397517" stroke-linecap="butt" stroke-miterlimit="10" stroke-linejoin="miter" fill="none" stroke="#000000" d="M207.328-75.258H210.312"/>
<text xml:space="preserve" transform="matrix(1 0 0 1 -63.281595 -51.483339)" font-size="9.950897" font-family="CMR10"><tspan y="75.4562" x="210.31421 215.83696 219.72777 224.70322 227.45961 231.8778 237.9777 243.78903 248.76448 254.28723 258.17805 262.59626 267.01448 272.28843 276.14939 281.12483 286.10029">proie,pourcentage</tspan></text>
<path transform="matrix(1,0,0,-1,-63.281595,-51.483339)" stroke-width=".397517" stroke-linecap="butt" stroke-miterlimit="10" stroke-linejoin="miter" fill="none" stroke="#000000" d="M291.125-75.258H294.109"/>
<text xml:space="preserve" transform="matrix(1 0 0 1 -63.281595 -51.483339)" font-size="9.950897" font-family="CMR10"><tspan y="75.4562" x="294.10929 299.63203 303.25416 303.53279 307.951 313.47373 318.44917 322.31013 326.75819 332.2809 336.17173">pr&#x00b4;edateurs</tspan></text>
<text xml:space="preserve" transform="matrix(1 0 0 1 -63.281595 -51.483339)" font-size="9.950897" font-family="CMBX10" font-weight="bold"><tspan y="87.39668" x="78.48653 84.8352 90.55696 95.26373 99.711788 102.88612 108.13025 116.47906">Sorties:</tspan></text>
<text xml:space="preserve" transform="matrix(1 0 0 1 -63.281595 -51.483339)" font-size="9.950897" font-family="CMR10"><tspan y="87.39668" x="122.977 130.7785 134.66931 137.4257 140.21195 142.96834 150.71013 154.60094 159.01914 167.30823 172.83098 175.61722 178.37361 186.12537 190.82219 195.79764 200.21584 207.96759 213.49034 217.90854 225.15279 230.67554 234.56635 239.5418 242.29819 246.71639 253.98055 258.39875 265.59327 271.116 275.5342 282.78843 288.31117 291.9333 292.2119 296.63014 302.15287 307.1283 310.98927 315.40748 320.96006 324.85087">Grilleremplieavecdesproiesetdespr&#x00b4;edateurs</tspan></text>
<text xml:space="preserve" transform="matrix(1 0 0 1 -63.281595 -51.483339)" font-size="6.965528" font-family="CMBX7" font-weight="bold"><tspan y="99.33715" x="69.003078">1</tspan></text>
<text xml:space="preserve" transform="matrix(1 0 0 1 -63.281595 -51.483339)" font-size="9.950897" font-family="CMBX10" font-weight="bold"><tspan y="99.33715" x="78.48654 84.60634 84.84515 90.08928 96.43795 102.78662">d&#x00b4;ebut</tspan></text>
<path transform="matrix(1,0,0,-1,-63.281595,-51.483339)" stroke-width=".397517" stroke-linecap="butt" stroke-miterlimit="10" stroke-linejoin="miter" fill="none" stroke="#000000" d="M83.66-379.543V-102.918"/>
<text xml:space="preserve" transform="matrix(1 0 0 1 -63.281595 -51.483339)" font-size="6.965528" font-family="CMBX7" font-weight="bold"><tspan y="111.27763" x="69.40059">2</tspan></text>
<text xml:space="preserve" transform="matrix(1 0 0 1 -63.281595 -51.483339)" font-size="9.950897" font-family="CMTI10" font-style="italic"><tspan y="111.27763" x="93.809909 100.81534 101.06411 105.641529 110.21894 115.55262 120.388759 120.64748 125.22489 128.91667 133.49408 141.24584 143.78331 151.92314 157.51555 162.60047 170.73035 175.30776 179.00949 187.14933 192.23424 200.37407 202.91155 205.95652 210.53392 216.12633 220.70374 228.34603 232.92343 239.78955 244.87447 253.0143 257.0842 262.1691 264.70658 269.79148 275.38389 280.9763 285.5537 293.196 298.2809 306.4108 308.94828 317.60554 322.18296 326.37229 329.41728 332.48216 335.01963">R&#x00b4;ecup&#x00b4;ererlenombredelignesetdecolonnesdelagrille</tspan></text>
<text xml:space="preserve" transform="matrix(1 0 0 1 -63.281595 -51.483339)" font-size="9.950897" font-family="CMR10"><tspan y="111.27763" x="340.34336">;</tspan></text>
<text xml:space="preserve" transform="matrix(1 0 0 1 -63.281595 -51.483339)" font-size="6.965528" font-family="CMBX7" font-weight="bold"><tspan y="123.21811" x="69.40059">3</tspan></text>
<text xml:space="preserve" transform="matrix(1 0 0 1 -63.281595 -51.483339)" font-size="9.950897" font-family="CMTI10" font-style="italic"><tspan y="123.21811" x="93.809909 100.9248 106.009708 108.54718 113.124599 118.458278 121.025608 125.60302 133.35477 135.89225 144.03208 149.62448 154.7094 162.83928 167.41669 171.11843 179.25826 182.56195 187.64687 190.95056 196.03548 202.14533 207.23024 215.37007 219.43004 224.51496 228.57492 233.15233 240.79462 245.87953 250.96445 256.55686 264.1892 266.72669 275.38398 279.9614 284.15074 287.1957 290.2606 292.79808">Calculerlenombretotaldecasesdanslagrille</tspan></text>
<text xml:space="preserve" transform="matrix(1 0 0 1 -63.281595 -51.483339)" font-size="9.950897" font-family="CMR10"><tspan y="123.21811" x="298.11186">;</tspan></text>
<text xml:space="preserve" transform="matrix(1 0 0 1 -63.281595 -51.483339)" font-size="6.965528" font-family="CMBX7" font-weight="bold"><tspan y="135.15958" x="69.40059">4</tspan></text>
<text xml:space="preserve" transform="matrix(1 0 0 1 -63.281595 -51.483339)" font-size="9.950897" font-family="CMTI10" font-style="italic"><tspan y="135.15958" x="93.809909 100.9248 106.009708 108.54718 113.124599 118.458278 121.025608 125.60302 133.35477 135.89225 144.03208 149.62448 154.7094 162.83928 167.41669 171.11843 179.25826 182.56195 187.64687 190.95056 196.03548 202.14533 207.23024 215.37007 220.45499 224.13683 229.22174 232.26671 236.84412 244.47646 244.48642 253.13376 258.21867 261.26365 266.34855 271.68223 274.98594 279.56336 287.33503 287.32508 295.97239 300.55973 305.64463 309.83396 313.13768 316.18266 323.9543 329.0392 337.94526 342.5127 347.5976 352.93128 356.62306 360.69297 365.2704 370.8628 374.1665 379.2514 383.82884 391.97865 397.06355 402.14845 407.74085 413.07453 413.3432">Calculerlenombretotaldeproies`aajouter`apartirdupourcentagedonn&#x00b4;e</tspan></text>
<text xml:space="preserve" transform="matrix(1 0 0 1 -63.281595 -51.483339)" font-size="9.950897" font-family="CMR10"><tspan y="135.15958" x="418.64704">;</tspan></text>
<text xml:space="preserve" transform="matrix(1 0 0 1 -63.281595 -51.483339)" font-size="6.965528" font-family="CMBX7" font-weight="bold"><tspan y="147.10007" x="69.40059">5</tspan></text>
<text xml:space="preserve" transform="matrix(1 0 0 1 -63.281595 -51.483339)" font-size="9.950897" font-family="CMTI10" font-style="italic"><tspan y="147.10007" x="93.809909 100.9248 106.009708 108.54718 113.124599 118.458278 121.025608 125.60302 133.35477 135.89225 144.03208 149.62448 154.7094 162.83928 167.41669 171.11843 179.25826 182.56195 187.64687 190.95056 196.03548 202.14533 207.23024 215.37007 220.45499 224.39554 224.64432 229.22173 234.30664 239.39156 242.69525 247.27266 252.60634 256.79566 264.4479 264.4479 273.0952 278.1801 281.2251 286.31 291.64369 294.9474 299.5248 307.29649 307.28654 315.93385 320.52119 325.60609 329.7954 333.09913 336.1441 343.91578 349.00068 357.90675 362.47419 367.55909 372.89277 376.58454 380.65446 385.23188 390.82429 394.128 399.2129 403.7903 411.94013 417.02503 422.10993 427.70234 433.036 433.3047 441.44453 446.02195 452.88807 457.97297 466.10285 468.64033">Calculerlenombretotaldepr&#x00b4;edateurs`aajouter`apartirdupourcentagedonn&#x00b4;eetdela</tspan><tspan y="159.04055" x="98.78585 103.87076 107.562549 112.64745 117.22487 122.30978 126.49911 129.80281 132.84778 137.9327 147.09748 152.18239 160.32222 165.40714 169.09893 174.18384 177.2288 181.80622">proportiondeproies</tspan></text>
<text xml:space="preserve" transform="matrix(1 0 0 1 -63.281595 -51.483339)" font-size="9.950897" font-family="CMR10"><tspan y="159.04055" x="186.69211">;</tspan></text>
<text xml:space="preserve" transform="matrix(1 0 0 1 -63.281595 -51.483339)" font-size="6.965528" font-family="CMBX7" font-weight="bold"><tspan y="170.98102" x="69.40059">6</tspan></text>
<text xml:space="preserve" transform="matrix(1 0 0 1 -63.281595 -51.483339)" font-size="9.950897" font-family="CMTI10" font-style="italic"><tspan y="170.98102" x="93.809909 101.25318 101.5119 106.08932 111.423007 111.681728 116.25914 119.95093 124.52834 132.27014 137.60382 143.19623 151.34601 153.88349 156.92845 161.01827 164.32196 172.46179 177.5467 185.68654 188.99024 194.07515 199.40883 202.71253 207.28993 214.92227 217.45975 222.03716 229.6695 234.24692 239.33184 243.3918 246.43677 249.74047 252.81528 257.90019 263.49259 271.12495 275.70234 280.78724 284.8472 288.90718 291.982 296.55943 299.0969 303.67433 311.2967 316.3816 321.4665 327.0589 334.7012 337.23869 345.886 350.4634 354.65275 357.69773 360.7626 363.30009">G&#x00b4;en&#x00b4;ererunelistedetouteslespositionspossiblesdanslagrille</tspan></text>
<text xml:space="preserve" transform="matrix(1 0 0 1 -63.281595 -51.483339)" font-size="9.950897" font-family="CMR10"><tspan y="170.98102" x="368.6238">;</tspan></text>
<text xml:space="preserve" transform="matrix(1 0 0 1 -63.281595 -51.483339)" font-size="6.965528" font-family="CMBX7" font-weight="bold"><tspan y="182.9215" x="69.40059">7</tspan></text>
<text xml:space="preserve" transform="matrix(1 0 0 1 -63.281595 -51.483339)" font-size="9.950897" font-family="CMTI10" font-style="italic"><tspan y="182.9215" x="93.809909 102.477138 102.735858 107.31327 109.850749 114.93565 120.52806 125.10548 129.68289 137.4446 142.52951 144.8182 145.06699 149.6444 154.72931 158.033 163.11792 166.16289 169.86463 174.44203 182.57192 187.14933 192.74173 199.6178 203.68772 208.26512 211.56882 214.87252 223.0223 225.55977 228.60474 232.6647 235.9684 244.12813 249.21305 257.34294 261.92033 267.00523 271.0652 274.11018 277.41389 280.4887 285.5736 291.16603">M&#x00b4;elangeral&#x00b4;eatoirementcettelistedepositions</tspan></text>
<text xml:space="preserve" transform="matrix(1 0 0 1 -63.281595 -51.483339)" font-size="9.950897" font-family="CMR10"><tspan y="182.9215" x="296.04197">;</tspan></text>
<text xml:space="preserve" transform="matrix(1 0 0 1 -63.281595 -51.483339)" font-size="6.965528" font-family="CMBX7" font-weight="bold"><tspan y="194.86197" x="69.40059">8</tspan></text>
<text xml:space="preserve" transform="matrix(1 0 0 1 -63.281595 -51.483339)" font-size="9.950897" font-family="CMBX10" font-weight="bold"><tspan y="194.86197" x="93.809909 100.48695 106.20872 112.55739">pour</tspan></text>
<text xml:space="preserve" transform="matrix(1 0 0 1 -63.281595 -51.483339)" font-size="9.950897" font-family="CMTI10" font-style="italic"><tspan y="194.86197" x="120.59771 125.175128 130.26004 135.34496 139.92237 145.25605 153.39588 158.48079 162.17258 167.25749 170.30246 178.44229 178.44229 187.08963 192.17455 195.21952 200.30443 205.6381 208.9418 213.51921">chaqueproie`aajouter</tspan></text>
<text xml:space="preserve" transform="matrix(1 0 0 1 -63.281595 -51.483339)" font-size="9.950897" font-family="CMBX10" font-weight="bold"><tspan y="194.86197" x="222.11679 225.60956 231.1721 234.34644 239.0532">faire</tspan></text>
<path transform="matrix(1,0,0,-1,-63.281595,-51.483339)" stroke-width=".397517" stroke-linecap="butt" stroke-miterlimit="10" stroke-linejoin="miter" fill="none" stroke="#000000" d="M98.984-270.09V-198.445"/>
<text xml:space="preserve" transform="matrix(1 0 0 1 -63.281595 -51.483339)" font-size="6.965528" font-family="CMBX7" font-weight="bold"><tspan y="206.80345" x="69.79911">9</tspan></text>
<text xml:space="preserve" transform="matrix(1 0 0 1 -63.281595 -51.483339)" font-size="9.950897" font-family="CMTI10" font-style="italic"><tspan y="206.80345" x="109.13427 115.88098 120.48825 123.79195 127.49368 132.5786 135.62357 139.3253 147.45519 152.78887 158.38127 166.53105 171.10848 176.19339 180.25336 183.29833 186.60202 189.64699 194.7319 203.91658 209.0015 217.14133 219.6788 228.3162 230.85367 233.89864 237.9586 241.29215">Extraireunepositiondelaliste</tspan></text>
<text xml:space="preserve" transform="matrix(1 0 0 1 -63.281595 -51.483339)" font-size="9.950897" font-family="CMR10"><tspan y="206.80345" x="246.61588">;</tspan></text>
<text xml:space="preserve" transform="matrix(1 0 0 1 -63.281595 -51.483339)" font-size="6.965528" font-family="CMBX7" font-weight="bold"><tspan y="218.74393" x="65.29059 69.79729">10</tspan></text>
<text xml:space="preserve" transform="matrix(1 0 0 1 -63.281595 -51.483339)" font-size="9.950897" font-family="CMTI10" font-style="italic"><tspan y="218.74393" x="109.13427 116.577548 116.836269 121.41368 126.74737 127.00609 131.5835 135.27529 139.85269 147.5945 152.92818 162.09296 162.09296 167.17787 171.75528 179.89511 184.98003 187.26873 187.52745 192.10486 197.18978 200.49347 205.57839 208.62335 212.32509 220.45497 225.0324 230.11731 235.45099 243.22264 245.76012 254.40746 259.49238 263.18415 268.26905 271.31404">G&#x00b4;en&#x00b4;ererun&#x02c6;ageal&#x00b4;eatoirepourlaproie</tspan></text>
<text xml:space="preserve" transform="matrix(1 0 0 1 -63.281595 -51.483339)" font-size="9.950897" font-family="CMR10"><tspan y="218.74393" x="276.63777">;</tspan></text>
<text xml:space="preserve" transform="matrix(1 0 0 1 -63.281595 -51.483339)" font-size="6.965528" font-family="CMBX7" font-weight="bold"><tspan y="230.6844" x="65.29059 69.79729">11</tspan></text>
<text xml:space="preserve" transform="matrix(1 0 0 1 -63.281595 -51.483339)" font-size="9.950897" font-family="CMTI10" font-style="italic"><tspan y="230.6844" x="109.13427 116.577548 116.836269 121.41368 126.74737 127.00609 131.5835 135.27529 139.85269 147.5945 152.67942 157.25682 164.88916 167.93413 173.01905 178.35272 182.5719 190.19429 195.2792 203.42899 208.0064 212.5838 216.64377 219.94747 225.03238 228.33608 231.38105 236.46596 245.63074 250.71566 253.01432 253.26308 257.84049 262.92539 266.2291 271.314 274.35899 278.06074 282.63816 290.26054 294.84788 299.93278 305.26646 313.02815 315.5656 324.21293 329.29783 332.9896 338.0745 341.11949 349.2593 353.31929 357.37925 364.0165 366.554 369.59898 369.59898 374.68388 379.2613 387.40113 389.9386 398.08839 402.66578 407.2432 411.43254 419.5624 424.13984 427.44355">G&#x00b4;en&#x00b4;ererdesjoursdegestational&#x00b4;eatoirespourlaproie(sil&#x2019;&#x02c6;agelepermet)</tspan></text>
<text xml:space="preserve" transform="matrix(1 0 0 1 -63.281595 -51.483339)" font-size="9.950897" font-family="CMR10"><tspan y="230.6844" x="431.88166">;</tspan></text>
<text xml:space="preserve" transform="matrix(1 0 0 1 -63.281595 -51.483339)" font-size="6.965528" font-family="CMBX7" font-weight="bold"><tspan y="242.62488" x="65.29059 69.79729">12</tspan></text>
<text xml:space="preserve" transform="matrix(1 0 0 1 -63.281595 -51.483339)" font-size="9.950897" font-family="CMTI10" font-style="italic"><tspan y="242.62488" x="109.13427 116.24916 120.18972 120.44844 125.025859 129.60327 137.36498 142.69866 148.29106 156.4309 161.51581 165.2076 170.29251 173.33748 181.48726 186.57218 191.14958 195.2195 203.35933 207.4193 211.9967 219.62905 223.69896 228.78388 232.46572 237.55063 242.12804 245.18296 245.44168 250.01909 254.20842 257.2534 261.31336 264.61708 267.6919 272.26933 277.603 282.18043">Cr&#x00b4;eeruneproieaveccescaract&#x00b4;eristiques</tspan></text>
<text xml:space="preserve" transform="matrix(1 0 0 1 -63.281595 -51.483339)" font-size="9.950897" font-family="CMR10"><tspan y="242.62488" x="287.0663">;</tspan></text>
<text xml:space="preserve" transform="matrix(1 0 0 1 -63.281595 -51.483339)" font-size="6.965528" font-family="CMBX7" font-weight="bold"><tspan y="254.56536" x="65.29059 69.79729">13</tspan></text>
<text xml:space="preserve" transform="matrix(1 0 0 1 -63.281595 -51.483339)" font-size="9.950897" font-family="CMTI10" font-style="italic"><tspan y="254.56536" x="109.13427 115.88098 118.41846 123.503368 127.58324 132.16065 139.92235 142.45983 151.09722 156.18213 159.87392 164.95883 168.0038 176.15358 181.2385 186.32341 191.91582 199.54816 202.08563 210.73297 215.31038 219.49971 222.54468 225.60956 228.14704 236.29682 236.29682 244.94416 247.48163 256.12898 260.7163 265.8012 269.86119 272.90617 276.20988 279.25486 284.33976 293.50453 298.08195 302.6892 305.99293 309.69468 314.77958 317.82456 321.12828">Placerlaproiedanslagrille`alapositionextraite</tspan></text>
<text xml:space="preserve" transform="matrix(1 0 0 1 -63.281595 -51.483339)" font-size="9.950897" font-family="CMR10"><tspan y="254.56536" x="326.46195">;</tspan></text>
<text xml:space="preserve" transform="matrix(1 0 0 1 -63.281595 -51.483339)" font-size="6.965528" font-family="CMBX7" font-weight="bold"><tspan y="266.50584" x="65.29059 69.79729">14</tspan></text>
<text xml:space="preserve" transform="matrix(1 0 0 1 -63.281595 -51.483339)" font-size="9.950897" font-family="CMTI10" font-style="italic"><tspan y="266.50584" x="109.13427 112.96536 118.55777 123.135189 127.08569 127.34442 131.92183 140.05171 144.62912 150.22153 153.52523 158.10263 165.86434 168.40181 176.54164 180.61156 185.69647 193.82636 198.91127 202.21497 206.79238 212.12606 219.90766 224.99257 233.1324 238.21732 241.9091 246.99402 250.03899 254.6164 262.23878 267.32368 275.4635 278.00099 286.65827 291.2357 295.42503 298.47 301.53489 304.07237">Incr&#x00b4;ementerlecompteurdeproiesdelagrille</tspan></text>
<text xml:space="preserve" transform="matrix(1 0 0 1 -63.281595 -51.483339)" font-size="9.950897" font-family="CMR10"><tspan y="266.50584" x="309.3961">;</tspan></text>
<text xml:space="preserve" transform="matrix(1 0 0 1 -63.281595 -51.483339)" font-size="6.965528" font-family="CMBX7" font-weight="bold"><tspan y="279.4421" x="64.893077 69.39977">15</tspan></text>
<text xml:space="preserve" transform="matrix(1 0 0 1 -63.281595 -51.483339)" font-size="9.950897" font-family="CMBX10" font-weight="bold"><tspan y="279.4421" x="93.809909">&#xfb01;</tspan></text>
<text xml:space="preserve" transform="matrix(1 0 0 1 -63.281595 -51.483339)" font-size="9.950897" font-family="CMBX10" font-weight="bold"><tspan y="279.4421" x="100.15858">n</tspan></text>
<text xml:space="preserve" transform="matrix(1 0 0 1 -63.281595 -51.483339)" font-size="6.965528" font-family="CMBX7" font-weight="bold"><tspan y="291.38258" x="64.893077 69.39977">16</tspan></text>
<text xml:space="preserve" transform="matrix(1 0 0 1 -63.281595 -51.483339)" font-size="9.950897" font-family="CMBX10" font-weight="bold"><tspan y="291.38258" x="93.809909 100.48695 106.20872 112.55739">pour</tspan></text>
<text xml:space="preserve" transform="matrix(1 0 0 1 -63.281595 -51.483339)" font-size="9.950897" font-family="CMTI10" font-style="italic"><tspan y="291.38258" x="120.59771 125.175128 130.26004 135.34496 139.92237 145.25605 153.39588 158.48079 162.42134 162.68007 167.25748 172.34239 177.4273 180.731 185.30841 190.64209 198.4038 198.4038 207.05113 212.13605 215.18102 220.26593 225.59961 228.9033 233.48072">chaquepr&#x00b4;edateur`aajouter</tspan></text>
<text xml:space="preserve" transform="matrix(1 0 0 1 -63.281595 -51.483339)" font-size="9.950897" font-family="CMBX10" font-weight="bold"><tspan y="291.38258" x="242.0783 245.57106 251.1336 254.30794 259.0147">faire</tspan></text>
<path transform="matrix(1,0,0,-1,-63.281595,-51.483339)" stroke-width=".397517" stroke-linecap="butt" stroke-miterlimit="10" stroke-linejoin="miter" fill="none" stroke="#000000" d="M98.984-366.609V-294.965"/>
<text xml:space="preserve" transform="matrix(1 0 0 1 -63.281595 -51.483339)" font-size="6.965528" font-family="CMBX7" font-weight="bold"><tspan y="303.32307" x="65.29059 69.79729">17</tspan></text>
<text xml:space="preserve" transform="matrix(1 0 0 1 -63.281595 -51.483339)" font-size="9.950897" font-family="CMTI10" font-style="italic"><tspan y="303.32307" x="109.13427 115.88098 120.48825 123.79195 127.49368 132.5786 135.62357 139.3253 147.45519 152.78887 158.38127 166.53105 171.10848 176.19339 180.25336 183.29833 186.60202 189.64699 194.7319 203.91658 209.0015 217.14133 219.6788 228.3162 230.85367 233.89864 237.9586 241.29215">Extraireunepositiondelaliste</tspan></text>
<text xml:space="preserve" transform="matrix(1 0 0 1 -63.281595 -51.483339)" font-size="9.950897" font-family="CMR10"><tspan y="303.32307" x="246.61588">;</tspan></text>
<text xml:space="preserve" transform="matrix(1 0 0 1 -63.281595 -51.483339)" font-size="6.965528" font-family="CMBX7" font-weight="bold"><tspan y="315.26353" x="65.29059 69.79729">18</tspan></text>
<text xml:space="preserve" transform="matrix(1 0 0 1 -63.281595 -51.483339)" font-size="9.950897" font-family="CMTI10" font-style="italic"><tspan y="315.26353" x="109.13427 116.577548 116.836269 121.41368 126.74737 127.00609 131.5835 135.27529 139.85269 147.5945 152.92818 162.09296 162.09296 167.17787 171.75528 179.89511 184.98003 187.26873 187.52745 192.10486 197.18978 200.49347 205.57839 208.62335 212.32509 220.45497 225.0324 230.11731 235.45099 243.22264 245.76012 253.89995 258.98487 262.9254 263.18415 267.76158 272.84648 277.93138 281.23509 285.8125 291.14619">G&#x00b4;en&#x00b4;ererun&#x02c6;ageal&#x00b4;eatoirepourlepr&#x00b4;edateur</tspan></text>
<text xml:space="preserve" transform="matrix(1 0 0 1 -63.281595 -51.483339)" font-size="9.950897" font-family="CMR10"><tspan y="315.26353" x="296.41023">;</tspan></text>
<text xml:space="preserve" transform="matrix(1 0 0 1 -63.281595 -51.483339)" font-size="6.965528" font-family="CMBX7" font-weight="bold"><tspan y="327.204" x="65.29059 69.79729">19</tspan></text>
<text xml:space="preserve" transform="matrix(1 0 0 1 -63.281595 -51.483339)" font-size="9.950897" font-family="CMTI10" font-style="italic"><tspan y="327.204" x="109.13427 116.577548 116.836269 121.41368 126.74737 127.00609 131.5835 135.27529 139.85269 147.5945 152.67942 157.25682 164.88916 167.93413 173.01905 178.35272 182.5719 190.19429 195.2792 203.42899 208.0064 212.5838 216.64377 219.94747 225.03238 228.33608 231.38105 236.46596 245.63074 250.71566 253.01432 253.26308 257.84049 262.92539 266.2291 271.314 274.35899 278.06074 282.63816 290.26054 294.84788 299.93278 305.26646 313.02815 315.5656 323.70545 328.79035 332.7309 332.98963 337.56706 342.65196 347.73686 351.04057 355.61799 360.95167 368.71339 372.77336 376.8333 383.47059 386.00807 389.05305 389.05305 394.13795 398.71537 406.8552 409.39268 417.54249 422.11988 426.6973 430.88664 439.0165 443.59394 446.89765">G&#x00b4;en&#x00b4;ererdesjoursdegestational&#x00b4;eatoirespourlepr&#x00b4;edateur(sil&#x2019;&#x02c6;agelepermet)</tspan></text>
<text xml:space="preserve" transform="matrix(1 0 0 1 -63.281595 -51.483339)" font-size="9.950897" font-family="CMR10"><tspan y="327.204" x="451.33576">;</tspan></text>
<text xml:space="preserve" transform="matrix(1 0 0 1 -63.281595 -51.483339)" font-size="6.965528" font-family="CMBX7" font-weight="bold"><tspan y="339.14549" x="65.29059 69.79729">20</tspan></text>
<text xml:space="preserve" transform="matrix(1 0 0 1 -63.281595 -51.483339)" font-size="9.950897" font-family="CMTI10" font-style="italic"><tspan y="339.14549" x="109.13427 116.24916 120.18972 120.44844 125.025859 129.60327 137.36498 142.69866 151.85349 156.9384 160.88892 161.1377 165.7151 170.80002 175.88494 179.18863 183.76604 189.09972 196.87137 201.95629 206.53369 210.6036 218.74344 222.8034 227.38082 235.01316 239.08307 244.16799 247.84983 252.93474 257.51216 260.56709 260.8258 265.40324 269.59257 272.63755 276.6975 280.00123 283.07606 287.65348 292.98716 297.56459">Cr&#x00b4;eerunpr&#x00b4;edateuraveccescaract&#x00b4;eristiques</tspan></text>
<text xml:space="preserve" transform="matrix(1 0 0 1 -63.281595 -51.483339)" font-size="9.950897" font-family="CMR10"><tspan y="339.14549" x="302.45048">;</tspan></text>
<text xml:space="preserve" transform="matrix(1 0 0 1 -63.281595 -51.483339)" font-size="6.965528" font-family="CMBX7" font-weight="bold"><tspan y="351.08598" x="65.29059 69.79729">21</tspan></text>
<text xml:space="preserve" transform="matrix(1 0 0 1 -63.281595 -51.483339)" font-size="9.950897" font-family="CMTI10" font-style="italic"><tspan y="351.08598" x="109.13427 115.88098 118.41846 123.503368 127.58324 132.16065 139.92235 142.45983 150.5897 155.67462 159.62514 159.87392 164.45133 169.53624 174.62116 177.92485 182.50226 187.83594 195.60759 200.6925 205.77742 211.36983 219.00217 221.53964 230.18698 234.76439 238.95372 241.99869 245.06357 247.60105 255.75083 255.75081 264.39814 266.9356 275.58293 280.17027 285.25517 289.31513 292.3601 295.66383 298.7088 303.7937 312.96846 317.54588 322.15315 325.45686 329.14863 334.23353 337.2785 340.5822">Placerlepr&#x00b4;edateurdanslagrille`alapositionextraite</tspan></text>
<text xml:space="preserve" transform="matrix(1 0 0 1 -63.281595 -51.483339)" font-size="9.950897" font-family="CMR10"><tspan y="351.08598" x="345.9159">;</tspan></text>
<text xml:space="preserve" transform="matrix(1 0 0 1 -63.281595 -51.483339)" font-size="6.965528" font-family="CMBX7" font-weight="bold"><tspan y="363.02644" x="65.29059 69.79729">22</tspan></text>
<text xml:space="preserve" transform="matrix(1 0 0 1 -63.281595 -51.483339)" font-size="9.950897" font-family="CMTI10" font-style="italic"><tspan y="363.02644" x="109.13427 112.96536 118.55777 123.135189 127.08569 127.34442 131.92183 140.05171 144.62912 150.22153 153.52523 158.10263 165.86434 168.40181 176.54164 180.61156 185.69647 193.82636 198.91127 202.21497 206.79238 212.12606 219.90766 224.99257 233.1324 238.21732 242.15787 242.4166 246.994 252.07892 257.16383 260.46754 265.04496 270.37864 274.56797 282.20033 287.28523 295.42506 297.96253 306.6198 311.19725 315.38658 318.43156 321.49644 324.0339">Incr&#x00b4;ementerlecompteurdepr&#x00b4;edateursdelagrille</tspan></text>
<text xml:space="preserve" transform="matrix(1 0 0 1 -63.281595 -51.483339)" font-size="9.950897" font-family="CMR10"><tspan y="363.02644" x="329.35765">;</tspan></text>
<text xml:space="preserve" transform="matrix(1 0 0 1 -63.281595 -51.483339)" font-size="6.965528" font-family="CMBX7" font-weight="bold"><tspan y="375.9617" x="64.893077 69.39977">23</tspan></text>
<text xml:space="preserve" transform="matrix(1 0 0 1 -63.281595 -51.483339)" font-size="9.950897" font-family="CMBX10" font-weight="bold"><tspan y="375.9617" x="93.809909">&#xfb01;</tspan></text>
<text xml:space="preserve" transform="matrix(1 0 0 1 -63.281595 -51.483339)" font-size="9.950897" font-family="CMBX10" font-weight="bold"><tspan y="375.9617" x="100.15858">n</tspan></text>
<text xml:space="preserve" transform="matrix(1 0 0 1 -63.281595 -51.483339)" font-size="6.965528" font-family="CMBX7" font-weight="bold"><tspan y="388.89799" x="64.49456 69.00126">24</tspan></text>
<text xml:space="preserve" transform="matrix(1 0 0 1 -63.281595 -51.483339)" font-size="9.950897" font-family="CMBX10" font-weight="bold"><tspan y="388.89799" x="78.48654">&#xfb01;</tspan></text>
<text xml:space="preserve" transform="matrix(1 0 0 1 -63.281595 -51.483339)" font-size="9.950897" font-family="CMBX10" font-weight="bold"><tspan y="388.89799" x="84.83521">n</tspan></text>
<path transform="matrix(1,0,0,-1,-63.281595,-51.483339)" stroke-width=".796032" stroke-linecap="butt" stroke-miterlimit="10" stroke-linejoin="miter" fill="none" stroke="#000000" d="M63.562-394.867H530.992"/>
</g>
</svg>
