<svg xmlns="http://www.w3.org/2000/svg" xmlns:xlink="http://www.w3.org/1999/xlink" version="1.1" width="612.0768pt" height="309.97956pt" viewBox="0 0 612.0768 309.97956">
<g>
<path transform="matrix(1,0,0,-1,-114.527378,-191.13184)" stroke-width=".7967" stroke-linecap="butt" stroke-miterlimit="10" stroke-linejoin="miter" fill="none" stroke="#000000" d="M115.004-191.535H726.773"/>
<text xml:space="preserve" transform="matrix(1 0 0 1 -114.527378 -191.13184)" font-size="9.958844" font-family="CMBX10" font-weight="bold"><tspan y="200.84125" x="122.47456 131.1288 134.30567 140.032 145.75833 150.46887 153.64574 158.09734 164.48096 174.02153 183.08408 192.63462">Algorithme1:</tspan></text>
<text xml:space="preserve" transform="matrix(1 0 0 1 -114.527378 -191.13184)" font-size="9.958844" font-family="CMR10"><tspan y="200.84125" x="199.13773 206.32802 211.85518 216.8346 219.5932 228.17772 233.70488 236.46349 241.99065 250.86399 255.85338 260.8328 263.5914 267.5152 270.2738 279.13719 284.1166 289.64378 293.5078 298.48725 304.0144 311.2545 316.78166 319.54026 325.0674 330.62446 338.36247 344.17845 349.15788 353.08168 355.84028 359.7043 362.4928 367.47224 376.31568 381.84284 386.82228 392.34944 397.62763 397.8965 402.31825 410.07618 414.77677 419.7562 424.17793 431.9259 437.45307 446.31645 450.73817 455.7176 460.97587 464.8399 469.26164 474.5199 483.38328 487.30708 492.56535 492.8442 497.26594 501.68766">Choixd&#x2019;unvoisinautourd&#x2019;unepositiondonn&#x00b4;eeavecuncontenusp&#x00b4;eci</tspan></text>
<text xml:space="preserve" transform="matrix(1 0 0 1 -114.527378 -191.13184)" font-size="9.958844" font-family="CMR10"><tspan y="200.84125" x="504.44627">&#xfb01;</tspan></text>
<text xml:space="preserve" transform="matrix(1 0 0 1 -114.527378 -191.13184)" font-size="9.958844" font-family="CMR10"><tspan y="200.84125" x="509.71449 509.99336">&#x00b4;e</tspan></text>
<path transform="matrix(1,0,0,-1,-114.527378,-191.13184)" stroke-width=".7967" stroke-linecap="butt" stroke-miterlimit="10" stroke-linejoin="miter" fill="none" stroke="#000000" d="M115.004-205.168H726.773"/>
<text xml:space="preserve" transform="matrix(1 0 0 1 -114.527378 -191.13184)" font-size="9.958844" font-family="CMBX10" font-weight="bold"><tspan y="214.47412" x="129.94374 137.46266 143.51764 147.96924 152.44077 152.67978 157.92809 163.17639 171.51195">Entr&#x00b4;ees:</tspan></text>
<text xml:space="preserve" transform="matrix(1 0 0 1 -114.527378 -191.13184)" font-size="9.958844" font-family="CMR10"><tspan y="214.47412" x="178.01506 182.99448 186.88838 189.64699 192.4056 195.19408 199.6158 205.70066 208.45926 211.21787 216.19728 221.75432 226.17604 232.27086 236.69258 241.672 244.4306 249.41002 254.93718 260.46434 264.91593 270.9908 275.41255 280.39198 285.65025 289.51429 293.936 299.20423">grille,ligne,colonne,contenu</tspan></text>
<text xml:space="preserve" transform="matrix(1 0 0 1 -114.527378 -191.13184)" font-size="9.958844" font-family="CMBX10" font-weight="bold"><tspan y="226.42462" x="129.94374 136.29749 142.02382 146.73436 151.18596 154.36283 159.61113 167.9666">Sorties:</tspan></text>
<text xml:space="preserve" transform="matrix(1 0 0 1 -114.527378 -191.13184)" font-size="9.958844" font-family="CMR10"><tspan y="226.42462" x="174.46971 181.93885 187.466 195.21398 201.02994 206.00936 209.93314 212.69174 216.55577 219.31438 224.2938 233.16713 237.03116 239.78977 242.57825 247.55767 253.08483 257.50657 263.60139 268.0231 273.00254 275.76115 280.74058 286.26774 291.82478 296.2465 303.4368 308.96397 311.72257 317.24974 326.12306 331.09254 336.07197 338.83058 342.75437 345.51298 354.39628 359.09687 364.0763 368.49803 376.25596 381.7831 390.63655 395.05827 400.0377 405.29597 409.16 413.58174 418.84996 427.70338 433.23054 438.20997 443.73713 449.00535 449.27424 457.03218 462.0116 470.85505 474.7191 482.18824 487.16767 492.69483 497.11656 503.2213 510.69047 515.66989 521.197 525.6188 532.829 536.75277 539.51138 542.26998 548.37478 553.9019 556.6605 565.24508 569.6668 578.5302 586.8259 592.3531 597.3325">Uneposition(ligne,colonne)d&#x2019;unvoisinavecuncontenudonn&#x00b4;eou(None,None)s&#x2019;iln&#x2019;yenapas</tspan></text>
<text xml:space="preserve" transform="matrix(1 0 0 1 -114.527378 -191.13184)" font-size="6.971171" font-family="CMBX7" font-weight="bold"><tspan y="238.3751" x="120.452327">1</tspan></text>
<text xml:space="preserve" transform="matrix(1 0 0 1 -114.527378 -191.13184)" font-size="9.958844" font-family="CMBX10" font-weight="bold"><tspan y="238.3751" x="129.94374 136.06844 136.30745 141.55576 147.9095 154.26325">d&#x00b4;ebut</tspan></text>
<path transform="matrix(1,0,0,-1,-114.527378,-191.13184)" stroke-width=".39785" stroke-linecap="butt" stroke-miterlimit="10" stroke-linejoin="miter" fill="none" stroke="#000000" d="M135.121-484.957V-241.961"/>
<text xml:space="preserve" transform="matrix(1 0 0 1 -114.527378 -191.13184)" font-size="6.971171" font-family="CMBX7" font-weight="bold"><tspan y="250.32559" x="120.850177">2</tspan></text>
<text xml:space="preserve" transform="matrix(1 0 0 1 -114.527378 -191.13184)" font-size="9.958844" font-family="CMTI10" font-style="italic"><tspan y="250.32559" x="145.27997 149.11412 154.711 157.7584 161.06475 164.11215 169.231 171.77051 174.81792 178.88112 183.46219 191.24005 193.77956 198.36063 205.99906 210.07222 214.65329 219.74227 223.437 228.52597 233.61495 239.21183 244.54978 244.81867 249.39974 253.9808 261.60929 264.1488 267.1962">Initialiserlescoordonn&#x00b4;eeslig</tspan></text>
<path transform="matrix(1,0,0,-1,-114.527378,-191.13184)" stroke-width=".39785" stroke-linecap="butt" stroke-miterlimit="10" stroke-linejoin="miter" fill="none" stroke="#000000" d="M272.402-250.125H275.453"/>
<text xml:space="preserve" transform="matrix(1 0 0 1 -114.527378 -191.13184)" font-size="9.958844" font-family="CMTI10" font-style="italic"><tspan y="250.32559" x="275.45487 280.03593 285.12489 288.17228 292.23548 295.28288 304.47489 309.05595 315.92756 319.99076 325.0797">voisinetcol</tspan></text>
<path transform="matrix(1,0,0,-1,-114.527378,-191.13184)" stroke-width=".39785" stroke-linecap="butt" stroke-miterlimit="10" stroke-linejoin="miter" fill="none" stroke="#000000" d="M328.238-250.125H331.293"/>
<text xml:space="preserve" transform="matrix(1 0 0 1 -114.527378 -191.13184)" font-size="9.958844" font-family="CMTI10" font-style="italic"><tspan y="250.32559" x="331.29283 335.87388 340.96284 344.01023 348.07344 351.12083 360.31285 360.31285 368.9571 376.3565 381.44548 387.04234">voisin`aNone</tspan></text>
<text xml:space="preserve" transform="matrix(1 0 0 1 -114.527378 -191.13184)" font-size="9.958844" font-family="CMR10"><tspan y="250.32559" x="392.38026">;</tspan></text>
<text xml:space="preserve" transform="matrix(1 0 0 1 -114.527378 -191.13184)" font-size="6.971171" font-family="CMBX7" font-weight="bold"><tspan y="262.2771" x="120.850177">3</tspan></text>
<text xml:space="preserve" transform="matrix(1 0 0 1 -114.527378 -191.13184)" font-size="9.958844" font-family="CMTI10" font-style="italic"><tspan y="262.2771" x="145.27997 152.40055 156.34424 156.60318 161.18425 165.76532 173.53322 178.87116 184.46804 192.61437 195.15387 198.20128 202.26448 205.57082 213.73708 218.31815 221.36556 226.45453 234.61083 237.91716 243.00614 247.08927 251.16243 256.2514 260.3146 264.89567">Cr&#x00b4;eerunelistevidetabcases</tspan></text>
<text xml:space="preserve" transform="matrix(1 0 0 1 -114.527378 -191.13184)" font-size="9.958844" font-family="CMR10"><tspan y="262.2771" x="269.78547">;</tspan></text>
<text xml:space="preserve" transform="matrix(1 0 0 1 -114.527378 -191.13184)" font-size="6.971171" font-family="CMBX7" font-weight="bold"><tspan y="274.22758" x="120.850177">4</tspan></text>
<text xml:space="preserve" transform="matrix(1 0 0 1 -114.527378 -191.13184)" font-size="9.958844" font-family="CMTI10" font-style="italic"><tspan y="274.22758" x="145.27997 152.90845 157.48952 160.79586 165.37693 170.9738 174.02121 181.80902 184.34853 188.9296 196.55806 201.64704 204.69445 212.83083 217.4119 223.00878 227.10186 230.14926 235.23824 240.83512 248.4835 253.57248 261.7188 264.25834 272.91258 277.49363 281.6863 284.7337 287.80107 290.34059 298.4869 302.5501 308.14698">Obtenirlesdimensionsdelagrille(nb</tspan></text>
<path transform="matrix(1,0,0,-1,-114.527378,-191.13184)" stroke-width=".39785" stroke-linecap="butt" stroke-miterlimit="10" stroke-linejoin="miter" fill="none" stroke="#000000" d="M313.355-274.027H316.406"/>
<text xml:space="preserve" transform="matrix(1 0 0 1 -114.527378 -191.13184)" font-size="9.958844" font-family="CMTI10" font-style="italic"><tspan y="274.22758" x="316.40843 318.94795 321.99534 330.1516 334.73268 341.5943 347.19117">ligetnb</tspan></text>
<path transform="matrix(1,0,0,-1,-114.527378,-191.13184)" stroke-width=".39785" stroke-linecap="butt" stroke-miterlimit="10" stroke-linejoin="miter" fill="none" stroke="#000000" d="M352.395-274.027H355.449"/>
<text xml:space="preserve" transform="matrix(1 0 0 1 -114.527378 -191.13184)" font-size="9.958844" font-family="CMTI10" font-style="italic"><tspan y="274.22758" x="355.4487 359.52186 364.6108 367.15034">col)</tspan></text>
<text xml:space="preserve" transform="matrix(1 0 0 1 -114.527378 -191.13184)" font-size="9.958844" font-family="CMR10"><tspan y="274.22758" x="371.59199">;</tspan></text>
<text xml:space="preserve" transform="matrix(1 0 0 1 -114.527378 -191.13184)" font-size="6.971171" font-family="CMBX7" font-weight="bold"><tspan y="286.17808" x="120.850177">5</tspan></text>
<text xml:space="preserve" transform="matrix(1 0 0 1 -114.527378 -191.13184)" font-size="9.958844" font-family="CMBX10" font-weight="bold"><tspan y="286.17808" x="145.27997 151.96236 157.68869 164.04244">pour</tspan></text>
<text xml:space="preserve" transform="matrix(1 0 0 1 -114.527378 -191.13184)" font-size="9.958844" font-family="CMTI10" font-style="italic"><tspan y="286.17808" x="172.08919 178.70186 183.79084 191.93717 194.47667 197.52408 202.10515 207.70203 215.85832 222.98886 231.6431 231.6431 240.28739 242.82689 245.8743 250.45537 256.05226 264.21849 275.41224">ideligne-1`aligne+1</tspan></text>
<text xml:space="preserve" transform="matrix(1 0 0 1 -114.527378 -191.13184)" font-size="9.958844" font-family="CMBX10" font-weight="bold"><tspan y="286.17808" x="285.17189 288.66743 294.2344 297.4113 302.12184">faire</tspan></text>
<path transform="matrix(1,0,0,-1,-114.527378,-191.13184)" stroke-width=".39785" stroke-linecap="butt" stroke-miterlimit="10" stroke-linejoin="miter" fill="none" stroke="#000000" d="M150.461-399.312V-289.766"/>
<text xml:space="preserve" transform="matrix(1 0 0 1 -114.527378 -191.13184)" font-size="6.971171" font-family="CMBX7" font-weight="bold"><tspan y="298.12858" x="121.24902">6</tspan></text>
<text xml:space="preserve" transform="matrix(1 0 0 1 -114.527378 -191.13184)" font-size="9.958844" font-family="CMBX10" font-weight="bold"><tspan y="298.12858" x="160.61717 167.29956 173.0259 179.37964">pour</tspan></text>
<text xml:space="preserve" transform="matrix(1 0 0 1 -114.527378 -191.13184)" font-size="9.958844" font-family="CMTI10" font-style="italic"><tspan y="298.12858" x="187.42639 194.03907 199.12804 207.27437 211.33759 216.42656 218.96607 224.05504 229.65192 235.2488 243.41506 250.53563 259.19984 259.19984 267.8441 271.91725 277.0062 279.54573 284.63468 290.23155 295.8284 303.98469 315.1884">jdecolonne-1`acolonne+1</tspan></text>
<text xml:space="preserve" transform="matrix(1 0 0 1 -114.527378 -191.13184)" font-size="9.958844" font-family="CMBX10" font-weight="bold"><tspan y="298.12858" x="324.94804 328.44358 334.01057 337.18745 341.89799">faire</tspan></text>
<path transform="matrix(1,0,0,-1,-114.527378,-191.13184)" stroke-width=".39785" stroke-linecap="butt" stroke-miterlimit="10" stroke-linejoin="miter" fill="none" stroke="#000000" d="M165.797-386.363V-301.715"/>
<text xml:space="preserve" transform="matrix(1 0 0 1 -114.527378 -191.13184)" font-size="6.971171" font-family="CMBX7" font-weight="bold"><tspan y="310.07908" x="121.64687">7</tspan></text>
<text xml:space="preserve" transform="matrix(1 0 0 1 -114.527378 -191.13184)" font-size="9.958844" font-family="CMBX10" font-weight="bold"><tspan y="310.07908" x="175.9534 180.46475">si</tspan></text>
<text xml:space="preserve" transform="matrix(1 0 0 1 -114.527378 -191.13184)" font-size="9.958844" font-family="CMTI10" font-style="italic"><tspan y="310.07908" x="186.96787 193.5905 198.17157 202.23477 209.10637 214.19535">iestdi</tspan></text>
<text xml:space="preserve" transform="matrix(1 0 0 1 -114.527378 -191.13184)" font-size="9.958844" font-family="CMTI10" font-style="italic"><tspan y="310.07908" x="217.24275">&#xfb00;</tspan></text>
<text xml:space="preserve" transform="matrix(1 0 0 1 -114.527378 -191.13184)" font-size="9.958844" font-family="CMTI10" font-style="italic"><tspan y="310.07908" x="223.1085 223.35749 227.93856 231.63329 236.21436 241.81124 248.6928 253.78177 261.9281 264.46763 267.515 272.09608 277.69294">&#x00b4;erentdeligne</tspan></text>
<text xml:space="preserve" transform="matrix(1 0 0 1 -114.527378 -191.13184)" font-size="9.958844" font-family="CMBXTI10" font-weight="bold" font-style="italic"><tspan y="310.07908" x="285.8492 291.7349">ou</tspan></text>
<text xml:space="preserve" transform="matrix(1 0 0 1 -114.527378 -191.13184)" font-size="9.958844" font-family="CMTI10" font-style="italic"><tspan y="310.07908" x="301.47465 308.09727 312.6783 316.74153 323.62309 328.71205">jestdi</tspan></text>
<text xml:space="preserve" transform="matrix(1 0 0 1 -114.527378 -191.13184)" font-size="9.958844" font-family="CMTI10" font-style="italic"><tspan y="310.07908" x="331.75944">&#xfb00;</tspan></text>
<text xml:space="preserve" transform="matrix(1 0 0 1 -114.527378 -191.13184)" font-size="9.958844" font-family="CMTI10" font-style="italic"><tspan y="310.07908" x="337.61524 337.8642 342.44526 346.13999 350.72105 356.3179 363.1895 368.27848 376.4248 380.49797 385.5869 388.12644 393.2154 398.81227 404.40913">&#x00b4;erentdecolonne</tspan></text>
<text xml:space="preserve" transform="matrix(1 0 0 1 -114.527378 -191.13184)" font-size="9.958844" font-family="CMBX10" font-weight="bold"><tspan y="310.07908" x="413.0733 418.6403 421.81718 427.54353 432.25407">alors</tspan></text>
<path transform="matrix(1,0,0,-1,-114.527378,-191.13184)" stroke-width=".39785" stroke-linecap="butt" stroke-miterlimit="10" stroke-linejoin="miter" fill="none" stroke="#000000" d="M181.133-373.418V-313.664"/>
<text xml:space="preserve" transform="matrix(1 0 0 1 -114.527378 -191.13184)" font-size="6.971171" font-family="CMBX7" font-weight="bold"><tspan y="322.02955" x="122.04572">8</tspan></text>
<text xml:space="preserve" transform="matrix(1 0 0 1 -114.527378 -191.13184)" font-size="9.958844" font-family="CMTI10" font-style="italic"><tspan y="322.02955" x="191.2906 198.69004 201.73744 207.07538 211.16846 214.4748 219.05587 226.82376 233.42649 238.00756 244.87915 251.50179 256.08287 261.1718 266.50978 274.28764 279.62559 285.22245 293.36878 297.94984 302.14253 305.1899 308.25727 310.79679 318.9431 323.52418 326.57157 330.27629 334.85734 340.19529 342.7348 347.82377 350.87117 354.57588 362.71223 367.29328 374.17485 379.2638 383.84486 387.15119 391.73225 397.3291 400.3765 408.1444 410.68394 415.26499 422.91337 428.51023 433.59919 438.93714 443.5182 448.09925 451.1666 453.70613 458.28718 465.91566 470.4967 475.58567 478.12519 482.70625 488.0442 492.23689 499.89524 502.94264 511.6068 516.18789 523.05947 526.1069">Ajusterietjpourunegrillecirculaireetobtenirlesnouvellesvaleursi2etj2</tspan></text>
<text xml:space="preserve" transform="matrix(1 0 0 1 -114.527378 -191.13184)" font-size="9.958844" font-family="CMR10"><tspan y="322.02955" x="532.5503">;</tspan></text>
<text xml:space="preserve" transform="matrix(1 0 0 1 -114.527378 -191.13184)" font-size="6.971171" font-family="CMBX7" font-weight="bold"><tspan y="333.98106" x="122.04572">9</tspan></text>
<text xml:space="preserve" transform="matrix(1 0 0 1 -114.527378 -191.13184)" font-size="9.958844" font-family="CMTI10" font-style="italic"><tspan y="333.98106" x="191.2906 198.91909 203.50016 206.80649 211.38756 216.98444 220.03185 227.81966 230.35916 233.40657 238.49555 244.09243 247.13983 255.30609 260.39506 266.48988 271.57884 276.6678 282.26466 289.91304 292.45256 301.10679 305.17994 310.2689 314.3321 322.48838 326.55158 329.59898 334.68794 341.3205 344.3679 349.45686 357.09529 362.18424 370.33058 372.8701 381.52433 386.10539 390.29808 393.34547 396.4128 398.95234">Obtenirl&#x2019;animaldanslacase(i2,j2)delagrille</tspan></text>
<text xml:space="preserve" transform="matrix(1 0 0 1 -114.527378 -191.13184)" font-size="9.958844" font-family="CMR10"><tspan y="333.98106" x="404.29026">;</tspan></text>
<text xml:space="preserve" transform="matrix(1 0 0 1 -114.527378 -191.13184)" font-size="6.971171" font-family="CMBX7" font-weight="bold"><tspan y="345.93156" x="117.533428 122.04377">10</tspan></text>
<text xml:space="preserve" transform="matrix(1 0 0 1 -114.527378 -191.13184)" font-size="9.958844" font-family="CMBX10" font-weight="bold"><tspan y="345.93156" x="191.2906 195.80196">si</tspan></text>
<text xml:space="preserve" transform="matrix(1 0 0 1 -114.527378 -191.13184)" font-size="9.958844" font-family="CMTI10" font-style="italic"><tspan y="345.93156" x="202.30507 204.84458 207.65297 207.91191 212.49298 215.79932 220.88829 227.75989 232.84886 240.98525 243.52475 252.18895 256.26213 261.35108 265.41429 273.57057 277.63377 280.68116 285.7701 292.40269 295.45008 300.53904 308.17747 312.2506 317.33958 321.53227 325.23698 329.81803 333.88124 338.47224 343.5612 349.15806 357.8123 362.90126 371.80448 375.87763 380.96659 386.56346 389.86979 394.45085 400.0477 408.96089 412.6556 416.72877 421.3098 426.39878 430.97984 434.67457 439.2556 444.08564 444.34455">l&#x2019;&#x00b4;etatdelacase(i2,j2)correspondaucontenurecherch&#x00b4;e</tspan></text>
<text xml:space="preserve" transform="matrix(1 0 0 1 -114.527378 -191.13184)" font-size="9.958844" font-family="CMBXTI10" font-weight="bold" font-style="italic"><tspan y="345.93156" x="452.4809 457.779">et</tspan></text>
<text xml:space="preserve" transform="matrix(1 0 0 1 -114.527378 -191.13184)" font-size="9.958844" font-family="CMTI10" font-style="italic"><tspan y="345.93156" x="465.17845 469.24165 471.78117 479.9474 484.02055 489.1095 494.70637 498.0127 502.59376 508.1906 517.0938 521.67489 525.7381 532.6196 537.2007 540.2481 545.3371">(lecontenuestvide</tspan></text>
<text xml:space="preserve" transform="matrix(1 0 0 1 -114.527378 -191.13184)" font-size="9.958844" font-family="CMBXTI10" font-weight="bold" font-style="italic"><tspan y="345.93156" x="553.49337 559.379">ou</tspan></text>
<text xml:space="preserve" transform="matrix(1 0 0 1 -114.527378 -191.13184)" font-size="9.958844" font-family="CMTI10" font-style="italic"><tspan y="345.93156" x="569.1287 571.6682 574.71566 579.8046 585.4015 588.4489 596.6151 601.7041 607.80886 612.3899 616.4531 623.3247 628.4137 631.4611 635.52438 640.12539 645.21438 650.8112 653.85867 658.4397 660.9792 665.56027">l&#x2019;animalestdisponible)</tspan></text>
<text xml:space="preserve" transform="matrix(1 0 0 1 -114.527378 -191.13184)" font-size="9.958844" font-family="CMBX10" font-weight="bold"><tspan y="345.93156" x="673.33816 678.90518 682.08206 687.80838 692.51889">alors</tspan></text>
<path transform="matrix(1,0,0,-1,-114.527378,-191.13184)" stroke-width=".39785" stroke-linecap="butt" stroke-miterlimit="10" stroke-linejoin="miter" fill="none" stroke="#000000" d="M196.469-361.465V-349.516"/>
<text xml:space="preserve" transform="matrix(1 0 0 1 -114.527378 -191.13184)" font-size="6.971171" font-family="CMBX7" font-weight="bold"><tspan y="357.88203" x="117.932277 122.44262">11</tspan></text>
<text xml:space="preserve" transform="matrix(1 0 0 1 -114.527378 -191.13184)" font-size="9.958844" font-family="CMTI10" font-style="italic"><tspan y="357.88203" x="206.62683 214.02625 217.07366 222.16263 227.50057 230.8069 235.38797 243.17578 245.71529 250.29636 257.92485 261.998 266.57905 271.668 275.36274 280.4517 285.54066 291.1375 296.49537 296.74433 301.32539 305.90644 313.54487 317.60807 320.65547 325.74443 332.37699 335.42439 340.51335 348.15177 348.15177 356.806 360.11235 365.2013 369.27445 373.3476 378.43656 382.49977 387.0808">Ajouterlescoordonn&#x00b4;ees(i2,j2)`atabcases</tspan></text>
<text xml:space="preserve" transform="matrix(1 0 0 1 -114.527378 -191.13184)" font-size="9.958844" font-family="CMR10"><tspan y="357.88203" x="391.98057">;</tspan></text>
<text xml:space="preserve" transform="matrix(1 0 0 1 -114.527378 -191.13184)" font-size="6.971171" font-family="CMBX7" font-weight="bold"><tspan y="369.83253" x="117.533428 122.04377">12</tspan></text>
<text xml:space="preserve" transform="matrix(1 0 0 1 -114.527378 -191.13184)" font-size="9.958844" font-family="CMBX10" font-weight="bold"><tspan y="369.83253" x="191.2906">&#xfb01;</tspan></text>
<text xml:space="preserve" transform="matrix(1 0 0 1 -114.527378 -191.13184)" font-size="9.958844" font-family="CMBX10" font-weight="bold"><tspan y="369.83253" x="197.64435">n</tspan></text>
<text xml:space="preserve" transform="matrix(1 0 0 1 -114.527378 -191.13184)" font-size="6.971171" font-family="CMBX7" font-weight="bold"><tspan y="382.77864" x="117.135578 121.64592">13</tspan></text>
<text xml:space="preserve" transform="matrix(1 0 0 1 -114.527378 -191.13184)" font-size="9.958844" font-family="CMBX10" font-weight="bold"><tspan y="382.77864" x="175.9534">&#xfb01;</tspan></text>
<text xml:space="preserve" transform="matrix(1 0 0 1 -114.527378 -191.13184)" font-size="9.958844" font-family="CMBX10" font-weight="bold"><tspan y="382.77864" x="182.30715">n</tspan></text>
<text xml:space="preserve" transform="matrix(1 0 0 1 -114.527378 -191.13184)" font-size="6.971171" font-family="CMBX7" font-weight="bold"><tspan y="395.72578" x="116.736728 121.24707">14</tspan></text>
<text xml:space="preserve" transform="matrix(1 0 0 1 -114.527378 -191.13184)" font-size="9.958844" font-family="CMBX10" font-weight="bold"><tspan y="395.72578" x="160.61717">&#xfb01;</tspan></text>
<text xml:space="preserve" transform="matrix(1 0 0 1 -114.527378 -191.13184)" font-size="9.958844" font-family="CMBX10" font-weight="bold"><tspan y="395.72578" x="166.97092">n</tspan></text>
<text xml:space="preserve" transform="matrix(1 0 0 1 -114.527378 -191.13184)" font-size="6.971171" font-family="CMBX7" font-weight="bold"><tspan y="408.67189" x="116.338878 120.84922">15</tspan></text>
<text xml:space="preserve" transform="matrix(1 0 0 1 -114.527378 -191.13184)" font-size="9.958844" font-family="CMBX10" font-weight="bold"><tspan y="408.67189" x="145.27997">&#xfb01;</tspan></text>
<text xml:space="preserve" transform="matrix(1 0 0 1 -114.527378 -191.13184)" font-size="9.958844" font-family="CMBX10" font-weight="bold"><tspan y="408.67189" x="151.63372">n</tspan></text>
<text xml:space="preserve" transform="matrix(1 0 0 1 -114.527378 -191.13184)" font-size="6.971171" font-family="CMBX7" font-weight="bold"><tspan y="420.62339" x="116.338878 120.84922">16</tspan></text>
<text xml:space="preserve" transform="matrix(1 0 0 1 -114.527378 -191.13184)" font-size="9.958844" font-family="CMBX10" font-weight="bold"><tspan y="420.62339" x="145.27997 149.79132">si</tspan></text>
<text xml:space="preserve" transform="matrix(1 0 0 1 -114.527378 -191.13184)" font-size="9.958844" font-family="CMTI10" font-style="italic"><tspan y="420.62339" x="156.29444 159.60077 164.68975 168.77288 172.84604 177.93502 181.99822 186.57929 194.22768 198.80875 202.87195 209.74355 215.34043 220.4294 229.59154 234.1726 237.22002 242.30899">tabcasesestnonvide</tspan></text>
<text xml:space="preserve" transform="matrix(1 0 0 1 -114.527378 -191.13184)" font-size="9.958844" font-family="CMBX10" font-weight="bold"><tspan y="420.62339" x="250.97319 256.5402 259.71708 265.44343 270.15397">alors</tspan></text>
<path transform="matrix(1,0,0,-1,-114.527378,-191.13184)" stroke-width=".39785" stroke-linecap="butt" stroke-miterlimit="10" stroke-linejoin="miter" fill="none" stroke="#000000" d="M150.461-448.109V-424.207"/>
<text xml:space="preserve" transform="matrix(1 0 0 1 -114.527378 -191.13184)" font-size="6.971171" font-family="CMBX7" font-weight="bold"><tspan y="432.57386" x="116.736728 121.24707">17</tspan></text>
<text xml:space="preserve" transform="matrix(1 0 0 1 -114.527378 -191.13184)" font-size="9.958844" font-family="CMTI10" font-style="italic"><tspan y="432.57386" x="160.61717 167.73775 172.82672 177.9157 180.9631 185.0263 188.10359 195.87149 200.96047 203.24105 203.49999 208.08106 213.17003 216.47637 221.56534 224.61275 228.30748 232.88855 241.02494 245.606 251.20288 258.0944 263.43235 269.0292 277.17555 281.76655 286.8555 289.9029 293.59764 301.73399 306.82295 314.96928 319.04243 323.62348 328.71244 332.40718 337.49613 342.58509 348.18196 353.52986 353.78877 358.3698 362.95088 370.5893 375.67826 383.8146 387.12095 392.2099 396.28306 400.3562 405.44517 409.50837 414.08943 421.7378 426.31886 433.19047 435.72999 438.77738">Choisiral&#x00b4;eatoirementunepairedecoordonn&#x00b4;eesdetabcasesetl&#x2019;a</tspan></text>
<text xml:space="preserve" transform="matrix(1 0 0 1 -114.527378 -191.13184)" font-size="9.958844" font-family="CMTI10" font-style="italic"><tspan y="432.57386" x="443.86634">&#xfb00;</tspan></text>
<text xml:space="preserve" transform="matrix(1 0 0 1 -114.527378 -191.13184)" font-size="9.958844" font-family="CMTI10" font-style="italic"><tspan y="432.57386" x="449.9711 454.06419 458.64524 461.95158 466.53263 474.2906 474.2906 482.94483 485.48435 488.53175">ecter`alig</tspan></text>
<path transform="matrix(1,0,0,-1,-114.527378,-191.13184)" stroke-width=".39785" stroke-linecap="butt" stroke-miterlimit="10" stroke-linejoin="miter" fill="none" stroke="#000000" d="M493.734-432.375H496.789"/>
<text xml:space="preserve" transform="matrix(1 0 0 1 -114.527378 -191.13184)" font-size="9.958844" font-family="CMTI10" font-style="italic"><tspan y="432.57386" x="496.7894 501.37046 506.4594 509.5068 513.57 516.61746 525.80947 530.3905 537.2621 541.32528 546.41427">voisinetcol</tspan></text>
<path transform="matrix(1,0,0,-1,-114.527378,-191.13184)" stroke-width=".39785" stroke-linecap="butt" stroke-miterlimit="10" stroke-linejoin="miter" fill="none" stroke="#000000" d="M549.574-432.375H552.629"/>
<text xml:space="preserve" transform="matrix(1 0 0 1 -114.527378 -191.13184)" font-size="9.958844" font-family="CMTI10" font-style="italic"><tspan y="432.57386" x="552.6273 557.2084 562.29739 565.3448 569.408 572.45547">voisin</tspan></text>
<text xml:space="preserve" transform="matrix(1 0 0 1 -114.527378 -191.13184)" font-size="9.958844" font-family="CMR10"><tspan y="432.57386" x="578.83908">;</tspan></text>
<text xml:space="preserve" transform="matrix(1 0 0 1 -114.527378 -191.13184)" font-size="6.971171" font-family="CMBX7" font-weight="bold"><tspan y="444.52436" x="116.736728 121.24707">18</tspan></text>
<text xml:space="preserve" transform="matrix(1 0 0 1 -114.527378 -191.13184)" font-size="9.958844" font-family="CMBX10" font-weight="bold"><tspan y="444.52436" x="160.61717 165.32772 170.57602 175.02762 180.75395 187.1077 191.81824 198.20186 203.45017">retourner</tspan></text>
<text xml:space="preserve" transform="matrix(1 0 0 1 -114.527378 -191.13184)" font-size="9.958844" font-family="CMTI10" font-style="italic"><tspan y="444.52436" x="211.48696 214.02646 219.11544 224.71231 229.29338 234.63132 239.21239 244.5802 252.33814 257.4271 265.56346 268.86979 273.95875 278.04185 282.115 287.20396 291.26716 295.8482 299.9114 306.54399 309.0835 312.1309">longueurdetabcases,lig</tspan></text>
<path transform="matrix(1,0,0,-1,-114.527378,-191.13184)" stroke-width=".39785" stroke-linecap="butt" stroke-miterlimit="10" stroke-linejoin="miter" fill="none" stroke="#000000" d="M317.34-444.324H320.391"/>
<text xml:space="preserve" transform="matrix(1 0 0 1 -114.527378 -191.13184)" font-size="9.958844" font-family="CMTI10" font-style="italic"><tspan y="444.52436" x="320.39195 324.973 330.06196 333.10935 337.17256 340.21995 345.84669 352.45936 356.5325 361.62147">voisin,col</tspan></text>
<path transform="matrix(1,0,0,-1,-114.527378,-191.13184)" stroke-width=".39785" stroke-linecap="butt" stroke-miterlimit="10" stroke-linejoin="miter" fill="none" stroke="#000000" d="M364.777-444.324H367.832"/>
<text xml:space="preserve" transform="matrix(1 0 0 1 -114.527378 -191.13184)" font-size="9.958844" font-family="CMTI10" font-style="italic"><tspan y="444.52436" x="367.83103 372.41209 377.50105 380.54844 384.61164 387.65904">voisin</tspan></text>
<text xml:space="preserve" transform="matrix(1 0 0 1 -114.527378 -191.13184)" font-size="9.958844" font-family="CMR10"><tspan y="444.52436" x="394.04264">;</tspan></text>
<text xml:space="preserve" transform="matrix(1 0 0 1 -114.527378 -191.13184)" font-size="6.971171" font-family="CMBX7" font-weight="bold"><tspan y="457.47047" x="116.338878 120.84922">19</tspan></text>
<text xml:space="preserve" transform="matrix(1 0 0 1 -114.527378 -191.13184)" font-size="9.958844" font-family="CMBX10" font-weight="bold"><tspan y="457.47047" x="145.27997 149.79132 152.96819 159.32193 165.04827">sinon</tspan></text>
<path transform="matrix(1,0,0,-1,-114.527378,-191.13184)" stroke-width=".39785" stroke-linecap="butt" stroke-miterlimit="10" stroke-linejoin="miter" fill="none" stroke="#000000" d="M150.461-473.008V-461.055"/>
<text xml:space="preserve" transform="matrix(1 0 0 1 -114.527378 -191.13184)" font-size="6.971171" font-family="CMBX7" font-weight="bold"><tspan y="469.42097" x="116.736728 121.24707">20</tspan></text>
<text xml:space="preserve" transform="matrix(1 0 0 1 -114.527378 -191.13184)" font-size="9.958844" font-family="CMBX10" font-weight="bold"><tspan y="469.42097" x="160.61717 165.32772 170.57602 175.02762 180.75395 187.1077 191.81824 198.20186 203.45017">retourner</tspan></text>
<text xml:space="preserve" transform="matrix(1 0 0 1 -114.527378 -191.13184)" font-size="9.958844" font-family="CMTI10" font-style="italic"><tspan y="469.42097" x="211.48696 218.88639 223.97536 229.57224 234.1533 240.7859 248.18534 253.2743 258.8712">None,None</tspan></text>
<text xml:space="preserve" transform="matrix(1 0 0 1 -114.527378 -191.13184)" font-size="9.958844" font-family="CMR10"><tspan y="469.42097" x="264.19917">;</tspan></text>
<text xml:space="preserve" transform="matrix(1 0 0 1 -114.527378 -191.13184)" font-size="6.971171" font-family="CMBX7" font-weight="bold"><tspan y="481.37248" x="116.338878 120.84922">21</tspan></text>
<text xml:space="preserve" transform="matrix(1 0 0 1 -114.527378 -191.13184)" font-size="9.958844" font-family="CMBX10" font-weight="bold"><tspan y="481.37248" x="145.27997">&#xfb01;</tspan></text>
<text xml:space="preserve" transform="matrix(1 0 0 1 -114.527378 -191.13184)" font-size="9.958844" font-family="CMBX10" font-weight="bold"><tspan y="481.37248" x="151.63372">n</tspan></text>
<text xml:space="preserve" transform="matrix(1 0 0 1 -114.527378 -191.13184)" font-size="6.971171" font-family="CMBX7" font-weight="bold"><tspan y="494.31858" x="115.940029 120.45037">22</tspan></text>
<text xml:space="preserve" transform="matrix(1 0 0 1 -114.527378 -191.13184)" font-size="9.958844" font-family="CMBX10" font-weight="bold"><tspan y="494.31858" x="129.94374">&#xfb01;</tspan></text>
<text xml:space="preserve" transform="matrix(1 0 0 1 -114.527378 -191.13184)" font-size="9.958844" font-family="CMBX10" font-weight="bold"><tspan y="494.31858" x="136.29749">n</tspan></text>
<path transform="matrix(1,0,0,-1,-114.527378,-191.13184)" stroke-width=".7967" stroke-linecap="butt" stroke-miterlimit="10" stroke-linejoin="miter" fill="none" stroke="#000000" d="M115.004-500.293H726.773"/>
</g>
</svg>
