<svg xmlns="http://www.w3.org/2000/svg" xmlns:xlink="http://www.w3.org/1999/xlink" version="1.1" width="468.17655pt" height="309.8956pt" viewBox="0 0 468.17655 309.8956">
<g>
<path transform="matrix(1,0,0,-1,-63.281595,-51.483339)" stroke-width=".796032" stroke-linecap="butt" stroke-miterlimit="10" stroke-linejoin="miter" fill="none" stroke="#000000" d="M63.562-52.535H530.992"/>
<text xml:space="preserve" transform="matrix(1 0 0 1 -63.281595 -51.483339)" font-size="9.950897" font-family="CMBX10" font-weight="bold"><tspan y="61.834768" x="71.02362 79.67095 82.84529 88.567058 94.28882 98.99559 102.16993 106.61798 112.996509 122.529468 131.58478 141.1277">Algorithme2:</tspan></text>
<text xml:space="preserve" transform="matrix(1 0 0 1 -63.281595 -51.483339)" font-size="9.950897" font-family="CMR10"><tspan y="61.834768" x="147.62563 154.39225 159.36769 159.64632 164.06452 168.48271 174.00547 177.86641 180.65265 185.6281 194.47444 199.9972 202.75359 208.27634 217.13265 221.55084 226.79497 231.24301 233.9994 241.7412 247.26395 255.00574 260.52848 264.41929 269.3947 272.15113">Ex&#x00b4;ecutiond&#x2019;uncycledeproie</tspan></text>
<path transform="matrix(1,0,0,-1,-63.281595,-51.483339)" stroke-width=".796032" stroke-linecap="butt" stroke-miterlimit="10" stroke-linejoin="miter" fill="none" stroke="#000000" d="M63.562-66.156H530.992"/>
<text xml:space="preserve" transform="matrix(1 0 0 1 -63.281595 -51.483339)" font-size="9.950897" font-family="CMBX10" font-weight="bold"><tspan y="75.4562" x="78.48654 85.999469 92.04961 96.49766 100.96561 101.20442 106.44855 111.69267 120.021579">Entr&#x00b4;ees:</tspan></text>
<text xml:space="preserve" transform="matrix(1 0 0 1 -63.281595 -51.483339)" font-size="9.950897" font-family="CMR10"><tspan y="75.4562" x="126.519519 131.49497 135.38578 138.14217 140.89856 143.6848 148.103 154.18299 156.93938 159.69577 164.67122 170.19397 174.64202 180.73197 185.15016 190.12561 192.882 197.85746 203.3802 208.90296 213.32115 219.42105 224.3965 229.91925 232.67565 240.96474 245.94019">grille,ligne,colonne,animal</tspan></text>
<text xml:space="preserve" transform="matrix(1 0 0 1 -63.281595 -51.483339)" font-size="6.965528" font-family="CMBX7" font-weight="bold"><tspan y="87.396678" x="69.003078">1</tspan></text>
<text xml:space="preserve" transform="matrix(1 0 0 1 -63.281595 -51.483339)" font-size="9.950897" font-family="CMBX10" font-weight="bold"><tspan y="87.396678" x="78.48654 84.60634 84.84515 90.08928 96.43795 102.78662">d&#x00b4;ebut</tspan></text>
<path transform="matrix(1,0,0,-1,-63.281595,-51.483339)" stroke-width=".397517" stroke-linecap="butt" stroke-miterlimit="10" stroke-linejoin="miter" fill="none" stroke="#000000" d="M83.66-345.711V-90.977"/>
<text xml:space="preserve" transform="matrix(1 0 0 1 -63.281595 -51.483339)" font-size="6.965528" font-family="CMBX7" font-weight="bold"><tspan y="99.33715" x="69.40059">2</tspan></text>
<text xml:space="preserve" transform="matrix(1 0 0 1 -63.281595 -51.483339)" font-size="9.950897" font-family="CMTI10" font-style="italic"><tspan y="99.33715" x="93.809909 97.641 103.233409 107.81082 111.76133 112.02005 116.597469 124.72735 129.30477 134.89717 138.20087 142.77828 150.53998 153.07746 156.12242 156.13239 161.2173 165.79471 173.93454 179.01946 187.15929 189.69676 192.74173 197.82665 203.41905 206.46402 214.62375 219.70867">Incr&#x00b4;ementerl&#x2019;&#x02c6;agedel&#x2019;animal</tspan></text>
<text xml:space="preserve" transform="matrix(1 0 0 1 -63.281595 -51.483339)" font-size="9.950897" font-family="CMR10"><tspan y="99.33715" x="223.28104">;</tspan></text>
<text xml:space="preserve" transform="matrix(1 0 0 1 -63.281595 -51.483339)" font-size="6.965528" font-family="CMBX7" font-weight="bold"><tspan y="111.27763" x="69.40059">3</tspan></text>
<text xml:space="preserve" transform="matrix(1 0 0 1 -63.281595 -51.483339)" font-size="9.950897" font-family="CMBX10" font-weight="bold"><tspan y="111.27763" x="93.809909 98.317668">si</tspan></text>
<text xml:space="preserve" transform="matrix(1 0 0 1 -63.281595 -51.483339)" font-size="9.950897" font-family="CMTI10" font-style="italic"><tspan y="111.27763" x="104.815608 107.35308 110.398059 110.41795 115.50286 120.08028 128.22011 133.30503 141.4349 143.97238 147.01735 152.10227 157.69467 160.73964 168.89937 173.98429">l&#x2019;&#x02c6;agedel&#x2019;animal</tspan></text>
<text xml:space="preserve" transform="matrix(1 0 0 1 -63.281595 -51.483339)" font-size="9.950897" font-family="CMMI10" font-style="italic"><tspan y="111.27763" x="180.08419">&#x003e;</tspan></text>
<text xml:space="preserve" transform="matrix(1 0 0 1 -63.281595 -51.483339)" font-size="9.950897" font-family="CMTI10" font-style="italic"><tspan y="111.27763" x="191.3884 200.3044 207.69792">MAX</tspan></text>
<path transform="matrix(1,0,0,-1,-63.281595,-51.483339)" stroke-width=".397517" stroke-linecap="butt" stroke-miterlimit="10" stroke-linejoin="miter" fill="none" stroke="#000000" d="M215.715-111.078H218.766"/>
<text xml:space="preserve" transform="matrix(1 0 0 1 -63.281595 -51.483339)" font-size="9.950897" font-family="CMTI10" font-style="italic"><tspan y="111.27763" x="218.76593 225.90073 233.59278">AGE</tspan></text>
<path transform="matrix(1,0,0,-1,-63.281595,-51.483339)" stroke-width=".397517" stroke-linecap="butt" stroke-miterlimit="10" stroke-linejoin="miter" fill="none" stroke="#000000" d="M240.965-111.078H244.016"/>
<text xml:space="preserve" transform="matrix(1 0 0 1 -63.281595 -51.483339)" font-size="9.950897" font-family="CMTI10" font-style="italic"><tspan y="111.27763" x="244.01721 250.76392 257.76936 265.39173 269.2228">PROIE</tspan></text>
<text xml:space="preserve" transform="matrix(1 0 0 1 -63.281595 -51.483339)" font-size="9.950897" font-family="CMBX10" font-weight="bold"><tspan y="111.27763" x="280.49717 286.05973 289.23408 294.95585 299.66264">alors</tspan></text>
<path transform="matrix(1,0,0,-1,-63.281595,-51.483339)" stroke-width=".397517" stroke-linecap="butt" stroke-miterlimit="10" stroke-linejoin="miter" fill="none" stroke="#000000" d="M98.984-150.684V-114.859"/>
<text xml:space="preserve" transform="matrix(1 0 0 1 -63.281595 -51.483339)" font-size="6.965528" font-family="CMBX7" font-weight="bold"><tspan y="123.21811" x="69.79911">4</tspan></text>
<text xml:space="preserve" transform="matrix(1 0 0 1 -63.281595 -51.483339)" font-size="9.950897" font-family="CMTI10" font-style="italic"><tspan y="123.21811" x="109.13427 118.05028 122.62769 125.93139 129.23509 132.93683 141.07666 143.61414 152.25153 156.32144 161.40636 165.46633 173.6161 177.67607 180.21355 183.28836 187.86577 193.45818 198.03559 204.65293 208.72284 213.80776 216.34523 221.43015 227.02256 232.61496 237.19237 244.8247 249.90962 258.04945 260.5869 269.23423 273.81166 278.00099 281.04597 284.1208 286.65827 294.7981 294.78816 303.43547 308.01289 311.05787 316.14277">Mettrelacase(ligne,colonne)delagrille`avide</tspan></text>
<text xml:space="preserve" transform="matrix(1 0 0 1 -63.281595 -51.483339)" font-size="9.950897" font-family="CMR10"><tspan y="123.21811" x="321.47645">;</tspan></text>
<text xml:space="preserve" transform="matrix(1 0 0 1 -63.281595 -51.483339)" font-size="6.965528" font-family="CMBX7" font-weight="bold"><tspan y="135.15958" x="69.79911">5</tspan></text>
<text xml:space="preserve" transform="matrix(1 0 0 1 -63.281595 -51.483339)" font-size="9.950897" font-family="CMTI10" font-style="italic"><tspan y="135.15958" x="109.13427 116.38848 116.6472 121.22462 125.80203 129.74259 130.00131 134.57872 142.7086 147.28601 152.87842 156.18212 160.75952 168.52123 171.0587 179.19853 183.26845 188.35337 196.48325 201.56816 204.87186 209.44927 214.78295 222.56455 227.64946 235.78929 240.8742 244.55605 249.64096 252.68593 257.26335 264.90565 269.99055 278.13038 280.66786 289.31517 293.89259 298.0819 301.1269 304.19178 306.72926">D&#x00b4;ecr&#x00b4;ementerlecompteurdeproiesdelagrille</tspan></text>
<text xml:space="preserve" transform="matrix(1 0 0 1 -63.281595 -51.483339)" font-size="9.950897" font-family="CMR10"><tspan y="135.15958" x="312.05299">;</tspan></text>
<text xml:space="preserve" transform="matrix(1 0 0 1 -63.281595 -51.483339)" font-size="6.965528" font-family="CMBX7" font-weight="bold"><tspan y="147.10007" x="69.79911">6</tspan></text>
<text xml:space="preserve" transform="matrix(1 0 0 1 -63.281595 -51.483339)" font-size="9.950897" font-family="CMBX10" font-weight="bold"><tspan y="147.10007" x="109.13427 113.84104 119.08517 123.53322 129.8819 134.58867">return</tspan></text>
<text xml:space="preserve" transform="matrix(1 0 0 1 -63.281595 -51.483339)" font-size="6.965528" font-family="CMBX7" font-weight="bold"><tspan y="160.03533" x="69.40059">7</tspan></text>
<text xml:space="preserve" transform="matrix(1 0 0 1 -63.281595 -51.483339)" font-size="9.950897" font-family="CMBX10" font-weight="bold"><tspan y="160.03533" x="93.809909">&#xfb01;</tspan></text>
<text xml:space="preserve" transform="matrix(1 0 0 1 -63.281595 -51.483339)" font-size="9.950897" font-family="CMBX10" font-weight="bold"><tspan y="160.03533" x="100.15858">n</tspan></text>
<text xml:space="preserve" transform="matrix(1 0 0 1 -63.281595 -51.483339)" font-size="6.965528" font-family="CMBX7" font-weight="bold"><tspan y="171.9758" x="69.40059">8</tspan></text>
<text xml:space="preserve" transform="matrix(1 0 0 1 -63.281595 -51.483339)" font-size="9.950897" font-family="CMBX10" font-weight="bold"><tspan y="171.9758" x="93.809909 98.317668">si</tspan></text>
<text xml:space="preserve" transform="matrix(1 0 0 1 -63.281595 -51.483339)" font-size="9.950897" font-family="CMTI10" font-style="italic"><tspan y="171.9758" x="104.815608 107.35308 110.398059 110.41795 115.50286 120.08028 128.22011 133.30503 141.4349 143.97238 147.01735 152.10227 157.69467 160.73964 168.89937 173.98429">l&#x2019;&#x02c6;agedel&#x2019;animal</tspan></text>
<text xml:space="preserve" transform="matrix(1 0 0 1 -63.281595 -51.483339)" font-size="9.950897" font-family="CMSY10" font-style="italic"><tspan y="171.9758" x="180.08419">&#x2265;</tspan></text>
<text xml:space="preserve" transform="matrix(1 0 0 1 -63.281595 -51.483339)" font-size="9.950897" font-family="CMTI10" font-style="italic"><tspan y="171.9758" x="191.3884 198.78192">NB</tspan></text>
<path transform="matrix(1,0,0,-1,-63.281595,-51.483339)" stroke-width=".397517" stroke-linecap="butt" stroke-miterlimit="10" stroke-linejoin="miter" fill="none" stroke="#000000" d="M206.398-171.777H209.449"/>
<text xml:space="preserve" transform="matrix(1 0 0 1 -63.281595 -51.483339)" font-size="9.950897" font-family="CMTI10" font-style="italic"><tspan y="171.9758" x="209.45026 214.67449 221.9287">JRS</tspan></text>
<path transform="matrix(1,0,0,-1,-63.281595,-51.483339)" stroke-width=".397517" stroke-linecap="butt" stroke-miterlimit="10" stroke-linejoin="miter" fill="none" stroke="#000000" d="M228.137-171.777H231.188"/>
<text xml:space="preserve" transform="matrix(1 0 0 1 -63.281595 -51.483339)" font-size="9.950897" font-family="CMTI10" font-style="italic"><tspan y="171.9758" x="231.18881 237.93552 245.32904 252.32453 259.07124 265.57914 272.69404">PUBERTE</tspan></text>
<path transform="matrix(1,0,0,-1,-63.281595,-51.483339)" stroke-width=".397517" stroke-linecap="butt" stroke-miterlimit="10" stroke-linejoin="miter" fill="none" stroke="#000000" d="M280.062-171.777H283.117"/>
<text xml:space="preserve" transform="matrix(1 0 0 1 -63.281595 -51.483339)" font-size="9.950897" font-family="CMTI10" font-style="italic"><tspan y="171.9758" x="283.11668 289.86338 296.8688 304.49119 308.32228">PROIE</tspan></text>
<text xml:space="preserve" transform="matrix(1 0 0 1 -63.281595 -51.483339)" font-size="9.950897" font-family="CMBXTI10" font-weight="bold" font-style="italic"><tspan y="171.9758" x="318.64137 323.93525">et</tspan></text>
<text xml:space="preserve" transform="matrix(1 0 0 1 -63.281595 -51.483339)" font-size="9.950897" font-family="CMTI10" font-style="italic"><tspan y="171.9758" x="331.32875 334.37373 339.45863 344.7923 349.01148 356.63386 361.71876 369.85859 374.436 379.01344 383.0734 386.3771 391.462 394.76573 397.8107 402.8956 412.07035 417.15525 425.29508 427.83256 430.87754 435.96244 441.55485 444.59983 452.75956 457.84446">joursdegestationdel&#x2019;animal</tspan></text>
<text xml:space="preserve" transform="matrix(1 0 0 1 -63.281595 -51.483339)" font-size="9.950897" font-family="CMSY10" font-style="italic"><tspan y="171.9758" x="463.94435">&#x2265;</tspan></text>
<text xml:space="preserve" transform="matrix(1 0 0 1 -63.281595 -51.483339)" font-size="9.950897" font-family="CMTI10" font-style="italic"><tspan y="183.91628" x="98.78587 106.17939">NB</tspan></text>
<path transform="matrix(1,0,0,-1,-63.281595,-51.483339)" stroke-width=".397517" stroke-linecap="butt" stroke-miterlimit="10" stroke-linejoin="miter" fill="none" stroke="#000000" d="M113.797-183.719H116.848"/>
<text xml:space="preserve" transform="matrix(1 0 0 1 -63.281595 -51.483339)" font-size="9.950897" font-family="CMTI10" font-style="italic"><tspan y="183.91629" x="116.847888 122.072109 129.32631">JRS</tspan></text>
<path transform="matrix(1,0,0,-1,-63.281595,-51.483339)" stroke-width=".397517" stroke-linecap="butt" stroke-miterlimit="10" stroke-linejoin="miter" fill="none" stroke="#000000" d="M135.535-183.719H138.586"/>
<text xml:space="preserve" transform="matrix(1 0 0 1 -63.281595 -51.483339)" font-size="9.950897" font-family="CMTI10" font-style="italic"><tspan y="183.91629" x="138.58644 146.27849 153.02519 158.6176 164.98618 171.62343 178.73833 182.56943 190.19182">GESTATION</tspan></text>
<path transform="matrix(1,0,0,-1,-63.281595,-51.483339)" stroke-width=".397517" stroke-linecap="butt" stroke-miterlimit="10" stroke-linejoin="miter" fill="none" stroke="#000000" d="M198.211-183.719H201.262"/>
<text xml:space="preserve" transform="matrix(1 0 0 1 -63.281595 -51.483339)" font-size="9.950897" font-family="CMTI10" font-style="italic"><tspan y="183.91629" x="201.26222 208.00893 215.02433 222.64672 226.47782">PROIE</tspan></text>
<text xml:space="preserve" transform="matrix(1 0 0 1 -63.281595 -51.483339)" font-size="9.950897" font-family="CMBX10" font-weight="bold"><tspan y="183.91629" x="237.74222 243.30477 246.4791 252.20087 256.90766">alors</tspan></text>
<path transform="matrix(1,0,0,-1,-63.281595,-51.483339)" stroke-width=".397517" stroke-linecap="butt" stroke-miterlimit="10" stroke-linejoin="miter" fill="none" stroke="#000000" d="M98.984-295.961V-187.5"/>
<text xml:space="preserve" transform="matrix(1 0 0 1 -63.281595 -51.483339)" font-size="6.965528" font-family="CMBX7" font-weight="bold"><tspan y="195.85776" x="69.79911">9</tspan></text>
<text xml:space="preserve" transform="matrix(1 0 0 1 -63.281595 -51.483339)" font-size="9.950897" font-family="CMTI10" font-style="italic"><tspan y="195.85776" x="109.13427 116.24916 121.33407 125.91148 129.60327 134.18068 139.2656 143.843 151.6047 156.93839 166.09322 170.67063 175.75554 178.8005 182.86048 185.93529 195.09012 200.17504 205.50872 208.81241 213.89733 219.231 227.00266 232.08757 240.2274 242.76488 251.41222 255.48213 260.56706 264.627 272.7768 276.83677 279.37425 282.41923 286.99665 292.58906 297.16648 303.80375 307.8637 312.9486 315.48609 320.57099 326.1634 331.7558 336.33323 343.97554 348.55296 353.88664 360.51396 365.09138 369.15135 376.0274 380.60484 383.6498 388.7347">Chercherunvoisinautourdelacase(ligne,colonne)quiestvide</tspan></text>
<text xml:space="preserve" transform="matrix(1 0 0 1 -63.281595 -51.483339)" font-size="9.950897" font-family="CMR10"><tspan y="195.85776" x="394.0485">;</tspan></text>
<text xml:space="preserve" transform="matrix(1 0 0 1 -63.281595 -51.483339)" font-size="6.965528" font-family="CMBX7" font-weight="bold"><tspan y="207.79824" x="65.29059 69.79729">10</tspan></text>
<text xml:space="preserve" transform="matrix(1 0 0 1 -63.281595 -51.483339)" font-size="9.950897" font-family="CMBX10" font-weight="bold"><tspan y="207.79824" x="109.13427 113.64203">si</tspan></text>
<text xml:space="preserve" transform="matrix(1 0 0 1 -63.281595 -51.483339)" font-size="9.950897" font-family="CMTI10" font-style="italic"><tspan y="207.79824" x="120.13997 123.184947 129.30475 133.88216 138.48943 141.5344 145.59436 148.89806 157.04784 162.38152 171.5463 176.1237 181.20862 184.25359 188.31356 191.38837 200.5432 205.1206 208.16558 213.25049">ilexisteunvoisinvide</tspan></text>
<text xml:space="preserve" transform="matrix(1 0 0 1 -63.281595 -51.483339)" font-size="9.950897" font-family="CMBXTI10" font-weight="bold" font-style="italic"><tspan y="207.79824" x="221.39032 226.6842">et</tspan></text>
<text xml:space="preserve" transform="matrix(1 0 0 1 -63.281595 -51.483339)" font-size="9.950897" font-family="CMTI10" font-style="italic"><tspan y="207.79824" x="234.07773 239.67014 244.75505 252.88494 257.46235 261.1641 269.30393 274.38883 282.5187 287.6036 291.29539 296.38029 299.42527 304.0027 311.635 316.7199 321.8048 327.39723 335.03953 337.577 346.2243 350.80174 354.99107 358.03605 361.10093 363.6384">nombredeproiesdanslagrille</tspan></text>
<text xml:space="preserve" transform="matrix(1 0 0 1 -63.281595 -51.483339)" font-size="9.950897" font-family="CMMI10" font-style="italic"><tspan y="207.79824" x="371.77824">&#x003c;</tspan></text>
<text xml:space="preserve" transform="matrix(1 0 0 1 -63.281595 -51.483339)" font-size="9.950897" font-family="CMTI10" font-style="italic"><tspan y="207.79824" x="383.07249 390.466">NB</tspan></text>
<path transform="matrix(1,0,0,-1,-63.281595,-51.483339)" stroke-width=".397517" stroke-linecap="butt" stroke-miterlimit="10" stroke-linejoin="miter" fill="none" stroke="#000000" d="M398.082-207.598H401.137"/>
<text xml:space="preserve" transform="matrix(1 0 0 1 -63.281595 -51.483339)" font-size="9.950897" font-family="CMTI10" font-style="italic"><tspan y="207.79824" x="401.13514 410.05116 417.44468">MAX</tspan></text>
<path transform="matrix(1,0,0,-1,-63.281595,-51.483339)" stroke-width=".397517" stroke-linecap="butt" stroke-miterlimit="10" stroke-linejoin="miter" fill="none" stroke="#000000" d="M425.461-207.598H428.512"/>
<text xml:space="preserve" transform="matrix(1 0 0 1 -63.281595 -51.483339)" font-size="9.950897" font-family="CMTI10" font-style="italic"><tspan y="207.79824" x="428.51283 435.25953 442.26496 449.88734 453.7184 460.46513">PROIES</tspan></text>
<text xml:space="preserve" transform="matrix(1 0 0 1 -63.281595 -51.483339)" font-size="9.950897" font-family="CMBXTI10" font-weight="bold" font-style="italic"><tspan y="207.79824" x="469.63987 474.93376">et</tspan></text>
<text xml:space="preserve" transform="matrix(1 0 0 1 -63.281595 -51.483339)" font-size="9.950897" font-family="CMTI10" font-style="italic"><tspan y="207.79824" x="482.32725 487.66093 493.25334">une</tspan><tspan y="219.73871" x="114.10922 119.19413 122.88592 127.970829 132.04074 137.12566 141.70307 144.74803 147.2855 150.33048 153.39536 153.65409 161.78397 166.86888 169.16754 169.41632 173.99373 179.07865 182.38234 187.46726 190.51222 194.21396 202.35379 206.9312 210.99117">probabilit&#x00b4;eal&#x00b4;eatoireest</tspan></text>
<text xml:space="preserve" transform="matrix(1 0 0 1 -63.281595 -51.483339)" font-size="9.950897" font-family="CMMI10" font-style="italic"><tspan y="219.73871" x="217.85729">&#x003c;</tspan></text>
<text xml:space="preserve" transform="matrix(1 0 0 1 -63.281595 -51.483339)" font-size="9.950897" font-family="CMTI10" font-style="italic"><tspan y="219.73871" x="229.1615 234.24642 237.29138">0.5</tspan></text>
<text xml:space="preserve" transform="matrix(1 0 0 1 -63.281595 -51.483339)" font-size="9.950897" font-family="CMBX10" font-weight="bold"><tspan y="219.73871" x="247.04328 252.60582 255.78015 261.50193 266.2087">alors</tspan></text>
<path transform="matrix(1,0,0,-1,-63.281595,-51.483339)" stroke-width=".397517" stroke-linecap="butt" stroke-miterlimit="10" stroke-linejoin="miter" fill="none" stroke="#000000" d="M114.309-259.145V-223.32"/>
<text xml:space="preserve" transform="matrix(1 0 0 1 -63.281595 -51.483339)" font-size="6.965528" font-family="CMBX7" font-weight="bold"><tspan y="231.6792" x="65.68911 70.19581">11</tspan></text>
<text xml:space="preserve" transform="matrix(1 0 0 1 -63.281595 -51.483339)" font-size="9.950897" font-family="CMTI10" font-style="italic"><tspan y="231.6792" x="124.45763 133.37363 137.95104 141.25473 144.55843 148.26016 156.4 158.93747 167.06735 171.64476 176.72968 179.77465 183.83461 186.90943 196.06426 200.64167 203.68663 208.77155 216.92133 216.92133 225.56867 228.10614 230.90233 231.15111 235.72852 239.03221 244.11713 250.9932 256.0781 264.21794 269.30284 272.9946 278.0795 281.12449">Mettrelevoisinvide`al&#x2019;&#x00b4;etatdeproie</tspan></text>
<text xml:space="preserve" transform="matrix(1 0 0 1 -63.281595 -51.483339)" font-size="9.950897" font-family="CMR10"><tspan y="231.6792" x="286.4482">;</tspan></text>
<text xml:space="preserve" transform="matrix(1 0 0 1 -63.281595 -51.483339)" font-size="6.965528" font-family="CMBX7" font-weight="bold"><tspan y="243.61968" x="65.68911 70.19581">12</tspan></text>
<text xml:space="preserve" transform="matrix(1 0 0 1 -63.281595 -51.483339)" font-size="9.950897" font-family="CMTI10" font-style="italic"><tspan y="243.61968" x="124.45763 128.28873 133.88114 136.9261 140.2298 143.27477 148.35968 150.927 153.97197 158.03194 162.60935 170.381 172.91847 181.0583 185.38694 185.63571 190.21312 194.54175 194.79053 202.93036 208.01528 211.70706 216.79198 219.83695 227.98673 233.07164 237.64905 241.70902 249.84885 254.93376 259.51118 267.1435 271.72093 276.80583 279.3433 283.92073 289.2544 293.44374 301.09599 305.67338 310.75828 318.51 323.34614 323.59489 328.1723 331.2173 336.3022 341.63587 348.5219 353.09934 359.96546 362.50294 370.6328 375.7177 378.2552 383.3401 387.41996 391.99739 399.7591 404.844 409.9289 415.5213 423.15364 425.6911 434.3484 438.40837 443.49327 447.55323 455.703 460.28044 463.3254 468.4103">Initialiserleb&#x00b4;eb&#x00b4;eproieavecdesvaleurspard&#x00b4;efautetleplacerdanslacasevide</tspan></text>
<text xml:space="preserve" transform="matrix(1 0 0 1 -63.281595 -51.483339)" font-size="9.950897" font-family="CMR10"><tspan y="243.61968" x="473.73405">;</tspan></text>
<text xml:space="preserve" transform="matrix(1 0 0 1 -63.281595 -51.483339)" font-size="6.965528" font-family="CMBX7" font-weight="bold"><tspan y="255.56015" x="65.68911 70.19581">13</tspan></text>
<text xml:space="preserve" transform="matrix(1 0 0 1 -63.281595 -51.483339)" font-size="9.950897" font-family="CMTI10" font-style="italic"><tspan y="255.56015" x="124.45763 128.28873 133.88114 138.45854 142.3991 142.66777 147.24518 155.37506 159.95247 165.54488 168.84857 173.42598 181.18769 183.72516 191.86499 195.9349 201.01982 209.1497 214.23462 217.53832 222.11573 227.4494 235.231 240.31592 248.45575 253.54067 257.23243 262.31733 265.3623 269.93974 277.5621 282.647 290.78684 293.3243 301.98158 306.559 310.74833 313.7933 316.8582 319.39567">Incr&#x00b4;ementerlecompteurdeproiesdelagrille</tspan></text>
<text xml:space="preserve" transform="matrix(1 0 0 1 -63.281595 -51.483339)" font-size="9.950897" font-family="CMR10"><tspan y="255.56015" x="324.7194">;</tspan></text>
<text xml:space="preserve" transform="matrix(1 0 0 1 -63.281595 -51.483339)" font-size="6.965528" font-family="CMBX7" font-weight="bold"><tspan y="268.4964" x="65.29059 69.79729">14</tspan></text>
<text xml:space="preserve" transform="matrix(1 0 0 1 -63.281595 -51.483339)" font-size="9.950897" font-family="CMBX10" font-weight="bold"><tspan y="268.4964" x="109.13427">&#xfb01;</tspan></text>
<text xml:space="preserve" transform="matrix(1 0 0 1 -63.281595 -51.483339)" font-size="9.950897" font-family="CMBX10" font-weight="bold"><tspan y="268.4964" x="115.48294">n</tspan></text>
<text xml:space="preserve" transform="matrix(1 0 0 1 -63.281595 -51.483339)" font-size="6.965528" font-family="CMBX7" font-weight="bold"><tspan y="280.4369" x="65.29059 69.79729">15</tspan></text>
<text xml:space="preserve" transform="matrix(1 0 0 1 -63.281595 -51.483339)" font-size="9.950897" font-family="CMTI10" font-style="italic"><tspan y="280.4369" x="109.13427 116.12975 116.38847 120.96589 124.010868 129.60327 132.64824 135.95194 139.02675 144.11167 146.64914 149.6941 153.75408 158.33148 166.11309 168.65056 173.22797 180.8603 183.90528 188.99019 194.32387 198.5132 206.16544 211.25035 219.39019 223.96759 228.545 232.60497 235.90866 240.99358 244.29727 247.34224 252.42716 261.59193 266.67683 274.81666 277.35414 280.3991 285.484 291.07643 294.1214 302.28114 307.36604 313.4759 313.4759 322.1232">R&#x00b4;einitialiserlesjoursdegestationdel&#x2019;animal`a0</tspan></text>
<text xml:space="preserve" transform="matrix(1 0 0 1 -63.281595 -51.483339)" font-size="9.950897" font-family="CMR10"><tspan y="280.4369" x="328.55149">;</tspan></text>
<text xml:space="preserve" transform="matrix(1 0 0 1 -63.281595 -51.483339)" font-size="6.965528" font-family="CMBX7" font-weight="bold"><tspan y="292.37739" x="65.29059 69.79729">16</tspan></text>
<text xml:space="preserve" transform="matrix(1 0 0 1 -63.281595 -51.483339)" font-size="9.950897" font-family="CMTI10" font-style="italic"><tspan y="292.37739" x="109.13427 118.05028 122.62769 125.93139 129.23509 132.93683 141.07666 141.07666 149.71405 152.75902 157.84394 163.17761 170.94927 173.48674 176.53171 181.61663 187.20903 190.254 198.41373 203.49864 209.60849 214.6934 219.77832 225.37073 232.99312 235.5306 244.18788 248.76529 252.95462 255.99959 259.06449 261.60197">Mettre`ajourl&#x2019;animaldanslagrille</tspan></text>
<text xml:space="preserve" transform="matrix(1 0 0 1 -63.281595 -51.483339)" font-size="9.950897" font-family="CMR10"><tspan y="292.37739" x="266.9257">;</tspan></text>
<text xml:space="preserve" transform="matrix(1 0 0 1 -63.281595 -51.483339)" font-size="6.965528" font-family="CMBX7" font-weight="bold"><tspan y="305.31364" x="64.893077 69.39977">17</tspan></text>
<text xml:space="preserve" transform="matrix(1 0 0 1 -63.281595 -51.483339)" font-size="9.950897" font-family="CMBX10" font-weight="bold"><tspan y="305.31364" x="93.809909 98.317668 101.492008 107.840679 113.56244">sinon</tspan></text>
<path transform="matrix(1,0,0,-1,-63.281595,-51.483339)" stroke-width=".397517" stroke-linecap="butt" stroke-miterlimit="10" stroke-linejoin="miter" fill="none" stroke="#000000" d="M98.984-332.777V-308.895"/>
<text xml:space="preserve" transform="matrix(1 0 0 1 -63.281595 -51.483339)" font-size="6.965528" font-family="CMBX7" font-weight="bold"><tspan y="317.25413" x="65.29059 69.79729">18</tspan></text>
<text xml:space="preserve" transform="matrix(1 0 0 1 -63.281595 -51.483339)" font-size="9.950897" font-family="CMTI10" font-style="italic"><tspan y="317.25413" x="109.13427 116.38848 116.6472 121.22462 126.309528 128.847 133.93192 138.01178 142.58919 150.34095 152.87842 155.92339 161.0083 166.60071 169.64568 177.8054 182.89032 188.99022 193.56763 198.14504 202.33437 209.97666 215.31034 220.90274 229.05252 233.11249 238.1974 242.25737 250.40715 254.98456 260.06947 263.11445 267.1744 270.2194 275.8118 283.97157 289.05647 292.10145 296.1614 300.75874 305.84364 311.43605 314.48103 319.05845 321.59593 329.75569 334.84059 343.73667 346.27415 354.41398 356.95146 362.03636 365.08134 369.17115 373.2311 377.80854 385.57026 389.63023 394.9639 402.73558 407.82048 410.35795 415.44285 419.51277 427.6526 431.71257 438.33988 443.42478 448.75846 453.33589 458.66957">D&#x00b4;eplacerl&#x2019;animalversunecasevoisinedisponibleoulelaissersurplacesiaucun</tspan><tspan y="329.1946" x="114.10922 118.93541 119.19413 123.771549 128.85646 131.39394 136.47885 140.55872 145.13613 153.266 157.84342 163.43582 170.31189 174.87935 177.92432 182.50173 186.56169 193.44771 198.02513 203.11005 207.17002 211.22998 214.3048 218.8822 221.41968">d&#x00b4;eplacementn&#x2019;estpossible</tspan></text>
<text xml:space="preserve" transform="matrix(1 0 0 1 -63.281595 -51.483339)" font-size="9.950897" font-family="CMR10"><tspan y="329.1946" x="226.74341">;</tspan></text>
<text xml:space="preserve" transform="matrix(1 0 0 1 -63.281595 -51.483339)" font-size="6.965528" font-family="CMBX7" font-weight="bold"><tspan y="342.12986" x="64.893077 69.39977">19</tspan></text>
<text xml:space="preserve" transform="matrix(1 0 0 1 -63.281595 -51.483339)" font-size="9.950897" font-family="CMBX10" font-weight="bold"><tspan y="342.12986" x="93.809909">&#xfb01;</tspan></text>
<text xml:space="preserve" transform="matrix(1 0 0 1 -63.281595 -51.483339)" font-size="9.950897" font-family="CMBX10" font-weight="bold"><tspan y="342.12986" x="100.15858">n</tspan></text>
<text xml:space="preserve" transform="matrix(1 0 0 1 -63.281595 -51.483339)" font-size="6.965528" font-family="CMBX7" font-weight="bold"><tspan y="355.06614" x="64.49456 69.00126">20</tspan></text>
<text xml:space="preserve" transform="matrix(1 0 0 1 -63.281595 -51.483339)" font-size="9.950897" font-family="CMBX10" font-weight="bold"><tspan y="355.06614" x="78.48654">&#xfb01;</tspan></text>
<text xml:space="preserve" transform="matrix(1 0 0 1 -63.281595 -51.483339)" font-size="9.950897" font-family="CMBX10" font-weight="bold"><tspan y="355.06614" x="84.83521">n</tspan></text>
<path transform="matrix(1,0,0,-1,-63.281595,-51.483339)" stroke-width=".796032" stroke-linecap="butt" stroke-miterlimit="10" stroke-linejoin="miter" fill="none" stroke="#000000" d="M63.562-361.035H530.992"/>
</g>
</svg>
