<svg xmlns="http://www.w3.org/2000/svg" xmlns:xlink="http://www.w3.org/1999/xlink" version="1.1" width="468.17655pt" height="418.76139pt" viewBox="0 0 468.17655 418.76139">
<g>
<path transform="matrix(1,0,0,-1,-63.281595,-51.483339)" stroke-width=".796032" stroke-linecap="butt" stroke-miterlimit="10" stroke-linejoin="miter" fill="none" stroke="#000000" d="M63.562-52.535H530.992"/>
<text xml:space="preserve" transform="matrix(1 0 0 1 -63.281595 -51.483339)" font-size="9.950897" font-family="CMBX10" font-weight="bold"><tspan y="61.834768" x="71.02362 79.67095 82.84529 88.567058 94.28882 98.99559 102.16993 106.61798 112.996509 122.529468 131.58478 141.1277">Algorithme3:</tspan></text>
<text xml:space="preserve" transform="matrix(1 0 0 1 -63.281595 -51.483339)" font-size="9.950897" font-family="CMR10"><tspan y="61.834768" x="147.62563 154.39225 159.36769 159.64632 164.06452 168.48271 174.00547 177.86641 180.65265 185.6281 194.47444 199.9972 202.75359 208.27634 217.13265 221.55084 226.79497 231.24301 233.9994 241.7412 247.26395 255.00574 260.52848 264.1506 264.4292 268.8474 274.37016 279.34559 283.20655 287.6546 293.17735">Ex&#x00b4;ecutiond&#x2019;uncycledepr&#x00b4;edateur</tspan></text>
<path transform="matrix(1,0,0,-1,-63.281595,-51.483339)" stroke-width=".796032" stroke-linecap="butt" stroke-miterlimit="10" stroke-linejoin="miter" fill="none" stroke="#000000" d="M63.562-66.156H530.992"/>
<text xml:space="preserve" transform="matrix(1 0 0 1 -63.281595 -51.483339)" font-size="9.950897" font-family="CMBX10" font-weight="bold"><tspan y="75.4562" x="78.48654 85.999469 92.04961 96.49766 100.96561 101.20442 106.44855 111.69267 120.021579">Entr&#x00b4;ees:</tspan></text>
<text xml:space="preserve" transform="matrix(1 0 0 1 -63.281595 -51.483339)" font-size="9.950897" font-family="CMR10"><tspan y="75.4562" x="126.519519 131.49497 135.38578 138.14217 140.89856 143.6848 148.103 154.18299 156.93938 159.69577 164.67122 170.19397 174.64202 180.73197 185.15016 190.12561 192.882 197.85746 203.3802 208.90296 213.32115 219.42105 224.3965 229.91925 232.67565 240.96474 245.94019">grille,ligne,colonne,animal</tspan></text>
<text xml:space="preserve" transform="matrix(1 0 0 1 -63.281595 -51.483339)" font-size="6.965528" font-family="CMBX7" font-weight="bold"><tspan y="87.396678" x="69.003078">1</tspan></text>
<text xml:space="preserve" transform="matrix(1 0 0 1 -63.281595 -51.483339)" font-size="9.950897" font-family="CMBX10" font-weight="bold"><tspan y="87.396678" x="78.48654 84.60634 84.84515 90.08928 96.43795 102.78662">d&#x00b4;ebut</tspan></text>
<path transform="matrix(1,0,0,-1,-63.281595,-51.483339)" stroke-width=".397517" stroke-linecap="butt" stroke-miterlimit="10" stroke-linejoin="miter" fill="none" stroke="#000000" d="M83.66-454.172V-90.98"/>
<text xml:space="preserve" transform="matrix(1 0 0 1 -63.281595 -51.483339)" font-size="6.965528" font-family="CMBX7" font-weight="bold"><tspan y="99.33715" x="69.40059">2</tspan></text>
<text xml:space="preserve" transform="matrix(1 0 0 1 -63.281595 -51.483339)" font-size="9.950897" font-family="CMTI10" font-style="italic"><tspan y="99.33715" x="93.809909 97.641 103.233409 107.81082 111.76133 112.02005 116.597469 124.72735 129.30477 134.89717 138.20087 142.77828 150.53998 153.07746 156.12242 156.13239 161.2173 165.79471 173.93454 179.01946 187.15929 189.69676 192.74173 197.82665 203.41905 206.46402 214.62375 219.70867 225.81851 230.39594 235.48085 243.2326 250.62613">Incr&#x00b4;ementerl&#x2019;&#x02c6;agedel&#x2019;animalparNB</tspan></text>
<path transform="matrix(1,0,0,-1,-63.281595,-51.483339)" stroke-width=".397517" stroke-linecap="butt" stroke-miterlimit="10" stroke-linejoin="miter" fill="none" stroke="#000000" d="M258.238-99.137H261.289"/>
<text xml:space="preserve" transform="matrix(1 0 0 1 -63.281595 -51.483339)" font-size="9.950897" font-family="CMTI10" font-style="italic"><tspan y="99.33715" x="261.29023 266.51445 273.76866">JRS</tspan></text>
<path transform="matrix(1,0,0,-1,-63.281595,-51.483339)" stroke-width=".397517" stroke-linecap="butt" stroke-miterlimit="10" stroke-linejoin="miter" fill="none" stroke="#000000" d="M279.977-99.137H283.027"/>
<text xml:space="preserve" transform="matrix(1 0 0 1 -63.281595 -51.483339)" font-size="9.950897" font-family="CMTI10" font-style="italic"><tspan y="99.33715" x="283.02778 289.77449 297.168 304.16349 310.9102 317.42805 324.54295">PUBERTE</tspan></text>
<path transform="matrix(1,0,0,-1,-63.281595,-51.483339)" stroke-width=".397517" stroke-linecap="butt" stroke-miterlimit="10" stroke-linejoin="miter" fill="none" stroke="#000000" d="M331.906-99.137H334.957"/>
<text xml:space="preserve" transform="matrix(1 0 0 1 -63.281595 -51.483339)" font-size="9.950897" font-family="CMTI10" font-style="italic"><tspan y="99.33715" x="334.95564 341.70234 348.95655 355.70326">PRED</tspan></text>
<text xml:space="preserve" transform="matrix(1 0 0 1 -63.281595 -51.483339)" font-size="9.950897" font-family="CMR10"><tspan y="99.33715" x="364.16154">;</tspan></text>
<text xml:space="preserve" transform="matrix(1 0 0 1 -63.281595 -51.483339)" font-size="6.965528" font-family="CMBX7" font-weight="bold"><tspan y="111.27763" x="69.40059">3</tspan></text>
<text xml:space="preserve" transform="matrix(1 0 0 1 -63.281595 -51.483339)" font-size="9.950897" font-family="CMBX10" font-weight="bold"><tspan y="111.27763" x="93.809909 98.317668">si</tspan></text>
<text xml:space="preserve" transform="matrix(1 0 0 1 -63.281595 -51.483339)" font-size="9.950897" font-family="CMTI10" font-style="italic"><tspan y="111.27763" x="104.56683 104.815608 109.39302 114.98543 119.56284 123.25463 127.83205 130.87702 139.01685 144.10176 152.25154 154.78902 157.83399 162.9189 168.5113 171.55628 179.716 184.80092">&#x00b4;energiedel&#x2019;animal</tspan></text>
<text xml:space="preserve" transform="matrix(1 0 0 1 -63.281595 -51.483339)" font-size="9.950897" font-family="CMMI10" font-style="italic"><tspan y="111.27763" x="190.89087">&#x003c;</tspan></text>
<text xml:space="preserve" transform="matrix(1 0 0 1 -63.281595 -51.483339)" font-size="9.950897" font-family="CMTI10" font-style="italic"><tspan y="111.27763" x="202.19509 211.11109 214.94219">MIN</tspan></text>
<path transform="matrix(1,0,0,-1,-63.281595,-51.483339)" stroke-width=".397517" stroke-linecap="butt" stroke-miterlimit="10" stroke-linejoin="miter" fill="none" stroke="#000000" d="M222.961-111.078H226.012"/>
<text xml:space="preserve" transform="matrix(1 0 0 1 -63.281595 -51.483339)" font-size="9.950897" font-family="CMTI10" font-style="italic"><tspan y="111.27763" x="226.0131 231.60552 238.99904 246.39257 253.50746">SANTE</tspan></text>
<path transform="matrix(1,0,0,-1,-63.281595,-51.483339)" stroke-width=".397517" stroke-linecap="butt" stroke-miterlimit="10" stroke-linejoin="miter" fill="none" stroke="#000000" d="M260.879-111.078H263.934"/>
<text xml:space="preserve" transform="matrix(1 0 0 1 -63.281595 -51.483339)" font-size="9.950897" font-family="CMTI10" font-style="italic"><tspan y="111.27763" x="263.932 270.6787 277.93293 284.67964">PRED</tspan></text>
<text xml:space="preserve" transform="matrix(1 0 0 1 -63.281595 -51.483339)" font-size="9.950897" font-family="CMBXTI10" font-weight="bold" font-style="italic"><tspan y="111.27763" x="295.76496 301.64595">ou</tspan></text>
<text xml:space="preserve" transform="matrix(1 0 0 1 -63.281595 -51.483339)" font-size="9.950897" font-family="CMTI10" font-style="italic"><tspan y="111.27763" x="311.3779 311.3779 316.4628 321.04023 329.18006 334.26496 342.39485 344.9323 347.9773 353.0622 358.6546 361.72944 369.8593 374.9442">&#x02c6;agedel&#x2019;animal</tspan></text>
<text xml:space="preserve" transform="matrix(1 0 0 1 -63.281595 -51.483339)" font-size="9.950897" font-family="CMMI10" font-style="italic"><tspan y="111.27763" x="381.05409">&#x003e;</tspan></text>
<text xml:space="preserve" transform="matrix(1 0 0 1 -63.281595 -51.483339)" font-size="9.950897" font-family="CMTI10" font-style="italic"><tspan y="111.27763" x="392.35829 401.2743 408.66783">MAX</tspan></text>
<path transform="matrix(1,0,0,-1,-63.281595,-51.483339)" stroke-width=".397517" stroke-linecap="butt" stroke-miterlimit="10" stroke-linejoin="miter" fill="none" stroke="#000000" d="M416.68-111.078H419.73"/>
<text xml:space="preserve" transform="matrix(1 0 0 1 -63.281595 -51.483339)" font-size="9.950897" font-family="CMTI10" font-style="italic"><tspan y="111.27763" x="419.7305 426.8653 434.55735">AGE</tspan></text>
<path transform="matrix(1,0,0,-1,-63.281595,-51.483339)" stroke-width=".397517" stroke-linecap="butt" stroke-miterlimit="10" stroke-linejoin="miter" fill="none" stroke="#000000" d="M441.93-111.078H444.98"/>
<text xml:space="preserve" transform="matrix(1 0 0 1 -63.281595 -51.483339)" font-size="9.950897" font-family="CMTI10" font-style="italic"><tspan y="111.27763" x="444.98179 451.7285 458.9827 465.7294">PRED</tspan></text>
<text xml:space="preserve" transform="matrix(1 0 0 1 -63.281595 -51.483339)" font-size="9.950897" font-family="CMBX10" font-weight="bold"><tspan y="111.27763" x="477.5013 483.06388 486.23823 491.96 496.66679">alors</tspan></text>
<path transform="matrix(1,0,0,-1,-63.281595,-51.483339)" stroke-width=".397517" stroke-linecap="butt" stroke-miterlimit="10" stroke-linejoin="miter" fill="none" stroke="#000000" d="M98.984-150.684V-114.859"/>
<text xml:space="preserve" transform="matrix(1 0 0 1 -63.281595 -51.483339)" font-size="6.965528" font-family="CMBX7" font-weight="bold"><tspan y="123.21811" x="69.79911">4</tspan></text>
<text xml:space="preserve" transform="matrix(1 0 0 1 -63.281595 -51.483339)" font-size="9.950897" font-family="CMTI10" font-style="italic"><tspan y="123.21811" x="109.13427 118.05028 122.62769 125.93139 129.23509 132.93683 141.07666 143.61414 152.25153 156.32144 161.40636 165.46633 173.6161 177.67607 180.21355 183.28836 187.86577 193.45818 198.03559 204.65293 208.72284 213.80776 216.34523 221.43015 227.02256 232.61496 237.19237 244.8247 249.90962 258.04945 260.5869 269.23423 273.81166 278.00099 281.04597 284.1208 286.65827 294.7981 294.78816 303.43547 308.01289 311.05787 316.14277">Mettrelacase(ligne,colonne)delagrille`avide</tspan></text>
<text xml:space="preserve" transform="matrix(1 0 0 1 -63.281595 -51.483339)" font-size="9.950897" font-family="CMR10"><tspan y="123.21811" x="321.47645">;</tspan></text>
<text xml:space="preserve" transform="matrix(1 0 0 1 -63.281595 -51.483339)" font-size="6.965528" font-family="CMBX7" font-weight="bold"><tspan y="135.15958" x="69.79911">5</tspan></text>
<text xml:space="preserve" transform="matrix(1 0 0 1 -63.281595 -51.483339)" font-size="9.950897" font-family="CMTI10" font-style="italic"><tspan y="135.15958" x="109.13427 116.38848 116.6472 121.22462 125.80203 129.74259 130.00131 134.57872 142.7086 147.28601 152.87842 156.18212 160.75952 168.52123 171.0587 179.19853 183.26845 188.35337 196.48325 201.56816 204.87186 209.44927 214.78295 222.56455 227.64946 235.78929 240.8742 244.81476 245.06354 249.64095 254.72586 259.81077 263.11448 267.6919 273.02558 277.2149 284.86717 289.95207 298.0919 300.62937 309.27668 313.8541 318.04344 321.0884 324.1533 326.69078">D&#x00b4;ecr&#x00b4;ementerlecompteurdepr&#x00b4;edateursdelagrille</tspan></text>
<text xml:space="preserve" transform="matrix(1 0 0 1 -63.281595 -51.483339)" font-size="9.950897" font-family="CMR10"><tspan y="135.15958" x="332.0145">;</tspan></text>
<text xml:space="preserve" transform="matrix(1 0 0 1 -63.281595 -51.483339)" font-size="6.965528" font-family="CMBX7" font-weight="bold"><tspan y="147.10007" x="69.79911">6</tspan></text>
<text xml:space="preserve" transform="matrix(1 0 0 1 -63.281595 -51.483339)" font-size="9.950897" font-family="CMBX10" font-weight="bold"><tspan y="147.10007" x="109.13427 113.84104 119.08517 123.53322 129.25499 135.60367 140.31044 146.68897 151.93309">retourner</tspan></text>
<text xml:space="preserve" transform="matrix(1 0 0 1 -63.281595 -51.483339)" font-size="6.965528" font-family="CMBX7" font-weight="bold"><tspan y="160.03533" x="69.40059">7</tspan></text>
<text xml:space="preserve" transform="matrix(1 0 0 1 -63.281595 -51.483339)" font-size="9.950897" font-family="CMBX10" font-weight="bold"><tspan y="160.03533" x="93.809909">&#xfb01;</tspan></text>
<text xml:space="preserve" transform="matrix(1 0 0 1 -63.281595 -51.483339)" font-size="9.950897" font-family="CMBX10" font-weight="bold"><tspan y="160.03533" x="100.15858">n</tspan></text>
<text xml:space="preserve" transform="matrix(1 0 0 1 -63.281595 -51.483339)" font-size="6.965528" font-family="CMBX7" font-weight="bold"><tspan y="171.9758" x="69.40059">8</tspan></text>
<text xml:space="preserve" transform="matrix(1 0 0 1 -63.281595 -51.483339)" font-size="9.950897" font-family="CMTI10" font-style="italic"><tspan y="171.9758" x="93.809909 100.9248 106.009708 110.58712 114.27891 118.85632 123.94123 128.51865 136.28035 141.61403 150.76886 155.34627 160.43119 163.47615 167.53612 170.61093 179.76576 184.85068 190.18436 193.48805 198.57297 203.90665 211.6783 216.76322 224.90305 227.44052 236.08786 240.15778 245.24269 249.30266 257.45246 261.51243 264.0499 267.09489 271.6723 277.2647 281.84214 288.4794 292.54933 297.63423 300.1717 305.2566 310.849 316.4414 321.01884 328.65119 333.2286 338.5623 345.1896 349.25953 354.34443 359.93684 363.24055 366.28553 370.86296 376.45536 383.33143 388.6651 394.2575 402.39735 407.48225 411.174 416.2589 419.3039">Chercherunvoisinautourdelacase(ligne,colonne)quicontientuneproie</tspan></text>
<text xml:space="preserve" transform="matrix(1 0 0 1 -63.281595 -51.483339)" font-size="9.950897" font-family="CMR10"><tspan y="171.9758" x="424.62763">;</tspan></text>
<text xml:space="preserve" transform="matrix(1 0 0 1 -63.281595 -51.483339)" font-size="6.965528" font-family="CMBX7" font-weight="bold"><tspan y="183.91728" x="69.40059">9</tspan></text>
<text xml:space="preserve" transform="matrix(1 0 0 1 -63.281595 -51.483339)" font-size="9.950897" font-family="CMBX10" font-weight="bold"><tspan y="183.91728" x="93.809909 98.317668">si</tspan></text>
<text xml:space="preserve" transform="matrix(1 0 0 1 -63.281595 -51.483339)" font-size="9.950897" font-family="CMTI10" font-style="italic"><tspan y="183.91728" x="104.815608 107.86058 113.98038 118.55779 123.165058 126.21003 130.26999 133.57369 141.72347 147.05715 156.22193 160.79933 165.88425 168.92922 172.98918 176.064 185.21883 190.30374 194.88115 198.95107 207.0909 212.42458 218.01699 226.15682 231.24173 234.93352 240.01844 243.0634">ilexisteunvoisinavecuneproie</tspan></text>
<text xml:space="preserve" transform="matrix(1 0 0 1 -63.281595 -51.483339)" font-size="9.950897" font-family="CMBX10" font-weight="bold"><tspan y="183.91728" x="251.71073 257.2733 260.44764 266.1694 270.8762">alors</tspan></text>
<path transform="matrix(1,0,0,-1,-63.281595,-51.483339)" stroke-width=".397517" stroke-linecap="butt" stroke-miterlimit="10" stroke-linejoin="miter" fill="none" stroke="#000000" d="M98.984-392.48V-187.5"/>
<text xml:space="preserve" transform="matrix(1 0 0 1 -63.281595 -51.483339)" font-size="6.965528" font-family="CMBX7" font-weight="bold"><tspan y="195.85776" x="65.29059 69.79729">10</tspan></text>
<text xml:space="preserve" transform="matrix(1 0 0 1 -63.281595 -51.483339)" font-size="9.950897" font-family="CMTI10" font-style="italic"><tspan y="195.85776" x="109.13427 118.05028 122.62769 125.93139 129.23509 132.93683 141.07666 143.61414 152.25153 156.32144 161.40636 165.46633 173.6161 178.70102 187.60707 192.18448 197.2694 200.31436 204.37433 207.44915 216.59403 216.59403 225.24137 227.77884 230.58499 230.83377 235.41118 238.71488 243.79979 250.67586 255.76078 263.9006 268.9855 272.92607 273.1748 277.75224 282.83714 287.92204 291.22575 295.80317 301.13685">Mettrelacaseduvoisin`al&#x2019;&#x00b4;etatdepr&#x00b4;edateur</tspan></text>
<text xml:space="preserve" transform="matrix(1 0 0 1 -63.281595 -51.483339)" font-size="9.950897" font-family="CMR10"><tspan y="195.85776" x="306.41084">;</tspan></text>
<text xml:space="preserve" transform="matrix(1 0 0 1 -63.281595 -51.483339)" font-size="6.965528" font-family="CMBX7" font-weight="bold"><tspan y="207.79824" x="65.29059 69.79729">11</tspan></text>
<text xml:space="preserve" transform="matrix(1 0 0 1 -63.281595 -51.483339)" font-size="9.950897" font-family="CMTI10" font-style="italic"><tspan y="207.79824" x="109.13427 118.05028 122.62769 125.93139 129.23509 132.93683 141.07666 143.61414 152.25153 156.32144 161.40636 165.46633 173.6161 177.67607 180.21355 183.28836 187.86577 193.45818 198.03559 204.65293 208.72284 213.80776 216.34523 221.43015 227.02256 232.61496 237.19237 244.8247 249.90962 258.04945 260.5869 269.23423 273.81166 278.00099 281.04597 284.1208 286.65827 294.7981 294.78816 303.43547 308.01289 311.05787 316.14277">Mettrelacase(ligne,colonne)delagrille`avide</tspan></text>
<text xml:space="preserve" transform="matrix(1 0 0 1 -63.281595 -51.483339)" font-size="9.950897" font-family="CMR10"><tspan y="207.79824" x="321.47645">;</tspan></text>
<text xml:space="preserve" transform="matrix(1 0 0 1 -63.281595 -51.483339)" font-size="6.965528" font-family="CMBX7" font-weight="bold"><tspan y="219.73871" x="65.29059 69.79729">12</tspan></text>
<text xml:space="preserve" transform="matrix(1 0 0 1 -63.281595 -51.483339)" font-size="9.950897" font-family="CMTI10" font-style="italic"><tspan y="219.73871" x="109.13427 115.88098 120.4584 126.050807 131.13571 134.8275 142.96733 145.5048 148.54978 153.63469 159.2271 162.27207 170.40195 175.51671 181.61661 187.20902 192.29393 201.45871 206.54363 209.5886 213.64856 218.24588 223.3308 228.9232 231.96817 236.54558 239.08306 247.23284 251.80031 256.88523 262.2189 269.99058 274.8267 275.07545 279.65287 284.73777 287.27525 292.36015 296.44 301.01744 309.1473 313.72474 319.31715">Rendrel&#x2019;animalnondisponiblepourd&#x00b4;eplacement</tspan></text>
<text xml:space="preserve" transform="matrix(1 0 0 1 -63.281595 -51.483339)" font-size="9.950897" font-family="CMR10"><tspan y="219.73871" x="323.5662">;</tspan></text>
<text xml:space="preserve" transform="matrix(1 0 0 1 -63.281595 -51.483339)" font-size="6.965528" font-family="CMBX7" font-weight="bold"><tspan y="231.6792" x="65.29059 69.79729">13</tspan></text>
<text xml:space="preserve" transform="matrix(1 0 0 1 -63.281595 -51.483339)" font-size="9.950897" font-family="CMTI10" font-style="italic"><tspan y="231.6792" x="109.13427 116.52779 119.57276 124.65767 129.99135 133.29505 137.87245 145.65406 153.04758 158.2718 165.8942 173.28772">AjouterAJOUT</tspan></text>
<path transform="matrix(1,0,0,-1,-63.281595,-51.483339)" stroke-width=".397517" stroke-linecap="butt" stroke-miterlimit="10" stroke-linejoin="miter" fill="none" stroke="#000000" d="M181.023-231.48H184.074"/>
<text xml:space="preserve" transform="matrix(1 0 0 1 -63.281595 -51.483339)" font-size="9.950897" font-family="CMTI10" font-style="italic"><tspan y="231.6792" x="184.07413 190.82083 198.21436 204.96106 211.97646 219.6685 223.4996 233.81868 233.81868 242.46602 245.0035 247.79969 248.05841 252.63582 258.2282 262.80564 266.4974 271.07484 274.1198 282.25965 287.34455 295.48439 298.02186 301.06684 306.15174 311.74415 314.78913 322.94886 328.03376">ENERGIE`al&#x2019;&#x00b4;energiedel&#x2019;animal</tspan></text>
<text xml:space="preserve" transform="matrix(1 0 0 1 -63.281595 -51.483339)" font-size="9.950897" font-family="CMR10"><tspan y="231.6792" x="331.6061">;</tspan></text>
<text xml:space="preserve" transform="matrix(1 0 0 1 -63.281595 -51.483339)" font-size="6.965528" font-family="CMBX7" font-weight="bold"><tspan y="243.61968" x="65.29059 69.79729">14</tspan></text>
<text xml:space="preserve" transform="matrix(1 0 0 1 -63.281595 -51.483339)" font-size="9.950897" font-family="CMTI10" font-style="italic"><tspan y="243.61968" x="109.13427 118.05028 122.62769 125.93139 129.23509 132.93683 141.07666 141.07666 149.71405 152.75902 157.84394 163.17761 170.94927 173.48674 176.53171 181.61663 187.20903 190.254 198.41373 203.49864 209.60849 214.6934 219.77832 225.37073 232.99312 235.5306 244.18788 248.2578 253.34272 257.40269 265.5525 270.6374 279.54347 284.12089 289.20579 292.25077 296.31074 299.3557">Mettre`ajourl&#x2019;animaldanslacaseduvoisin</tspan></text>
<text xml:space="preserve" transform="matrix(1 0 0 1 -63.281595 -51.483339)" font-size="9.950897" font-family="CMR10"><tspan y="243.61968" x="305.7243">;</tspan></text>
<text xml:space="preserve" transform="matrix(1 0 0 1 -63.281595 -51.483339)" font-size="6.965528" font-family="CMBX7" font-weight="bold"><tspan y="255.56015" x="65.29059 69.79729">15</tspan></text>
<text xml:space="preserve" transform="matrix(1 0 0 1 -63.281595 -51.483339)" font-size="9.950897" font-family="CMTI10" font-style="italic"><tspan y="255.56015" x="109.13427 116.38848 116.6472 121.22462 125.80203 129.74259 130.00131 134.57872 142.7086 147.28601 152.87842 156.18212 160.75952 168.52123 171.0587 179.19853 183.26845 188.35337 196.48325 201.56816 204.87186 209.44927 214.78295 222.56455 227.64946 235.78929 240.8742 244.55605 249.64096 252.68593 257.26335 264.90565 269.99055 278.13038 280.66786 289.31517 293.89259 298.0819 301.1269 304.19178 306.72926">D&#x00b4;ecr&#x00b4;ementerlecompteurdeproiesdelagrille</tspan></text>
<text xml:space="preserve" transform="matrix(1 0 0 1 -63.281595 -51.483339)" font-size="9.950897" font-family="CMR10"><tspan y="255.56015" x="312.05299">;</tspan></text>
<text xml:space="preserve" transform="matrix(1 0 0 1 -63.281595 -51.483339)" font-size="6.965528" font-family="CMBX7" font-weight="bold"><tspan y="267.50163" x="65.29059 69.79729">16</tspan></text>
<text xml:space="preserve" transform="matrix(1 0 0 1 -63.281595 -51.483339)" font-size="9.950897" font-family="CMBX10" font-weight="bold"><tspan y="267.50163" x="109.13427 112.30861">if</tspan></text>
<text xml:space="preserve" transform="matrix(1 0 0 1 -63.281595 -51.483339)" font-size="9.950897" font-family="CMTI10" font-style="italic"><tspan y="267.50163" x="120.209629 120.209629 125.29453 129.87195 138.01178 143.0967 151.22658 153.76406 156.80902 161.89394 167.48635 170.56116 178.69104 183.77596">&#x02c6;agedel&#x2019;animal</tspan></text>
<text xml:space="preserve" transform="matrix(1 0 0 1 -63.281595 -51.483339)" font-size="9.950897" font-family="CMSY10" font-style="italic"><tspan y="267.50163" x="189.8858">&#x2265;</tspan></text>
<text xml:space="preserve" transform="matrix(1 0 0 1 -63.281595 -51.483339)" font-size="9.950897" font-family="CMTI10" font-style="italic"><tspan y="267.50163" x="201.19002 208.58354">NB</tspan></text>
<path transform="matrix(1,0,0,-1,-63.281595,-51.483339)" stroke-width=".397517" stroke-linecap="butt" stroke-miterlimit="10" stroke-linejoin="miter" fill="none" stroke="#000000" d="M216.195-267.301H219.246"/>
<text xml:space="preserve" transform="matrix(1 0 0 1 -63.281595 -51.483339)" font-size="9.950897" font-family="CMTI10" font-style="italic"><tspan y="267.50163" x="219.24834 224.47257 231.72678">JRS</tspan></text>
<path transform="matrix(1,0,0,-1,-63.281595,-51.483339)" stroke-width=".397517" stroke-linecap="butt" stroke-miterlimit="10" stroke-linejoin="miter" fill="none" stroke="#000000" d="M237.934-267.301H240.984"/>
<text xml:space="preserve" transform="matrix(1 0 0 1 -63.281595 -51.483339)" font-size="9.950897" font-family="CMTI10" font-style="italic"><tspan y="267.50163" x="240.9859 247.7326 255.12613 262.1216 268.86833 275.38618 282.50108">PUBERTE</tspan></text>
<path transform="matrix(1,0,0,-1,-63.281595,-51.483339)" stroke-width=".397517" stroke-linecap="butt" stroke-miterlimit="10" stroke-linejoin="miter" fill="none" stroke="#000000" d="M289.863-267.301H292.914"/>
<text xml:space="preserve" transform="matrix(1 0 0 1 -63.281595 -51.483339)" font-size="9.950897" font-family="CMTI10" font-style="italic"><tspan y="267.50163" x="292.91377 299.66047 306.91468 313.66139">PRED</tspan></text>
<text xml:space="preserve" transform="matrix(1 0 0 1 -63.281595 -51.483339)" font-size="9.950897" font-family="CMBXTI10" font-weight="bold" font-style="italic"><tspan y="267.50163" x="324.7467 330.0406">et</tspan></text>
<text xml:space="preserve" transform="matrix(1 0 0 1 -63.281595 -51.483339)" font-size="9.950897" font-family="CMTI10" font-style="italic"><tspan y="267.50163" x="337.43409 340.47908 345.56398 350.89765 355.08699 362.73924 367.82414 375.954 380.53144 385.10887 389.16883 392.47254 397.55744 400.86116 403.90614 408.99104 418.16578 423.25068 431.3905 433.92799 436.97297 442.05787 447.65028 450.7251 458.85499 463.93989">joursdegestationdel&#x2019;animal</tspan></text>
<text xml:space="preserve" transform="matrix(1 0 0 1 -63.281595 -51.483339)" font-size="9.950897" font-family="CMSY10" font-style="italic"><tspan y="267.50163" x="470.03977">&#x2265;</tspan></text>
<text xml:space="preserve" transform="matrix(1 0 0 1 -63.281595 -51.483339)" font-size="9.950897" font-family="CMTI10" font-style="italic"><tspan y="279.4421" x="114.10924 121.502758">NB</tspan></text>
<path transform="matrix(1,0,0,-1,-63.281595,-51.483339)" stroke-width=".397517" stroke-linecap="butt" stroke-miterlimit="10" stroke-linejoin="miter" fill="none" stroke="#000000" d="M129.121-279.242H132.172"/>
<text xml:space="preserve" transform="matrix(1 0 0 1 -63.281595 -51.483339)" font-size="9.950897" font-family="CMTI10" font-style="italic"><tspan y="279.4421" x="132.17125 137.39548 144.64969">JRS</tspan></text>
<path transform="matrix(1,0,0,-1,-63.281595,-51.483339)" stroke-width=".397517" stroke-linecap="butt" stroke-miterlimit="10" stroke-linejoin="miter" fill="none" stroke="#000000" d="M150.859-279.242H153.91"/>
<text xml:space="preserve" transform="matrix(1 0 0 1 -63.281595 -51.483339)" font-size="9.950897" font-family="CMTI10" font-style="italic"><tspan y="279.4421" x="153.9098 161.60186 168.34856 173.94097 180.30954 186.9468 194.06169 197.89279 205.51519">GESTATION</tspan></text>
<path transform="matrix(1,0,0,-1,-63.281595,-51.483339)" stroke-width=".397517" stroke-linecap="butt" stroke-miterlimit="10" stroke-linejoin="miter" fill="none" stroke="#000000" d="M213.535-279.242H216.586"/>
<text xml:space="preserve" transform="matrix(1 0 0 1 -63.281595 -51.483339)" font-size="9.950897" font-family="CMTI10" font-style="italic"><tspan y="279.4421" x="216.58658 223.33329 230.5875 237.3342">PRED</tspan></text>
<text xml:space="preserve" transform="matrix(1 0 0 1 -63.281595 -51.483339)" font-size="9.950897" font-family="CMBX10" font-weight="bold"><tspan y="279.4421" x="249.10611 253.55417 259.90284 265.14695">then</tspan></text>
<path transform="matrix(1,0,0,-1,-63.281595,-51.483339)" stroke-width=".397517" stroke-linecap="butt" stroke-miterlimit="10" stroke-linejoin="miter" fill="none" stroke="#000000" d="M114.309-379.543V-283.023"/>
<text xml:space="preserve" transform="matrix(1 0 0 1 -63.281595 -51.483339)" font-size="6.965528" font-family="CMBX7" font-weight="bold"><tspan y="291.38258" x="65.68911 70.19581">17</tspan></text>
<text xml:space="preserve" transform="matrix(1 0 0 1 -63.281595 -51.483339)" font-size="9.950897" font-family="CMTI10" font-style="italic"><tspan y="291.38258" x="124.45763 131.57253 136.65744 141.23485 144.92664 149.50405 154.58896 159.16637 166.92807 172.26175 181.41658 185.99399 191.0789 194.12387 198.18384 201.25865 210.41349 215.4984 220.83208 224.13578 229.22069 234.55437 242.32602 247.41094 256.317 261.9094 266.9943 272.32798 276.9054 280.9753 286.0602 294.96626 299.54368 307.67356 312.75846 315.29594 320.38084 324.4607 329.03813 337.168 341.74543 347.33784 354.22389 359.30879 367.4486 369.98609 373.03108 378.11598 383.70838 386.75337 394.88325 399.96815 406.0979 410.67533 416.009 422.62635 427.20378 431.26374 438.13984 442.71726 445.76225 450.84715">Chercherunvoisinautourdunouveauemplacementdel&#x2019;animalquiestvide</tspan></text>
<text xml:space="preserve" transform="matrix(1 0 0 1 -63.281595 -51.483339)" font-size="9.950897" font-family="CMR10"><tspan y="291.38258" x="456.16093">;</tspan></text>
<text xml:space="preserve" transform="matrix(1 0 0 1 -63.281595 -51.483339)" font-size="6.965528" font-family="CMBX7" font-weight="bold"><tspan y="303.32307" x="65.68911 70.19581">18</tspan></text>
<text xml:space="preserve" transform="matrix(1 0 0 1 -63.281595 -51.483339)" font-size="9.950897" font-family="CMBX10" font-weight="bold"><tspan y="303.32307" x="124.45763 127.631969">if</tspan></text>
<text xml:space="preserve" transform="matrix(1 0 0 1 -63.281595 -51.483339)" font-size="9.950897" font-family="CMTI10" font-style="italic"><tspan y="303.32307" x="135.53298 138.57794 144.68779 149.2652 153.87247 156.91744 161.00725 164.31095 172.44083 177.7745 186.93929 191.5167 196.60161 199.64658 203.70655 206.75151 215.93619 220.5136 223.55857 228.64348">ilexisteunvoisinvide</tspan></text>
<text xml:space="preserve" transform="matrix(1 0 0 1 -63.281595 -51.483339)" font-size="9.950897" font-family="CMBX10" font-weight="bold"><tspan y="303.32307" x="237.28086 241.72891 248.07759 253.32172">then</tspan></text>
<path transform="matrix(1,0,0,-1,-63.281595,-51.483339)" stroke-width=".397517" stroke-linecap="butt" stroke-miterlimit="10" stroke-linejoin="miter" fill="none" stroke="#000000" d="M129.633-342.727V-306.906"/>
<text xml:space="preserve" transform="matrix(1 0 0 1 -63.281595 -51.483339)" font-size="6.965528" font-family="CMBX7" font-weight="bold"><tspan y="315.26353" x="66.086627 70.59332">19</tspan></text>
<text xml:space="preserve" transform="matrix(1 0 0 1 -63.281595 -51.483339)" font-size="9.950897" font-family="CMTI10" font-style="italic"><tspan y="315.26353" x="139.782 148.698 153.2754 156.5791 159.8828 163.58454 171.72437 174.26184 182.39173 186.96913 192.05405 195.09902 199.15898 202.2338 211.38863 215.96604 219.011 224.09592 232.2457 232.2457 240.88309 243.42057 246.22672 246.4755 251.0529 254.3566 259.4415 266.31758 271.40248 279.5423 284.6272 288.56776 288.82649 293.4039 298.4888 303.5737 306.8774 311.45484 316.7885">Mettrelevoisinvide`al&#x2019;&#x00b4;etatdepr&#x00b4;edateur</tspan></text>
<text xml:space="preserve" transform="matrix(1 0 0 1 -63.281595 -51.483339)" font-size="9.950897" font-family="CMR10"><tspan y="315.26353" x="322.05256">;</tspan></text>
<text xml:space="preserve" transform="matrix(1 0 0 1 -63.281595 -51.483339)" font-size="6.965528" font-family="CMBX7" font-weight="bold"><tspan y="327.204" x="66.086627 70.59332">20</tspan></text>
<text xml:space="preserve" transform="matrix(1 0 0 1 -63.281595 -51.483339)" font-size="9.950897" font-family="CMTI10" font-style="italic"><tspan y="327.204" x="139.782 143.6131 149.2055 152.25048 155.55417 158.59914 163.68405 166.25138 169.29634 173.35631 177.93372 185.70537 188.24285 196.38268 200.7113 200.96009 205.53749 209.86612 210.1149 218.25473 223.33965 227.2802 227.53893 232.11634 237.20125 242.28617 245.58986 250.16727 255.50095 263.26264 268.34754 272.92497 276.99488 285.1347 290.2196 294.79704 302.42939 307.0068 312.0917 314.62919 319.2066 324.54029 328.7296 336.38188 340.9493 346.0342 353.7959 358.63203 358.88078 363.4582 366.50318 371.58808 376.92176 383.8078 388.38523 395.25135 397.78883 405.92866 411.01356 413.55104 418.63594 422.70585 427.28327 435.04499 440.12989 445.21479 450.8072 458.4395 460.977 469.63429 473.69425 478.77915 482.8391 490.9889 495.5663 498.6113 503.6962">Initialiserleb&#x00b4;eb&#x00b4;epr&#x00b4;edateuravecdesvaleurspard&#x00b4;efautetleplacerdanslacasevide</tspan></text>
<text xml:space="preserve" transform="matrix(1 0 0 1 -63.281595 -51.483339)" font-size="9.950897" font-family="CMR10"><tspan y="327.204" x="509.01994">;</tspan></text>
<text xml:space="preserve" transform="matrix(1 0 0 1 -63.281595 -51.483339)" font-size="6.965528" font-family="CMBX7" font-weight="bold"><tspan y="339.14549" x="66.086627 70.59332">21</tspan></text>
<text xml:space="preserve" transform="matrix(1 0 0 1 -63.281595 -51.483339)" font-size="9.950897" font-family="CMTI10" font-style="italic"><tspan y="339.14549" x="139.782 143.6131 149.2055 153.78292 157.72347 157.99214 162.56955 170.69944 175.27684 180.86925 184.17295 188.75035 196.51206 199.04953 207.18936 211.25928 216.3442 224.47408 229.55899 232.86269 237.4401 242.77378 250.55538 255.64029 263.78013 268.86503 272.80558 273.0643 277.64173 282.72663 287.81153 291.11524 295.69267 301.02635 305.21568 312.84803 317.93293 326.07276 328.61024 337.26753 341.84495 346.03428 349.07926 352.14414 354.6816">Incr&#x00b4;ementerlecompteurdepr&#x00b4;edateursdelagrille</tspan></text>
<text xml:space="preserve" transform="matrix(1 0 0 1 -63.281595 -51.483339)" font-size="9.950897" font-family="CMR10"><tspan y="339.14549" x="360.00535">;</tspan></text>
<text xml:space="preserve" transform="matrix(1 0 0 1 -63.281595 -51.483339)" font-size="6.965528" font-family="CMBX7" font-weight="bold"><tspan y="352.08076" x="65.68911 70.19581">22</tspan></text>
<text xml:space="preserve" transform="matrix(1 0 0 1 -63.281595 -51.483339)" font-size="9.950897" font-family="CMBX10" font-weight="bold"><tspan y="352.08076" x="124.45763 129.70175 136.05043">end</tspan></text>
<text xml:space="preserve" transform="matrix(1 0 0 1 -63.281595 -51.483339)" font-size="6.965528" font-family="CMBX7" font-weight="bold"><tspan y="364.02125" x="65.68911 70.19581">23</tspan></text>
<text xml:space="preserve" transform="matrix(1 0 0 1 -63.281595 -51.483339)" font-size="9.950897" font-family="CMTI10" font-style="italic"><tspan y="364.02125" x="124.45763 131.45311 131.71184 136.28925 139.33422 144.92662 147.97159 151.27529 154.3501 159.43502 161.97249 165.01746 169.07743 173.65483 181.43643 183.9739 188.55132 196.1737 199.21868 204.30359 209.63727 213.85645 221.48879 226.5737 234.71353 239.29094 243.86835 247.92832 251.23201 256.31694 259.62065 262.66563 267.75053 276.92527 282.01017 290.14006 292.67753 295.7225 300.8074 306.3998 309.4448 317.60453 322.68943 328.79927 328.79927 337.44657">R&#x00b4;einitialiserlesjoursdegestationdel&#x2019;animal`a0</tspan></text>
<text xml:space="preserve" transform="matrix(1 0 0 1 -63.281595 -51.483339)" font-size="9.950897" font-family="CMR10"><tspan y="364.02125" x="343.87486">;</tspan></text>
<text xml:space="preserve" transform="matrix(1 0 0 1 -63.281595 -51.483339)" font-size="6.965528" font-family="CMBX7" font-weight="bold"><tspan y="375.9617" x="65.68911 70.19581">24</tspan></text>
<text xml:space="preserve" transform="matrix(1 0 0 1 -63.281595 -51.483339)" font-size="9.950897" font-family="CMTI10" font-style="italic"><tspan y="375.9617" x="124.45763 133.37363 137.95104 141.25473 144.55843 148.26016 156.4 156.4 165.03739 168.08235 173.16727 178.50095 186.2726 188.81008 191.85504 196.93996 202.53237 205.57733 213.73706 218.82198 224.93183 230.01674 235.10166 240.69406 248.31645 250.85393 259.51124 264.08866 268.27799 271.32298 274.38786 276.92533">Mettre`ajourl&#x2019;animaldanslagrille</tspan></text>
<text xml:space="preserve" transform="matrix(1 0 0 1 -63.281595 -51.483339)" font-size="9.950897" font-family="CMR10"><tspan y="375.9617" x="282.24906">;</tspan></text>
<text xml:space="preserve" transform="matrix(1 0 0 1 -63.281595 -51.483339)" font-size="6.965528" font-family="CMBX7" font-weight="bold"><tspan y="388.89799" x="65.29059 69.79729">25</tspan></text>
<text xml:space="preserve" transform="matrix(1 0 0 1 -63.281595 -51.483339)" font-size="9.950897" font-family="CMBX10" font-weight="bold"><tspan y="388.89799" x="109.13427 114.378398 120.727069">end</tspan></text>
<text xml:space="preserve" transform="matrix(1 0 0 1 -63.281595 -51.483339)" font-size="6.965528" font-family="CMBX7" font-weight="bold"><tspan y="401.83326" x="64.893077 69.39977">26</tspan></text>
<text xml:space="preserve" transform="matrix(1 0 0 1 -63.281595 -51.483339)" font-size="9.950897" font-family="CMBX10" font-weight="bold"><tspan y="401.83326" x="93.809909 98.317668 101.492008 107.840679 113.56244">sinon</tspan></text>
<path transform="matrix(1,0,0,-1,-63.281595,-51.483339)" stroke-width=".397517" stroke-linecap="butt" stroke-miterlimit="10" stroke-linejoin="miter" fill="none" stroke="#000000" d="M98.984-441.238V-405.414"/>
<text xml:space="preserve" transform="matrix(1 0 0 1 -63.281595 -51.483339)" font-size="6.965528" font-family="CMBX7" font-weight="bold"><tspan y="413.7737" x="65.29059 69.79729">27</tspan></text>
<text xml:space="preserve" transform="matrix(1 0 0 1 -63.281595 -51.483339)" font-size="9.950897" font-family="CMTI10" font-style="italic"><tspan y="413.7737" x="109.13427 116.38848 116.6472 121.22462 125.80203 129.74259 130.00131 134.57872 142.7086 147.28601 152.87842 156.18212 160.75952 168.52123 171.0587 173.86486 174.11363 178.69104 184.28345 188.86086 192.55265 197.13005 200.17502 208.3248 213.40972 221.54955 224.08702 227.13199 232.2169 237.80931 240.85428 249.014 254.09893 260.19883 265.28373 273.42356">D&#x00b4;ecr&#x00b4;ementerl&#x2019;&#x00b4;energiedel&#x2019;animalde1</tspan></text>
<text xml:space="preserve" transform="matrix(1 0 0 1 -63.281595 -51.483339)" font-size="9.950897" font-family="CMR10"><tspan y="413.7737" x="279.85185">;</tspan></text>
<text xml:space="preserve" transform="matrix(1 0 0 1 -63.281595 -51.483339)" font-size="6.965528" font-family="CMBX7" font-weight="bold"><tspan y="425.7152" x="65.29059 69.79729">28</tspan></text>
<text xml:space="preserve" transform="matrix(1 0 0 1 -63.281595 -51.483339)" font-size="9.950897" font-family="CMTI10" font-style="italic"><tspan y="425.7152" x="109.13427 116.38848 116.6472 121.22462 126.309528 128.847 133.93192 138.01178 142.58919 150.34095 152.87842 155.92339 161.0083 166.60071 169.64568 177.8054 182.89032 188.99022 193.56763 198.14504 202.33437 209.97666 215.31034 220.90274 229.05252 233.11249 238.1974 242.25737 250.40715 254.98456 260.06947 263.11445 267.1744 270.2194 275.8118 283.97157 289.05647 292.10145 296.1614 300.75874 305.84364 311.43605 314.48103 319.05845 321.59593 329.75569 334.84059 343.73667 346.27415 354.41398 356.95146 362.03636 365.08134 369.17115 373.2311 377.80854 385.57026 389.63023 394.9639 402.73558 407.82048 410.35795 415.44285 419.51277 427.6526 431.71257 438.33988 443.42478 448.75846 453.33589 458.66957">D&#x00b4;eplacerl&#x2019;animalversunecasevoisinedisponibleoulelaissersurplacesiaucun</tspan><tspan y="437.6557" x="114.10922 118.93541 119.19413 123.771549 128.85646 131.39394 136.47885 140.55872 145.13613 153.266 157.84342 163.43582 170.31189 174.87935 177.92432 182.50173 186.56169 193.44771 198.02513 203.11005 207.17002 211.22998 214.3048 218.8822 221.41968">d&#x00b4;eplacementn&#x2019;estpossible</tspan></text>
<text xml:space="preserve" transform="matrix(1 0 0 1 -63.281595 -51.483339)" font-size="9.950897" font-family="CMR10"><tspan y="437.6557" x="226.74341">;</tspan></text>
<text xml:space="preserve" transform="matrix(1 0 0 1 -63.281595 -51.483339)" font-size="6.965528" font-family="CMBX7" font-weight="bold"><tspan y="450.59095" x="64.893077 69.39977">29</tspan></text>
<text xml:space="preserve" transform="matrix(1 0 0 1 -63.281595 -51.483339)" font-size="9.950897" font-family="CMBX10" font-weight="bold"><tspan y="450.59095" x="93.809909">&#xfb01;</tspan></text>
<text xml:space="preserve" transform="matrix(1 0 0 1 -63.281595 -51.483339)" font-size="9.950897" font-family="CMBX10" font-weight="bold"><tspan y="450.59095" x="100.15858">n</tspan></text>
<text xml:space="preserve" transform="matrix(1 0 0 1 -63.281595 -51.483339)" font-size="6.965528" font-family="CMBX7" font-weight="bold"><tspan y="463.52723" x="64.49456 69.00126">30</tspan></text>
<text xml:space="preserve" transform="matrix(1 0 0 1 -63.281595 -51.483339)" font-size="9.950897" font-family="CMBX10" font-weight="bold"><tspan y="463.52723" x="78.48654">&#xfb01;</tspan></text>
<text xml:space="preserve" transform="matrix(1 0 0 1 -63.281595 -51.483339)" font-size="9.950897" font-family="CMBX10" font-weight="bold"><tspan y="463.52723" x="84.83521">n</tspan></text>
<path transform="matrix(1,0,0,-1,-63.281595,-51.483339)" stroke-width=".796032" stroke-linecap="butt" stroke-miterlimit="10" stroke-linejoin="miter" fill="none" stroke="#000000" d="M63.562-469.496H530.992"/>
</g>
</svg>
