<?xml version="1.0" encoding="UTF-8" standalone="no"?>
<svg
   xmlns:dc="http://purl.org/dc/elements/1.1/"
   xmlns:cc="http://creativecommons.org/ns#"
   xmlns:rdf="http://www.w3.org/1999/02/22-rdf-syntax-ns#"
   xmlns:svg="http://www.w3.org/2000/svg"
   xmlns="http://www.w3.org/2000/svg"
   viewBox="0 0 793.70135 1122.52"
   height="1122.52"
   width="793.70135"
   xml:space="preserve"
   id="svg2"
   version="1.1"><metadata
     id="metadata8"><rdf:RDF><cc:Work
         rdf:about=""><dc:format>image/svg+xml</dc:format><dc:type
           rdf:resource="http://purl.org/dc/dcmitype/StillImage" /></cc:Work></rdf:RDF></metadata><defs
     id="defs6" /><g
     transform="matrix(1.3333333,0,0,-1.3333333,0,1122.52)"
     id="g10"><g
       transform="translate(63.638,789.747)"
       id="g12"><path
         id="path14"
         style="fill:none;stroke:#000000;stroke-width:0.79699999;stroke-linecap:butt;stroke-linejoin:miter;stroke-miterlimit:10;stroke-dasharray:none;stroke-opacity:1"
         d="M 0,0 H 468" /></g><text
       id="text18"
       style="font-variant:normal;font-weight:normal;font-size:9.96259975px;font-family:CMBX10;-inkscape-font-specification:CMBX10;writing-mode:lr-tb;fill:#000000;fill-opacity:1;fill-rule:nonzero;stroke:none"
       transform="matrix(1,0,0,-1,71.11,780.437)"><tspan
         id="tspan16"
         y="0"
         x="0 8.6614847 11.843539 17.572033 23.300529 28.018816 31.200871 35.656147 42.021252 51.568409 60.635372 70.189507">Algorithme5:</tspan></text>
<text
       id="text22"
       style="font-variant:normal;font-weight:normal;font-size:9.96259975px;font-family:CMR10;-inkscape-font-specification:CMR10;writing-mode:lr-tb;fill:#000000;fill-opacity:1;fill-rule:nonzero;stroke:none"
       transform="matrix(1,0,0,-1,147.801,780.437)"><tspan
         id="tspan20"
         y="0"
         x="0 7.1949897 12.73021 17.71151 20.47912 29.054926 34.590149 37.357758 42.892979 51.745743 56.735016 61.716316 64.483925 68.413177 71.180786 80.033554 85.014854 90.550072 94.42453 99.405823 104.94105 112.16094 117.69617 120.46378 125.99899 131.53421 139.27914 145.09331 150.07462 154.00386 156.77147 160.64594 163.41354 168.39484 177.2476 182.78282 187.76413 193.29935 198.56558 198.83456 203.26195 211.01683 215.71918 220.69849 225.12587 232.88075 238.41597 247.26874 251.69612 256.67743 261.93369 265.80814 270.23553 275.49179 284.35452 288.28378 293.54004 293.819 298.24637 302.67374 305.44138 310.69763 310.97659">Choixd’unvoisinautourd’unepositiondonn´eeavecuncontenusp´ecif´e</tspan></text>
<g
       transform="translate(63.638,776.109)"
       id="g24"><path
         id="path26"
         style="fill:none;stroke:#000000;stroke-width:0.79699999;stroke-linecap:butt;stroke-linejoin:miter;stroke-miterlimit:10;stroke-dasharray:none;stroke-opacity:1"
         d="M 0,0 H 468" /></g><text
       id="text30"
       style="font-variant:normal;font-weight:normal;font-size:9.96259975px;font-family:CMBX10;-inkscape-font-specification:CMBX10;writing-mode:lr-tb;fill:#000000;fill-opacity:1;fill-rule:nonzero;stroke:none"
       transform="matrix(1,0,0,-1,78.582,766.799)"><tspan
         id="tspan28"
         y="0"
         x="0 7.5277405 13.574042 18.029318 22.508503 22.747604 27.998892 33.250179 41.584888">Entr´ees:</tspan></text>
<text
       id="text34"
       style="font-variant:normal;font-weight:normal;font-size:9.96259975px;font-family:CMR10;-inkscape-font-specification:CMR10;writing-mode:lr-tb;fill:#000000;fill-opacity:1;fill-rule:nonzero;stroke:none"
       transform="matrix(1,0,0,-1,126.673,766.799)"><tspan
         id="tspan32"
         y="0"
         x="0 4.9812999 8.8836508 11.65126 14.418871 17.186481 21.613861 27.699017 30.466627 33.234238 38.215538 43.750759 48.178139 54.273254 58.700634 63.681934 66.449547 71.430847 76.966064 82.501289 86.928665 93.013824 97.4412 102.4225 107.67877 111.55322 115.98061 121.23687">grille,ligne,colonne,contenu</tspan></text>
<text
       id="text38"
       style="font-variant:normal;font-weight:normal;font-size:9.96259975px;font-family:CMBX10;-inkscape-font-specification:CMBX10;writing-mode:lr-tb;fill:#000000;fill-opacity:1;fill-rule:nonzero;stroke:none"
       transform="matrix(1,0,0,-1,78.582,754.844)"><tspan
         id="tspan36"
         y="0"
         x="0 6.3651052 12.0936 16.811888 21.267162 24.449217 29.700502 38.035213">Sorties:</tspan></text>
<text
       id="text44"
       style="font-variant:normal;font-weight:normal;font-size:9.96259975px;font-family:CMR10;-inkscape-font-specification:CMR10;writing-mode:lr-tb;fill:#000000;fill-opacity:1;fill-rule:nonzero;stroke:none"
       transform="matrix(1,0,0,-1,123.124,754.844)"><tspan
         id="tspan40"
         y="0"
         x="0 7.4719501 13.007171 20.752096 26.566269 31.547569 35.476818 38.244431 42.118885 44.886494 49.867794 58.720562 62.595016 65.362625 68.130234 73.111534 78.646759 83.074135 89.169258 93.596634 98.577934 101.34554 106.32684 111.86207 117.39729 121.82467 129.01666 134.55188 137.3195 142.85472 151.70749 156.6868 161.66809 164.4357 168.36494 171.13257 179.99529 184.69763 189.67694 194.10432 201.85921 207.39444 216.24719 220.67458 225.65588 230.91214 234.78661 239.21397 244.47025 253.33298 258.86819 263.84949 269.37476 274.64099 274.90997 282.66486 287.64618 296.49893 300.37338 307.84534 312.82663 318.36185 322.78925 328.87439 336.34634 341.32764 346.86285 351.29025 358.49222 362.42145 365.18906 367.95667 374.04184 379.57706 382.34467">Uneposition(ligne,colonne)d’unvoisinavecuncontenudonn´eou(None,None)s’iln’y</tspan><tspan
         id="tspan42"
         y="11.955"
         x="0 4.4273796 13.280146 21.588955 27.124174 32.105476">enapas</tspan></text>
<text
       id="text48"
       style="font-variant:normal;font-weight:normal;font-size:6.97380018px;font-family:CMBX7;-inkscape-font-specification:CMBX7;writing-mode:lr-tb;fill:#000000;fill-opacity:1;fill-rule:nonzero;stroke:none"
       transform="matrix(1,0,0,-1,69.087,730.934)"><tspan
         id="tspan46"
         y="0"
         x="0">1</tspan></text>
<text
       id="text52"
       style="font-variant:normal;font-weight:normal;font-size:9.96259975px;font-family:CMBX10;-inkscape-font-specification:CMBX10;writing-mode:lr-tb;fill:#000000;fill-opacity:1;fill-rule:nonzero;stroke:none"
       transform="matrix(1,0,0,-1,78.582,730.934)"><tspan
         id="tspan50"
         y="0"
         x="0 6.1260028 6.3651052 11.616391 17.981497 24.346601">d´ebut</tspan></text>
<g
       transform="translate(83.762,497.21)"
       id="g54"><path
         id="path56"
         style="fill:none;stroke:#000000;stroke-width:0.398;stroke-linecap:butt;stroke-linejoin:miter;stroke-miterlimit:10;stroke-dasharray:none;stroke-opacity:1"
         d="M 0,0 V 230.137" /></g><text
       id="text60"
       style="font-variant:normal;font-weight:normal;font-size:6.97380018px;font-family:CMBX7;-inkscape-font-specification:CMBX7;writing-mode:lr-tb;fill:#000000;fill-opacity:1;fill-rule:nonzero;stroke:none"
       transform="matrix(1,0,0,-1,69.485,718.979)"><tspan
         id="tspan58"
         y="0"
         x="0">2</tspan></text>
<text
       id="text64"
       style="font-variant:normal;font-weight:normal;font-size:9.96259975px;font-family:CMR10;-inkscape-font-specification:CMR10;writing-mode:lr-tb;fill:#000000;fill-opacity:1;fill-rule:nonzero;stroke:none"
       transform="matrix(1,0,0,-1,93.924,718.979)"><tspan
         id="tspan62"
         y="0"
         x="0 3.8744552 8.8557549 14.669929 19.097307 24.078608 28.007858 32.435238">tabcases</tspan></text>
<text
       id="text68"
       style="font-variant:normal;font-weight:normal;font-size:9.96259975px;font-family:CMSY10;-inkscape-font-specification:CMSY10;writing-mode:lr-tb;fill:#000000;fill-opacity:1;fill-rule:nonzero;stroke:none"
       transform="matrix(1,0,0,-1,133.609,718.979)"><tspan
         id="tspan66"
         y="0"
         x="0">←</tspan></text>
<text
       id="text72"
       style="font-variant:normal;font-weight:normal;font-size:9.96259975px;font-family:CMR10;-inkscape-font-specification:CMR10;writing-mode:lr-tb;fill:#000000;fill-opacity:1;fill-rule:nonzero;stroke:none"
       transform="matrix(1,0,0,-1,146.892,718.979)"><tspan
         id="tspan70"
         y="0"
         x="0 2.7676103 5.5352206 9.4644699 13.338925 21.083851 26.342112 29.10972 34.644943 39.072323">listevide;</tspan></text>
<text
       id="text76"
       style="font-variant:normal;font-weight:normal;font-size:6.97380018px;font-family:CMBX7;-inkscape-font-specification:CMBX7;writing-mode:lr-tb;fill:#000000;fill-opacity:1;fill-rule:nonzero;stroke:none"
       transform="matrix(1,0,0,-1,69.485,707.023)"><tspan
         id="tspan74"
         y="0"
         x="0">3</tspan></text>
<text
       id="text80"
       style="font-variant:normal;font-weight:normal;font-size:9.96259975px;font-family:CMTI10;-inkscape-font-specification:CMTI10;writing-mode:lr-tb;fill:#000000;fill-opacity:1;fill-rule:nonzero;stroke:none"
       transform="matrix(1,0,0,-1,93.924,707.023)"><tspan
         id="tspan78"
         y="0"
         x="0 7.6383252 12.221122 15.530697 20.113493 25.714466 28.769997 36.537834 39.084274 43.667072 51.297428 56.389313 59.444843 67.592255 72.175049 77.776024 81.849731 84.905266 89.997147 95.598122 103.23844 108.33032 116.47973 119.02617 127.68467 132.26746 136.46869 139.52422 142.57875 145.1252 153.26463 157.33835 162.93932">Obtenirlesdimensionsdelagrille(nb</tspan></text>
<g
       transform="translate(262.061,707.223)"
       id="g82"><path
         id="path84"
         style="fill:none;stroke:#000000;stroke-width:0.398;stroke-linecap:butt;stroke-linejoin:miter;stroke-miterlimit:10;stroke-dasharray:none;stroke-opacity:1"
         d="M 0,0 H 3.055" /></g><text
       id="text88"
       style="font-variant:normal;font-weight:normal;font-size:9.96259975px;font-family:CMTI10;-inkscape-font-specification:CMTI10;writing-mode:lr-tb;fill:#000000;fill-opacity:1;fill-rule:nonzero;stroke:none"
       transform="matrix(1,0,0,-1,265.117,707.023)"><tspan
         id="tspan86"
         y="0"
         x="0 2.5464406 5.6019702 10.184766 16.806906 22.407881">lig,nb</tspan></text>
<g
       transform="translate(292.715,707.223)"
       id="g90"><path
         id="path92"
         style="fill:none;stroke:#000000;stroke-width:0.398;stroke-linecap:butt;stroke-linejoin:miter;stroke-miterlimit:10;stroke-dasharray:none;stroke-opacity:1"
         d="M 0,0 H 3.055" /></g><text
       id="text96"
       style="font-variant:normal;font-weight:normal;font-size:9.96259975px;font-family:CMTI10;-inkscape-font-specification:CMTI10;writing-mode:lr-tb;fill:#000000;fill-opacity:1;fill-rule:nonzero;stroke:none"
       transform="matrix(1,0,0,-1,295.77,707.023)"><tspan
         id="tspan94"
         y="0"
         x="0 4.0747032 9.1665878 11.713029">col)</tspan></text>
<text
       id="text100"
       style="font-variant:normal;font-weight:normal;font-size:9.96259975px;font-family:CMR10;-inkscape-font-specification:CMR10;writing-mode:lr-tb;fill:#000000;fill-opacity:1;fill-rule:nonzero;stroke:none"
       transform="matrix(1,0,0,-1,311.924,707.023)"><tspan
         id="tspan98"
         y="0"
         x="0">;</tspan></text>
<text
       id="text104"
       style="font-variant:normal;font-weight:normal;font-size:6.97380018px;font-family:CMBX7;-inkscape-font-specification:CMBX7;writing-mode:lr-tb;fill:#000000;fill-opacity:1;fill-rule:nonzero;stroke:none"
       transform="matrix(1,0,0,-1,69.485,695.068)"><tspan
         id="tspan102"
         y="0"
         x="0">4</tspan></text>
<text
       id="text108"
       style="font-variant:normal;font-weight:normal;font-size:9.96259975px;font-family:CMBX10;-inkscape-font-specification:CMBX10;writing-mode:lr-tb;fill:#000000;fill-opacity:1;fill-rule:nonzero;stroke:none"
       transform="matrix(1,0,0,-1,93.924,695.068)"><tspan
         id="tspan106"
         y="0"
         x="0 6.6839085 12.412403 18.777508">pour</tspan></text>
<text
       id="text112"
       style="font-variant:normal;font-weight:normal;font-size:9.96259975px;font-family:CMTI10;-inkscape-font-specification:CMTI10;writing-mode:lr-tb;fill:#000000;fill-opacity:1;fill-rule:nonzero;stroke:none"
       transform="matrix(1,0,0,-1,120.74,695.068)"><tspan
         id="tspan110"
         y="0"
         x="0">i</tspan></text>
<text
       id="text116"
       style="font-variant:normal;font-weight:normal;font-size:9.96259975px;font-family:CMBXTI10;-inkscape-font-specification:CMBXTI10;writing-mode:lr-tb;fill:#000000;fill-opacity:1;fill-rule:nonzero;stroke:none"
       transform="matrix(1,0,0,-1,127.36,695.068)"><tspan
         id="tspan114"
         y="0"
         x="0 5.8888927 9.4325895 12.388494 18.277386 24.753077 32.713192 38.602085">allantde</tspan></text>
<text
       id="text120"
       style="font-variant:normal;font-weight:normal;font-size:9.96259975px;font-family:CMTI10;-inkscape-font-specification:CMTI10;writing-mode:lr-tb;fill:#000000;fill-opacity:1;fill-rule:nonzero;stroke:none"
       transform="matrix(1,0,0,-1,174.831,695.068)"><tspan
         id="tspan118"
         y="0"
         x="0 2.5464406 5.6019702 10.184766 15.78574 23.935146 31.056414">ligne-1</tspan></text>
<text
       id="text124"
       style="font-variant:normal;font-weight:normal;font-size:9.96259975px;font-family:CMBXTI10;-inkscape-font-specification:CMBXTI10;writing-mode:lr-tb;fill:#000000;fill-opacity:1;fill-rule:nonzero;stroke:none"
       transform="matrix(1,0,0,-1,214.549,695.068)"><tspan
         id="tspan122"
         y="0"
         x="0 0.00099625997">`a</tspan></text>
<text
       id="text128"
       style="font-variant:normal;font-weight:normal;font-size:9.96259975px;font-family:CMTI10;-inkscape-font-specification:CMTI10;writing-mode:lr-tb;fill:#000000;fill-opacity:1;fill-rule:nonzero;stroke:none"
       transform="matrix(1,0,0,-1,224.002,695.068)"><tspan
         id="tspan126"
         y="0"
         x="0 2.5464406 5.6019702 10.184766 15.78574 23.935146 35.130119">ligne+1</tspan></text>
<text
       id="text132"
       style="font-variant:normal;font-weight:normal;font-size:9.96259975px;font-family:CMBX10;-inkscape-font-specification:CMBX10;writing-mode:lr-tb;fill:#000000;fill-opacity:1;fill-rule:nonzero;stroke:none"
       transform="matrix(1,0,0,-1,268.9,695.068)"><tspan
         id="tspan130"
         y="0"
         x="0 3.5008576 9.0699511 12.252006 16.970293">faire</tspan></text>
<g
       transform="translate(99.105,569.937)"
       id="g134"><path
         id="path136"
         style="fill:none;stroke:#000000;stroke-width:0.398;stroke-linecap:butt;stroke-linejoin:miter;stroke-miterlimit:10;stroke-dasharray:none;stroke-opacity:1"
         d="M 0,0 V 121.544" /></g><text
       id="text140"
       style="font-variant:normal;font-weight:normal;font-size:6.97380018px;font-family:CMBX7;-inkscape-font-specification:CMBX7;writing-mode:lr-tb;fill:#000000;fill-opacity:1;fill-rule:nonzero;stroke:none"
       transform="matrix(1,0,0,-1,69.884,683.113)"><tspan
         id="tspan138"
         y="0"
         x="0">5</tspan></text>
<text
       id="text144"
       style="font-variant:normal;font-weight:normal;font-size:9.96259975px;font-family:CMBX10;-inkscape-font-specification:CMBX10;writing-mode:lr-tb;fill:#000000;fill-opacity:1;fill-rule:nonzero;stroke:none"
       transform="matrix(1,0,0,-1,109.267,683.113)"><tspan
         id="tspan142"
         y="0"
         x="0 6.6839085 12.412403 18.777508">pour</tspan></text>
<text
       id="text148"
       style="font-variant:normal;font-weight:normal;font-size:9.96259975px;font-family:CMTI10;-inkscape-font-specification:CMTI10;writing-mode:lr-tb;fill:#000000;fill-opacity:1;fill-rule:nonzero;stroke:none"
       transform="matrix(1,0,0,-1,136.083,683.113)"><tspan
         id="tspan146"
         y="0"
         x="0">j</tspan></text>
<text
       id="text152"
       style="font-variant:normal;font-weight:normal;font-size:9.96259975px;font-family:CMBXTI10;-inkscape-font-specification:CMBXTI10;writing-mode:lr-tb;fill:#000000;fill-opacity:1;fill-rule:nonzero;stroke:none"
       transform="matrix(1,0,0,-1,142.702,683.113)"><tspan
         id="tspan150"
         y="0"
         x="0 5.8888927 9.4325895 12.388494 18.277386 24.753077 32.713192 38.602085">allantde</tspan></text>
<text
       id="text156"
       style="font-variant:normal;font-weight:normal;font-size:9.96259975px;font-family:CMTI10;-inkscape-font-specification:CMTI10;writing-mode:lr-tb;fill:#000000;fill-opacity:1;fill-rule:nonzero;stroke:none"
       transform="matrix(1,0,0,-1,190.174,683.113)"><tspan
         id="tspan154"
         y="0"
         x="0 4.0747032 9.1665878 11.713029 16.804914 22.405888 28.006861 36.156269 43.277534">colonne-1</tspan></text>
<text
       id="text160"
       style="font-variant:normal;font-weight:normal;font-size:9.96259975px;font-family:CMBXTI10;-inkscape-font-specification:CMBXTI10;writing-mode:lr-tb;fill:#000000;fill-opacity:1;fill-rule:nonzero;stroke:none"
       transform="matrix(1,0,0,-1,242.112,683.113)"><tspan
         id="tspan158"
         y="0"
         x="0 0.00099625997">`a</tspan></text>
<text
       id="text164"
       style="font-variant:normal;font-weight:normal;font-size:9.96259975px;font-family:CMTI10;-inkscape-font-specification:CMTI10;writing-mode:lr-tb;fill:#000000;fill-opacity:1;fill-rule:nonzero;stroke:none"
       transform="matrix(1,0,0,-1,251.565,683.113)"><tspan
         id="tspan162"
         y="0"
         x="0 4.0747032 9.1665878 11.713029 16.804914 22.405888 28.006861 36.156269 47.351242">colonne+1</tspan></text>
<text
       id="text168"
       style="font-variant:normal;font-weight:normal;font-size:9.96259975px;font-family:CMBX10;-inkscape-font-specification:CMBX10;writing-mode:lr-tb;fill:#000000;fill-opacity:1;fill-rule:nonzero;stroke:none"
       transform="matrix(1,0,0,-1,308.684,683.113)"><tspan
         id="tspan166"
         y="0"
         x="0 3.5008576 9.0699511 12.252006 16.970293">faire</tspan></text>
<g
       transform="translate(114.447,582.889)"
       id="g170"><path
         id="path172"
         style="fill:none;stroke:#000000;stroke-width:0.398;stroke-linecap:butt;stroke-linejoin:miter;stroke-miterlimit:10;stroke-dasharray:none;stroke-opacity:1"
         d="M 0,0 V 96.638" /></g><text
       id="text176"
       style="font-variant:normal;font-weight:normal;font-size:6.97380018px;font-family:CMBX7;-inkscape-font-specification:CMBX7;writing-mode:lr-tb;fill:#000000;fill-opacity:1;fill-rule:nonzero;stroke:none"
       transform="matrix(1,0,0,-1,70.282,671.158)"><tspan
         id="tspan174"
         y="0"
         x="0">6</tspan></text>
<text
       id="text180"
       style="font-variant:normal;font-weight:normal;font-size:9.96259975px;font-family:CMBX10;-inkscape-font-specification:CMBX10;writing-mode:lr-tb;fill:#000000;fill-opacity:1;fill-rule:nonzero;stroke:none"
       transform="matrix(1,0,0,-1,124.609,671.158)"><tspan
         id="tspan178"
         y="0"
         x="0 4.5190353">si</tspan></text>
<text
       id="text184"
       style="font-variant:normal;font-weight:normal;font-size:9.96259975px;font-family:CMTI10;-inkscape-font-specification:CMTI10;writing-mode:lr-tb;fill:#000000;fill-opacity:1;fill-rule:nonzero;stroke:none"
       transform="matrix(1,0,0,-1,139.196,671.158)"><tspan
         id="tspan182"
         y="0"
         x="0 6.6221404 11.204936 15.278644 22.154829 27.246716 30.302244 36.153278 36.403339 40.986137 44.679272 49.26207 54.863041 61.739227 66.831116 74.980522 77.526962 80.582489 85.165283 90.766258">iestdif´erentdeligne</tspan></text>
<text
       id="text188"
       style="font-variant:normal;font-weight:normal;font-size:9.96259975px;font-family:CMBXTI10;-inkscape-font-specification:CMBXTI10;writing-mode:lr-tb;fill:#000000;fill-opacity:1;fill-rule:nonzero;stroke:none"
       transform="matrix(1,0,0,-1,238.108,671.158)"><tspan
         id="tspan186"
         y="0"
         x="0 5.8888927">ou</tspan></text>
<text
       id="text192"
       style="font-variant:normal;font-weight:normal;font-size:9.96259975px;font-family:CMTI10;-inkscape-font-specification:CMTI10;writing-mode:lr-tb;fill:#000000;fill-opacity:1;fill-rule:nonzero;stroke:none"
       transform="matrix(1,0,0,-1,253.743,671.158)"><tspan
         id="tspan190"
         y="0"
         x="0 6.6221404 11.204936 15.278644 22.154829 27.246716 30.302244 36.153278 36.403339 40.986137 44.679272 49.26207 54.863041 61.739227 66.831116 74.980522 79.055222 84.14711 86.69355 91.785431 97.386406 102.98738 107.57018">jestdif´erentdecolonne)</tspan></text>
<text
       id="text196"
       style="font-variant:normal;font-weight:normal;font-size:9.96259975px;font-family:CMBX10;-inkscape-font-specification:CMBX10;writing-mode:lr-tb;fill:#000000;fill-opacity:1;fill-rule:nonzero;stroke:none"
       transform="matrix(1,0,0,-1,369.074,671.158)"><tspan
         id="tspan194"
         y="0"
         x="0 5.5690932 8.7511482 14.479643 19.197929">alors</tspan></text>
<g
       transform="translate(129.79,595.84)"
       id="g198"><path
         id="path200"
         style="fill:none;stroke:#000000;stroke-width:0.398;stroke-linecap:butt;stroke-linejoin:miter;stroke-miterlimit:10;stroke-dasharray:none;stroke-opacity:1"
         d="M 0,0 V 71.731" /></g><text
       id="text204"
       style="font-variant:normal;font-weight:normal;font-size:6.97380018px;font-family:CMBX7;-inkscape-font-specification:CMBX7;writing-mode:lr-tb;fill:#000000;fill-opacity:1;fill-rule:nonzero;stroke:none"
       transform="matrix(1,0,0,-1,70.681,659.203)"><tspan
         id="tspan202"
         y="0"
         x="0">7</tspan></text>
<text
       id="text208"
       style="font-variant:normal;font-weight:normal;font-size:9.96259975px;font-family:CMTI10;-inkscape-font-specification:CMTI10;writing-mode:lr-tb;fill:#000000;fill-opacity:1;fill-rule:nonzero;stroke:none"
       transform="matrix(1,0,0,-1,139.952,659.203)"><tspan
         id="tspan206"
         y="0"
         x="0 7.4052005 10.46073 15.807657 19.881365 23.190941 27.773737 35.541576 38.597103 45.209282 51.831421 56.415215 61.507099 66.854027 74.621864 77.931442 82.514236 88.115211 91.170738 98.928619 103.00332 108.09521 116.24262 121.3345 124.64408 132.79349 137.88538 142.46817 150.10849 152.65492 155.71045 163.85786 166.91341 170.22298 174.80577 182.44609 187.53798 195.67741 198.22386 206.88235 211.46515 215.66638 218.72191 221.77644 224.32288 232.47229 236.54599 239.60153 244.69341 251.31555 254.36111 259.46295">Ajusteri,jpourtenircomptedeslimitesdelagrille(i2,j2)</tspan></text>
<text
       id="text212"
       style="font-variant:normal;font-weight:normal;font-size:9.96259975px;font-family:CMR10;-inkscape-font-specification:CMR10;writing-mode:lr-tb;fill:#000000;fill-opacity:1;fill-rule:nonzero;stroke:none"
       transform="matrix(1,0,0,-1,403.852,659.203)"><tspan
         id="tspan210"
         y="0"
         x="0">;</tspan></text>
<text
       id="text216"
       style="font-variant:normal;font-weight:normal;font-size:6.97380018px;font-family:CMBX7;-inkscape-font-specification:CMBX7;writing-mode:lr-tb;fill:#000000;fill-opacity:1;fill-rule:nonzero;stroke:none"
       transform="matrix(1,0,0,-1,70.681,647.248)"><tspan
         id="tspan214"
         y="0"
         x="0">8</tspan></text>
<text
       id="text220"
       style="font-variant:normal;font-weight:normal;font-size:9.96259975px;font-family:CMTI10;-inkscape-font-specification:CMTI10;writing-mode:lr-tb;fill:#000000;fill-opacity:1;fill-rule:nonzero;stroke:none"
       transform="matrix(1,0,0,-1,139.952,647.248)"><tspan
         id="tspan218"
         y="0"
         x="0 7.6383252 12.221122 15.530697 20.113493 25.714466 28.769997 36.537834 39.084274 47.732811 51.807514 56.899399 60.973106 69.122513 73.19622 76.251747 81.343636 87.965775 91.021301 96.11319 103.7535 108.84539 116.98483 119.53127 128.18977 132.77257 136.9738 140.02933 143.08386 145.63029">Obtenirlacase(i2,j2)delagrille</tspan></text>
<text
       id="text224"
       style="font-variant:normal;font-weight:normal;font-size:9.96259975px;font-family:CMR10;-inkscape-font-specification:CMR10;writing-mode:lr-tb;fill:#000000;fill-opacity:1;fill-rule:nonzero;stroke:none"
       transform="matrix(1,0,0,-1,290.914,647.248)"><tspan
         id="tspan222"
         y="0"
         x="0">;</tspan></text>
<text
       id="text228"
       style="font-variant:normal;font-weight:normal;font-size:6.97380018px;font-family:CMBX7;-inkscape-font-specification:CMBX7;writing-mode:lr-tb;fill:#000000;fill-opacity:1;fill-rule:nonzero;stroke:none"
       transform="matrix(1,0,0,-1,70.681,635.292)"><tspan
         id="tspan226"
         y="0"
         x="0">9</tspan></text>
<text
       id="text232"
       style="font-variant:normal;font-weight:normal;font-size:9.96259975px;font-family:CMBX10;-inkscape-font-specification:CMBX10;writing-mode:lr-tb;fill:#000000;fill-opacity:1;fill-rule:nonzero;stroke:none"
       transform="matrix(1,0,0,-1,139.952,635.292)"><tspan
         id="tspan230"
         y="0"
         x="0 4.5190353">si</tspan></text>
<text
       id="text236"
       style="font-variant:normal;font-weight:normal;font-size:9.96259975px;font-family:CMTI10;-inkscape-font-specification:CMTI10;writing-mode:lr-tb;fill:#000000;fill-opacity:1;fill-rule:nonzero;stroke:none"
       transform="matrix(1,0,0,-1,150.565,635.292)"><tspan
         id="tspan234"
         y="0"
         x="0 0.25006127 4.8328571 8.1424332 13.234318 19.971027 25.062912 33.062881 35.609322 44.128342 48.203045 53.29493 57.368637 65.368607 69.951401 74.025108 80.502792 80.76281 85.345612 89.928406 95.020287 100.9839 100.9849 109.50392 113.56866 118.66055 124.26152 127.57109 132.15388 137.76483">´etatdelacaseest´egal`acontenu</tspan></text>
<text
       id="text240"
       style="font-variant:normal;font-weight:normal;font-size:9.96259975px;font-family:CMBXTI10;-inkscape-font-specification:CMBXTI10;writing-mode:lr-tb;fill:#000000;fill-opacity:1;fill-rule:nonzero;stroke:none"
       transform="matrix(1,0,0,-1,297.094,635.292)"><tspan
         id="tspan238"
         y="0"
         x="0 5.3020959">et</tspan></text>
<text
       id="text244"
       style="font-variant:normal;font-weight:normal;font-size:9.96259975px;font-family:CMTI10;-inkscape-font-specification:CMTI10;writing-mode:lr-tb;fill:#000000;fill-opacity:1;fill-rule:nonzero;stroke:none"
       transform="matrix(1,0,0,-1,309.654,635.292)"><tspan
         id="tspan242"
         y="0"
         x="0 4.0737071 8.1484108 13.240295 18.841269 22.150845 26.733641 32.334614 41.098713 45.681511 49.755219 56.491928 63.897129 67.738708 75.260468">(contenuestVIDE</tspan></text>
<text
       id="text248"
       style="font-variant:normal;font-weight:normal;font-size:9.96259975px;font-family:CMBXTI10;-inkscape-font-specification:CMBXTI10;writing-mode:lr-tb;fill:#000000;fill-opacity:1;fill-rule:nonzero;stroke:none"
       transform="matrix(1,0,0,-1,395.093,635.292)"><tspan
         id="tspan246"
         y="0"
         x="0 5.8888927">ou</tspan></text>
<text
       id="text254"
       style="font-variant:normal;font-weight:normal;font-size:9.96259975px;font-family:CMTI10;-inkscape-font-specification:CMTI10;writing-mode:lr-tb;fill:#000000;fill-opacity:1;fill-rule:nonzero;stroke:none"
       transform="matrix(1,0,0,-1,410.586,635.292)"><tspan
         id="tspan250"
         y="0"
         x="0 2.5464406 5.6019702 10.693855 16.294828 19.350357 27.497772 32.589657 38.553268 43.645153 48.737038 54.338013 61.838856 64.385292 72.894348 76.969055 82.060944 86.134644 94.144577 98.727371 102.80108">l’animaldanslacaseest</tspan><tspan
         id="tspan252"
         y="11.955"
         x="-265.65302 -260.56113 -257.50558 -253.43188 -248.84808 -243.7562 -238.15523 -235.0997 -230.51691 -227.97046 -223.38766">disponible)</tspan></text>
<text
       id="text258"
       style="font-variant:normal;font-weight:normal;font-size:9.96259975px;font-family:CMBX10;-inkscape-font-specification:CMBX10;writing-mode:lr-tb;fill:#000000;fill-opacity:1;fill-rule:nonzero;stroke:none"
       transform="matrix(1,0,0,-1,194.959,623.337)"><tspan
         id="tspan256"
         y="0"
         x="0 5.5690932 8.7511482 14.479643 19.197929">alors</tspan></text>
<g
       transform="translate(145.132,607.796)"
       id="g260"><path
         id="path262"
         style="fill:none;stroke:#000000;stroke-width:0.398;stroke-linecap:butt;stroke-linejoin:miter;stroke-miterlimit:10;stroke-dasharray:none;stroke-opacity:1"
         d="M 0,0 V 11.955" /></g><text
       id="text266"
       style="font-variant:normal;font-weight:normal;font-size:6.97380018px;font-family:CMBX7;-inkscape-font-specification:CMBX7;writing-mode:lr-tb;fill:#000000;fill-opacity:1;fill-rule:nonzero;stroke:none"
       transform="matrix(1,0,0,-1,66.566,611.382)"><tspan
         id="tspan264"
         y="0"
         x="0 4.5134435">10</tspan></text>
<text
       id="text270"
       style="font-variant:normal;font-weight:normal;font-size:9.96259975px;font-family:CMTI10;-inkscape-font-specification:CMTI10;writing-mode:lr-tb;fill:#000000;fill-opacity:1;fill-rule:nonzero;stroke:none"
       transform="matrix(1,0,0,-1,155.294,611.382)"><tspan
         id="tspan268"
         y="0"
         x="0 7.4052005 10.46073 15.552615 20.899542 24.209118 28.791914 36.559753 40.633461 43.688992 48.780876 55.393051 58.448582 63.540466 71.180786 71.181778 79.840279 83.149849 88.241737 92.316437 96.391144 101.48303 105.55673 110.13953">Ajouter(i2,j2)`atabcases</tspan></text>
<text
       id="text274"
       style="font-variant:normal;font-weight:normal;font-size:9.96259975px;font-family:CMR10;-inkscape-font-specification:CMR10;writing-mode:lr-tb;fill:#000000;fill-opacity:1;fill-rule:nonzero;stroke:none"
       transform="matrix(1,0,0,-1,270.322,611.382)"><tspan
         id="tspan272"
         y="0"
         x="0">;</tspan></text>
<text
       id="text278"
       style="font-variant:normal;font-weight:normal;font-size:6.97380018px;font-family:CMBX7;-inkscape-font-specification:CMBX7;writing-mode:lr-tb;fill:#000000;fill-opacity:1;fill-rule:nonzero;stroke:none"
       transform="matrix(1,0,0,-1,66.167,599.427)"><tspan
         id="tspan276"
         y="0"
         x="0 4.5134435">11</tspan></text>
<text
       id="text282"
       style="font-variant:normal;font-weight:normal;font-size:9.96259975px;font-family:CMBX10;-inkscape-font-specification:CMBX10;writing-mode:lr-tb;fill:#000000;fill-opacity:1;fill-rule:nonzero;stroke:none"
       transform="matrix(1,0,0,-1,139.952,599.427)"><tspan
         id="tspan280"
         y="0"
         x="0 6.3651052">fn</tspan></text>
<text
       id="text286"
       style="font-variant:normal;font-weight:normal;font-size:6.97380018px;font-family:CMBX7;-inkscape-font-specification:CMBX7;writing-mode:lr-tb;fill:#000000;fill-opacity:1;fill-rule:nonzero;stroke:none"
       transform="matrix(1,0,0,-1,65.769,586.476)"><tspan
         id="tspan284"
         y="0"
         x="0 4.5134435">12</tspan></text>
<text
       id="text290"
       style="font-variant:normal;font-weight:normal;font-size:9.96259975px;font-family:CMBX10;-inkscape-font-specification:CMBX10;writing-mode:lr-tb;fill:#000000;fill-opacity:1;fill-rule:nonzero;stroke:none"
       transform="matrix(1,0,0,-1,124.609,586.476)"><tspan
         id="tspan288"
         y="0"
         x="0 6.3651052">fn</tspan></text>
<text
       id="text294"
       style="font-variant:normal;font-weight:normal;font-size:6.97380018px;font-family:CMBX7;-inkscape-font-specification:CMBX7;writing-mode:lr-tb;fill:#000000;fill-opacity:1;fill-rule:nonzero;stroke:none"
       transform="matrix(1,0,0,-1,65.37,573.524)"><tspan
         id="tspan292"
         y="0"
         x="0 4.5134435">13</tspan></text>
<text
       id="text298"
       style="font-variant:normal;font-weight:normal;font-size:9.96259975px;font-family:CMBX10;-inkscape-font-specification:CMBX10;writing-mode:lr-tb;fill:#000000;fill-opacity:1;fill-rule:nonzero;stroke:none"
       transform="matrix(1,0,0,-1,109.267,573.524)"><tspan
         id="tspan296"
         y="0"
         x="0 6.3651052">fn</tspan></text>
<text
       id="text302"
       style="font-variant:normal;font-weight:normal;font-size:6.97380018px;font-family:CMBX7;-inkscape-font-specification:CMBX7;writing-mode:lr-tb;fill:#000000;fill-opacity:1;fill-rule:nonzero;stroke:none"
       transform="matrix(1,0,0,-1,64.972,560.573)"><tspan
         id="tspan300"
         y="0"
         x="0 4.5134435">14</tspan></text>
<text
       id="text306"
       style="font-variant:normal;font-weight:normal;font-size:9.96259975px;font-family:CMBX10;-inkscape-font-specification:CMBX10;writing-mode:lr-tb;fill:#000000;fill-opacity:1;fill-rule:nonzero;stroke:none"
       transform="matrix(1,0,0,-1,93.924,560.573)"><tspan
         id="tspan304"
         y="0"
         x="0 6.3651052">fn</tspan></text>
<text
       id="text310"
       style="font-variant:normal;font-weight:normal;font-size:6.97380018px;font-family:CMBX7;-inkscape-font-specification:CMBX7;writing-mode:lr-tb;fill:#000000;fill-opacity:1;fill-rule:nonzero;stroke:none"
       transform="matrix(1,0,0,-1,64.972,548.617)"><tspan
         id="tspan308"
         y="0"
         x="0 4.5134435">15</tspan></text>
<text
       id="text314"
       style="font-variant:normal;font-weight:normal;font-size:9.96259975px;font-family:CMBX10;-inkscape-font-specification:CMBX10;writing-mode:lr-tb;fill:#000000;fill-opacity:1;fill-rule:nonzero;stroke:none"
       transform="matrix(1,0,0,-1,93.924,548.617)"><tspan
         id="tspan312"
         y="0"
         x="0 4.5190353">si</tspan></text>
<text
       id="text318"
       style="font-variant:normal;font-weight:normal;font-size:9.96259975px;font-family:CMTI10;-inkscape-font-specification:CMTI10;writing-mode:lr-tb;fill:#000000;fill-opacity:1;fill-rule:nonzero;stroke:none"
       transform="matrix(1,0,0,-1,104.947,548.617)"><tspan
         id="tspan316"
         y="0"
         x="0 3.3095758 8.4014606 12.476164 16.550867 21.642752 25.716459 30.299255 37.939575 42.5144 45.569927 50.152725 54.226433 61.102619 65.686409 70.778297 78.41861 83.001411 86.056938 91.148827">tabcasesn’estpasvide</tspan></text>
<text
       id="text322"
       style="font-variant:normal;font-weight:normal;font-size:9.96259975px;font-family:CMBX10;-inkscape-font-specification:CMBX10;writing-mode:lr-tb;fill:#000000;fill-opacity:1;fill-rule:nonzero;stroke:none"
       transform="matrix(1,0,0,-1,204.745,548.617)"><tspan
         id="tspan320"
         y="0"
         x="0 5.5690932 8.7511482 14.479643 19.197929">alors</tspan></text>
<g
       transform="translate(99.105,533.076)"
       id="g324"><path
         id="path326"
         style="fill:none;stroke:#000000;stroke-width:0.398;stroke-linecap:butt;stroke-linejoin:miter;stroke-miterlimit:10;stroke-dasharray:none;stroke-opacity:1"
         d="M 0,0 V 11.955" /></g><text
       id="text330"
       style="font-variant:normal;font-weight:normal;font-size:6.97380018px;font-family:CMBX7;-inkscape-font-specification:CMBX7;writing-mode:lr-tb;fill:#000000;fill-opacity:1;fill-rule:nonzero;stroke:none"
       transform="matrix(1,0,0,-1,65.37,536.662)"><tspan
         id="tspan328"
         y="0"
         x="0 4.5134435">16</tspan></text>
<text
       id="text334"
       style="font-variant:normal;font-weight:normal;font-size:9.96259975px;font-family:CMBX10;-inkscape-font-specification:CMBX10;writing-mode:lr-tb;fill:#000000;fill-opacity:1;fill-rule:nonzero;stroke:none"
       transform="matrix(1,0,0,-1,109.267,536.662)"><tspan
         id="tspan332"
         y="0"
         x="0 4.7182875 9.969574 14.424849 20.153343 26.518448 31.236736 37.601841 42.853127">retourner</tspan></text>
<text
       id="text338"
       style="font-variant:normal;font-weight:normal;font-size:9.96259975px;font-family:CMTI10;-inkscape-font-specification:CMTI10;writing-mode:lr-tb;fill:#000000;fill-opacity:1;fill-rule:nonzero;stroke:none"
       transform="matrix(1,0,0,-1,160.159,536.662)"><tspan
         id="tspan336"
         y="0"
         x="0 4.0737071 9.6746807 14.766565 22.91398 27.496777 31.189911 39.339317 44.431202 52.570648 57.153442 62.245327 65.300858 69.374565 72.430092 78.031067 84.653206 90.000137 98.908691 99.168716 103.75151 106.03893 106.29895 110.88174 119.02916 123.61195 129.21294 136.07915 141.17104 143.46841 143.71848 148.30127 153.39316 156.70273 161.79462 164.85014 168.54329 176.69269 181.78458 189.93398 193.24356 198.33543 202.41014 206.47488 211.56677 215.64047 220.22327 224.29698">(nombredevoisin,un´el´emental´eatoiredetabcases)</tspan></text>
<text
       id="text342"
       style="font-variant:normal;font-weight:normal;font-size:9.96259975px;font-family:CMR10;-inkscape-font-specification:CMR10;writing-mode:lr-tb;fill:#000000;fill-opacity:1;fill-rule:nonzero;stroke:none"
       transform="matrix(1,0,0,-1,388.902,536.662)"><tspan
         id="tspan340"
         y="0"
         x="0">;</tspan></text>
<text
       id="text346"
       style="font-variant:normal;font-weight:normal;font-size:6.97380018px;font-family:CMBX7;-inkscape-font-specification:CMBX7;writing-mode:lr-tb;fill:#000000;fill-opacity:1;fill-rule:nonzero;stroke:none"
       transform="matrix(1,0,0,-1,64.972,524.707)"><tspan
         id="tspan344"
         y="0"
         x="0 4.5134435">17</tspan></text>
<text
       id="text350"
       style="font-variant:normal;font-weight:normal;font-size:9.96259975px;font-family:CMBX10;-inkscape-font-specification:CMBX10;writing-mode:lr-tb;fill:#000000;fill-opacity:1;fill-rule:nonzero;stroke:none"
       transform="matrix(1,0,0,-1,93.924,524.707)"><tspan
         id="tspan348"
         y="0"
         x="0 4.5190353 7.7010899 14.066195 19.794689">sinon</tspan></text>
<g
       transform="translate(99.105,509.165)"
       id="g352"><path
         id="path354"
         style="fill:none;stroke:#000000;stroke-width:0.398;stroke-linecap:butt;stroke-linejoin:miter;stroke-miterlimit:10;stroke-dasharray:none;stroke-opacity:1"
         d="M 0,0 V 11.955" /></g><text
       id="text358"
       style="font-variant:normal;font-weight:normal;font-size:6.97380018px;font-family:CMBX7;-inkscape-font-specification:CMBX7;writing-mode:lr-tb;fill:#000000;fill-opacity:1;fill-rule:nonzero;stroke:none"
       transform="matrix(1,0,0,-1,65.37,512.752)"><tspan
         id="tspan356"
         y="0"
         x="0 4.5134435">18</tspan></text>
<text
       id="text362"
       style="font-variant:normal;font-weight:normal;font-size:9.96259975px;font-family:CMBX10;-inkscape-font-specification:CMBX10;writing-mode:lr-tb;fill:#000000;fill-opacity:1;fill-rule:nonzero;stroke:none"
       transform="matrix(1,0,0,-1,109.267,512.752)"><tspan
         id="tspan360"
         y="0"
         x="0 4.7182875 9.969574 14.424849 20.153343 26.518448 31.236736 37.601841 42.853127">retourner</tspan></text>
<text
       id="text366"
       style="font-variant:normal;font-weight:normal;font-size:9.96259975px;font-family:CMTI10;-inkscape-font-specification:CMTI10;writing-mode:lr-tb;fill:#000000;fill-opacity:1;fill-rule:nonzero;stroke:none"
       transform="matrix(1,0,0,-1,160.159,512.752)"><tspan
         id="tspan364"
         y="0"
         x="0 4.0737071 9.1655922 15.787732 23.192932 28.284817 33.885792 38.468586 45.090729 52.49593 57.587814 63.188786 67.771584">(0,None,None)</tspan></text>
<text
       id="text370"
       style="font-variant:normal;font-weight:normal;font-size:9.96259975px;font-family:CMR10;-inkscape-font-specification:CMR10;writing-mode:lr-tb;fill:#000000;fill-opacity:1;fill-rule:nonzero;stroke:none"
       transform="matrix(1,0,0,-1,232.368,512.752)"><tspan
         id="tspan368"
         y="0"
         x="0">;</tspan></text>
<text
       id="text374"
       style="font-variant:normal;font-weight:normal;font-size:6.97380018px;font-family:CMBX7;-inkscape-font-specification:CMBX7;writing-mode:lr-tb;fill:#000000;fill-opacity:1;fill-rule:nonzero;stroke:none"
       transform="matrix(1,0,0,-1,64.972,500.797)"><tspan
         id="tspan372"
         y="0"
         x="0 4.5134435">19</tspan></text>
<text
       id="text378"
       style="font-variant:normal;font-weight:normal;font-size:9.96259975px;font-family:CMBX10;-inkscape-font-specification:CMBX10;writing-mode:lr-tb;fill:#000000;fill-opacity:1;fill-rule:nonzero;stroke:none"
       transform="matrix(1,0,0,-1,93.924,500.797)"><tspan
         id="tspan376"
         y="0"
         x="0 6.3651052">fn</tspan></text>
<text
       id="text382"
       style="font-variant:normal;font-weight:normal;font-size:6.97380018px;font-family:CMBX7;-inkscape-font-specification:CMBX7;writing-mode:lr-tb;fill:#000000;fill-opacity:1;fill-rule:nonzero;stroke:none"
       transform="matrix(1,0,0,-1,64.573,487.845)"><tspan
         id="tspan380"
         y="0"
         x="0 4.5134435">20</tspan></text>
<text
       id="text386"
       style="font-variant:normal;font-weight:normal;font-size:9.96259975px;font-family:CMBX10;-inkscape-font-specification:CMBX10;writing-mode:lr-tb;fill:#000000;fill-opacity:1;fill-rule:nonzero;stroke:none"
       transform="matrix(1,0,0,-1,78.582,487.845)"><tspan
         id="tspan384"
         y="0"
         x="0 6.3651052">fn</tspan></text>
<g
       transform="translate(63.638,481.868)"
       id="g388"><path
         id="path390"
         style="fill:none;stroke:#000000;stroke-width:0.79699999;stroke-linecap:butt;stroke-linejoin:miter;stroke-miterlimit:10;stroke-dasharray:none;stroke-opacity:1"
         d="M 0,0 H 468" /></g><text
       id="text394"
       style="font-variant:normal;font-weight:normal;font-size:9.96259975px;font-family:CMR10;-inkscape-font-specification:CMR10;writing-mode:lr-tb;fill:#000000;fill-opacity:1;fill-rule:nonzero;stroke:none"
       transform="matrix(1,0,0,-1,295.147,43.246)"><tspan
         id="tspan392"
         y="0"
         x="0">5</tspan></text>
</g></svg>