<svg xmlns="http://www.w3.org/2000/svg" xmlns:xlink="http://www.w3.org/1999/xlink" version="1.1" width="468.17655pt" height="309.3593pt" viewBox="0 0 468.17655 309.3593">
<g>
<path transform="matrix(1,0,0,-1,-63.281595,-51.483339)" stroke-width=".796032" stroke-linecap="butt" stroke-miterlimit="10" stroke-linejoin="miter" fill="none" stroke="#000000" d="M63.562-52.535H530.992"/>
<text xml:space="preserve" transform="matrix(1 0 0 1 -63.281595 -51.483339)" font-size="9.950897" font-family="CMBX10" font-weight="bold"><tspan y="61.834768" x="71.02362 79.67095 82.84529 88.567058 94.28882 98.99559 102.16993 106.61798 112.996509 122.529468 131.58478 141.1277">Algorithme1:</tspan></text>
<text xml:space="preserve" transform="matrix(1 0 0 1 -63.281595 -51.483339)" font-size="9.950897" font-family="CMR10"><tspan y="61.834768" x="147.62563 154.81018 160.33293 165.30838 168.06478 176.64246 182.1652 184.9216 190.44435 199.31061 204.28606 209.2615 212.0179 215.93856 218.69495 227.5612 232.53665 238.0594 241.92035 246.8958 252.41855 259.65287 265.1756 267.932 273.45475 278.97749 286.7392 292.54057 297.516 301.43666 304.19306 308.05403 310.84028 315.81575 324.66209 330.1848 335.16029 340.683 345.95698 346.22566 350.64387 358.38569 363.08253 368.05796 372.47618 380.22795 385.75068 394.59703 399.01524 403.99067 409.24473 413.10569 417.5239 422.7879 431.6442 435.56486 440.8189 441.09754 445.51576 449.93397">Choixd&#x2019;unvoisinautourd&#x2019;unepositiondonn&#x00b4;eeavecuncontenusp&#x00b4;eci</tspan></text>
<text xml:space="preserve" transform="matrix(1 0 0 1 -63.281595 -51.483339)" font-size="9.950897" font-family="CMR10"><tspan y="61.834768" x="452.69038">&#xfb01;</tspan></text>
<text xml:space="preserve" transform="matrix(1 0 0 1 -63.281595 -51.483339)" font-size="9.950897" font-family="CMR10"><tspan y="61.834768" x="457.95439 458.23298">&#x00b4;e</tspan></text>
<path transform="matrix(1,0,0,-1,-63.281595,-51.483339)" stroke-width=".796032" stroke-linecap="butt" stroke-miterlimit="10" stroke-linejoin="miter" fill="none" stroke="#000000" d="M63.562-66.156H530.992"/>
<text xml:space="preserve" transform="matrix(1 0 0 1 -63.281595 -51.483339)" font-size="9.950897" font-family="CMBX10" font-weight="bold"><tspan y="75.4562" x="78.48654 85.999469 92.04961 96.49766 100.96561 101.20442 106.44855 111.69267 120.021579">Entr&#x00b4;ees:</tspan></text>
<text xml:space="preserve" transform="matrix(1 0 0 1 -63.281595 -51.483339)" font-size="9.950897" font-family="CMR10"><tspan y="75.4562" x="126.519519 131.49497 135.38578 138.14217 140.89856 143.6848 148.103 154.18299 156.93938 159.69577 164.67122 170.19397 174.64202 180.73197 185.15016 190.12561 192.882 197.85746 203.3802 208.90296 213.32115 219.42105 223.83925 228.8147 234.06877 237.92972 242.34792 247.61194">grille,ligne,colonne,contenu</tspan></text>
<text xml:space="preserve" transform="matrix(1 0 0 1 -63.281595 -51.483339)" font-size="9.950897" font-family="CMBX10" font-weight="bold"><tspan y="87.39668" x="78.48654 84.83521 90.55698 95.26375 99.7118 102.88614 108.130268 116.47907">Sorties:</tspan></text>
<text xml:space="preserve" transform="matrix(1 0 0 1 -63.281595 -51.483339)" font-size="9.950897" font-family="CMR10"><tspan y="87.39668" x="122.97701 130.44019 135.96294 143.70473 149.5061 154.48155 158.4022 161.1586 165.01955 167.80579 172.78124 181.62758 185.48853 188.24492 191.00131 195.97676 201.52936 205.94756 212.0375 216.4557 221.43115 224.18755 229.163 234.68575 240.23834 244.65654 251.84108 257.36384 260.12025 265.64299 274.49928 279.4747 284.45014 287.20655 291.1272 293.8836 302.7598 307.4566 312.43205 316.85026 324.59208 330.1148 338.9711 343.3893 348.36476 353.6188 357.47978 361.89799 367.162 376.00834 381.53108 386.50654 392.02928 397.29328 397.56196 405.30378 410.27925 419.12559 422.98655 430.4497 435.42518 440.9479 445.36613 451.46604 458.9292 463.90467 469.4274 473.8456 481.05009 484.97074 487.72715 490.48356 496.57353 502.09626 504.85267">Uneposition(ligne,colonne)d&#x2019;unvoisinavecuncontenudonn&#x00b4;eou(None,None)s&#x2019;iln&#x2019;y</tspan><tspan y="99.33716" x="122.97444 127.39264 136.23899 144.53803 150.06078 155.03623">enapas</tspan></text>
<text xml:space="preserve" transform="matrix(1 0 0 1 -63.281595 -51.483339)" font-size="6.965528" font-family="CMBX7" font-weight="bold"><tspan y="111.27763" x="69.003078">1</tspan></text>
<text xml:space="preserve" transform="matrix(1 0 0 1 -63.281595 -51.483339)" font-size="9.950897" font-family="CMBX10" font-weight="bold"><tspan y="111.27763" x="78.48654 84.60634 84.84515 90.08928 96.43795 102.78662">d&#x00b4;ebut</tspan></text>
<path transform="matrix(1,0,0,-1,-63.281595,-51.483339)" stroke-width=".397517" stroke-linecap="butt" stroke-miterlimit="10" stroke-linejoin="miter" fill="none" stroke="#000000" d="M83.66-344.719V-114.859"/>
<text xml:space="preserve" transform="matrix(1 0 0 1 -63.281595 -51.483339)" font-size="6.965528" font-family="CMBX7" font-weight="bold"><tspan y="123.21811" x="69.40059">2</tspan></text>
<text xml:space="preserve" transform="matrix(1 0 0 1 -63.281595 -51.483339)" font-size="9.950897" font-family="CMR10"><tspan y="123.21811" x="93.809909 97.67085 102.6463 108.46758 112.88578 117.86123 121.78188 126.20008">tabcases</tspan></text>
<text xml:space="preserve" transform="matrix(1 0 0 1 -63.281595 -51.483339)" font-size="9.950897" font-family="CMSY10" font-style="italic"><tspan y="123.21811" x="133.44432">&#x2190;</tspan></text>
<text xml:space="preserve" transform="matrix(1 0 0 1 -63.281595 -51.483339)" font-size="9.950897" font-family="CMR10"><tspan y="123.21811" x="146.70886 149.46526 152.22165 156.1423 160.0331 167.77489 173.01902 175.7754 181.29816 185.71636">listevide;</tspan></text>
<text xml:space="preserve" transform="matrix(1 0 0 1 -63.281595 -51.483339)" font-size="6.965528" font-family="CMBX7" font-weight="bold"><tspan y="135.15958" x="69.40059">3</tspan></text>
<text xml:space="preserve" transform="matrix(1 0 0 1 -63.281595 -51.483339)" font-size="9.950897" font-family="CMTI10" font-style="italic"><tspan y="135.15958" x="93.809909 101.4323 106.00971 109.31341 113.89082 119.48323 122.528209 130.30982 132.84729 137.4247 145.04709 150.132 153.17697 161.30686 165.88426 171.47667 175.56649 178.61145 183.69637 189.28878 196.93106 202.01598 210.1558 212.69329 221.34062 225.91803 230.10736 233.15233 236.21721 238.75469 246.89452 250.95449 256.54689">Obtenirlesdimensionsdelagrille(nb</tspan></text>
<path transform="matrix(1,0,0,-1,-63.281595,-51.483339)" stroke-width=".397517" stroke-linecap="butt" stroke-miterlimit="10" stroke-linejoin="miter" fill="none" stroke="#000000" d="M261.742-134.961H264.793"/>
<text xml:space="preserve" transform="matrix(1 0 0 1 -63.281595 -51.483339)" font-size="9.950897" font-family="CMTI10" font-style="italic"><tspan y="135.15958" x="264.79496 267.33244 270.3774 274.95484 281.58216 287.17457">lig,nb</tspan></text>
<path transform="matrix(1,0,0,-1,-63.281595,-51.483339)" stroke-width=".397517" stroke-linecap="butt" stroke-miterlimit="10" stroke-linejoin="miter" fill="none" stroke="#000000" d="M292.359-134.961H295.41"/>
<text xml:space="preserve" transform="matrix(1 0 0 1 -63.281595 -51.483339)" font-size="9.950897" font-family="CMTI10" font-style="italic"><tspan y="135.15958" x="295.4107 299.48063 304.56553 307.103">col)</tspan></text>
<text xml:space="preserve" transform="matrix(1 0 0 1 -63.281595 -51.483339)" font-size="9.950897" font-family="CMR10"><tspan y="135.15958" x="311.5411">;</tspan></text>
<text xml:space="preserve" transform="matrix(1 0 0 1 -63.281595 -51.483339)" font-size="6.965528" font-family="CMBX7" font-weight="bold"><tspan y="147.10007" x="69.40059">4</tspan></text>
<text xml:space="preserve" transform="matrix(1 0 0 1 -63.281595 -51.483339)" font-size="9.950897" font-family="CMBX10" font-weight="bold"><tspan y="147.10007" x="93.809909 100.48695 106.20872 112.55739">pour</tspan></text>
<text xml:space="preserve" transform="matrix(1 0 0 1 -63.281595 -51.483339)" font-size="9.950897" font-family="CMTI10" font-style="italic"><tspan y="147.10007" x="120.59771">i</tspan></text>
<text xml:space="preserve" transform="matrix(1 0 0 1 -63.281595 -51.483339)" font-size="9.950897" font-family="CMBXTI10" font-weight="bold" font-style="italic"><tspan y="147.10007" x="127.20511 133.08609 136.62862 139.57408 145.45507 151.92314 159.88387 165.76485">allantde</tspan></text>
<text xml:space="preserve" transform="matrix(1 0 0 1 -63.281595 -51.483339)" font-size="9.950897" font-family="CMTI10" font-style="italic"><tspan y="147.10007" x="174.62116 177.15863 180.2036 184.781 190.37342 198.5232 205.63809">ligne-1</tspan></text>
<text xml:space="preserve" transform="matrix(1 0 0 1 -63.281595 -51.483339)" font-size="9.950897" font-family="CMBXTI10" font-weight="bold" font-style="italic"><tspan y="147.10007" x="214.28543 214.28543">`a</tspan></text>
<text xml:space="preserve" transform="matrix(1 0 0 1 -63.281595 -51.483339)" font-size="9.950897" font-family="CMTI10" font-style="italic"><tspan y="147.10007" x="223.72884 226.26631 229.31128 233.88869 239.4811 247.64083 258.81568">ligne+1</tspan></text>
<text xml:space="preserve" transform="matrix(1 0 0 1 -63.281595 -51.483339)" font-size="9.950897" font-family="CMBX10" font-weight="bold"><tspan y="147.10007" x="268.57749 272.07026 277.6328 280.80717 285.51396">faire</tspan></text>
<path transform="matrix(1,0,0,-1,-63.281595,-51.483339)" stroke-width=".397517" stroke-linecap="butt" stroke-miterlimit="10" stroke-linejoin="miter" fill="none" stroke="#000000" d="M98.984-272.078V-150.684"/>
<text xml:space="preserve" transform="matrix(1 0 0 1 -63.281595 -51.483339)" font-size="6.965528" font-family="CMBX7" font-weight="bold"><tspan y="159.04055" x="69.79911">5</tspan></text>
<text xml:space="preserve" transform="matrix(1 0 0 1 -63.281595 -51.483339)" font-size="9.950897" font-family="CMBX10" font-weight="bold"><tspan y="159.04055" x="109.13427 115.81132 121.53308 127.88175">pour</tspan></text>
<text xml:space="preserve" transform="matrix(1 0 0 1 -63.281595 -51.483339)" font-size="9.950897" font-family="CMTI10" font-style="italic"><tspan y="159.04055" x="135.92209">j</tspan></text>
<text xml:space="preserve" transform="matrix(1 0 0 1 -63.281595 -51.483339)" font-size="9.950897" font-family="CMBXTI10" font-weight="bold" font-style="italic"><tspan y="159.04055" x="142.52948 148.41046 151.95299 154.89846 160.77944 167.24752 175.20824 181.08922">allantde</tspan></text>
<text xml:space="preserve" transform="matrix(1 0 0 1 -63.281595 -51.483339)" font-size="9.950897" font-family="CMTI10" font-style="italic"><tspan y="159.04055" x="189.94553 194.01544 199.10036 201.63784 206.72275 212.31516 217.90756 226.05735 233.17224">colonne-1</tspan></text>
<text xml:space="preserve" transform="matrix(1 0 0 1 -63.281595 -51.483339)" font-size="9.950897" font-family="CMBXTI10" font-weight="bold" font-style="italic"><tspan y="159.04055" x="241.81958 241.81958">`a</tspan></text>
<text xml:space="preserve" transform="matrix(1 0 0 1 -63.281595 -51.483339)" font-size="9.950897" font-family="CMTI10" font-style="italic"><tspan y="159.04055" x="251.26299 255.3329 260.41783 262.9553 268.0402 273.6326 279.225 287.37483 298.5596">colonne+1</tspan></text>
<text xml:space="preserve" transform="matrix(1 0 0 1 -63.281595 -51.483339)" font-size="9.950897" font-family="CMBX10" font-weight="bold"><tspan y="159.04055" x="308.31147 311.80424 317.3668 320.54115 325.24794">faire</tspan></text>
<path transform="matrix(1,0,0,-1,-63.281595,-51.483339)" stroke-width=".397517" stroke-linecap="butt" stroke-miterlimit="10" stroke-linejoin="miter" fill="none" stroke="#000000" d="M114.309-259.145V-162.621"/>
<text xml:space="preserve" transform="matrix(1 0 0 1 -63.281595 -51.483339)" font-size="6.965528" font-family="CMBX7" font-weight="bold"><tspan y="170.98102" x="70.196628">6</tspan></text>
<text xml:space="preserve" transform="matrix(1 0 0 1 -63.281595 -51.483339)" font-size="9.950897" font-family="CMBX10" font-weight="bold"><tspan y="170.98102" x="124.45763 128.96538">si</tspan></text>
<text xml:space="preserve" transform="matrix(1 0 0 1 -63.281595 -51.483339)" font-size="9.950897" font-family="CMTI10" font-style="italic"><tspan y="170.98102" x="139.02573 145.64307 150.22048 154.28044 161.15651 166.24143">iestdi</tspan></text>
<text xml:space="preserve" transform="matrix(1 0 0 1 -63.281595 -51.483339)" font-size="9.950897" font-family="CMTI10" font-style="italic"><tspan y="170.98102" x="169.28639">&#xfb00;</tspan></text>
<text xml:space="preserve" transform="matrix(1 0 0 1 -63.281595 -51.483339)" font-size="9.950897" font-family="CMTI10" font-style="italic"><tspan y="170.98102" x="175.13751 175.38629 179.9637 183.65549 188.2329 193.8253 200.69142 205.77634 213.91617 216.45365 219.49861 224.07602 229.66843">&#x00b4;erentdeligne</tspan></text>
<text xml:space="preserve" transform="matrix(1 0 0 1 -63.281595 -51.483339)" font-size="9.950897" font-family="CMBXTI10" font-weight="bold" font-style="italic"><tspan y="170.98102" x="237.8182 243.69919">ou</tspan></text>
<text xml:space="preserve" transform="matrix(1 0 0 1 -63.281595 -51.483339)" font-size="9.950897" font-family="CMTI10" font-style="italic"><tspan y="170.98102" x="253.43117 260.04853 264.62596 268.6859 275.562 280.6469">jestdi</tspan></text>
<text xml:space="preserve" transform="matrix(1 0 0 1 -63.281595 -51.483339)" font-size="9.950897" font-family="CMTI10" font-style="italic"><tspan y="170.98102" x="283.6919">&#xfb00;</tspan></text>
<text xml:space="preserve" transform="matrix(1 0 0 1 -63.281595 -51.483339)" font-size="9.950897" font-family="CMTI10" font-style="italic"><tspan y="170.98102" x="289.54304 289.79179 294.3692 298.06098 302.6384 308.2308 315.09693 320.18183 328.3316 332.40153 337.48643 340.0239 345.1088 350.7012 356.2936 360.87104">&#x00b4;erentdecolonne)</tspan></text>
<text xml:space="preserve" transform="matrix(1 0 0 1 -63.281595 -51.483339)" font-size="9.950897" font-family="CMBX10" font-weight="bold"><tspan y="170.98102" x="368.62278 374.18534 377.35969 383.08146 387.78825">alors</tspan></text>
<path transform="matrix(1,0,0,-1,-63.281595,-51.483339)" stroke-width=".397517" stroke-linecap="butt" stroke-miterlimit="10" stroke-linejoin="miter" fill="none" stroke="#000000" d="M129.633-246.207V-174.562"/>
<text xml:space="preserve" transform="matrix(1 0 0 1 -63.281595 -51.483339)" font-size="6.965528" font-family="CMBX7" font-weight="bold"><tspan y="182.9215" x="70.59514">7</tspan></text>
<text xml:space="preserve" transform="matrix(1 0 0 1 -63.281595 -51.483339)" font-size="9.950897" font-family="CMTI10" font-style="italic"><tspan y="182.9215" x="139.782 147.17552 150.22049 155.55417 159.64398 162.94768 167.52509 175.28679 178.33176 184.93915 191.55649 196.13391 201.21883 206.5525 214.31421 217.6179 222.19532 227.78772 230.83269 238.59439 242.6643 247.74922 255.8791 260.96403 264.26774 272.41755 277.50245 282.07987 289.71223 292.2497 295.29469 303.42457 306.4994 309.8031 314.38053 322.01289 327.09779 335.22767 337.76515 346.42243 350.99986 355.18919 358.23417 361.29905 363.83653 371.98634 376.0463 379.09129 384.17619 390.8035 393.84849 398.93339">Ajusteri,jpourtenircomptedeslimitesdelagrille(i2,j2)</tspan></text>
<text xml:space="preserve" transform="matrix(1 0 0 1 -63.281595 -51.483339)" font-size="9.950897" font-family="CMR10"><tspan y="182.9215" x="403.36155">;</tspan></text>
<text xml:space="preserve" transform="matrix(1 0 0 1 -63.281595 -51.483339)" font-size="6.965528" font-family="CMBX7" font-weight="bold"><tspan y="194.86197" x="70.59514">8</tspan></text>
<text xml:space="preserve" transform="matrix(1 0 0 1 -63.281595 -51.483339)" font-size="9.950897" font-family="CMTI10" font-style="italic"><tspan y="194.86197" x="139.782 147.40439 151.9818 155.28549 159.8629 165.4553 168.50028 176.27193 178.8094 187.45674 191.52666 196.61157 200.67154 208.82132 212.88129 215.92626 221.01117 227.6484 230.69338 235.77829 243.41063 248.49555 256.62544 259.1629 267.8202 272.3976 276.58695 279.63194 282.6968 285.23429">Obtenirlacase(i2,j2)delagrille</tspan></text>
<text xml:space="preserve" transform="matrix(1 0 0 1 -63.281595 -51.483339)" font-size="9.950897" font-family="CMR10"><tspan y="194.86197" x="290.558">;</tspan></text>
<text xml:space="preserve" transform="matrix(1 0 0 1 -63.281595 -51.483339)" font-size="6.965528" font-family="CMBX7" font-weight="bold"><tspan y="206.80345" x="70.59514">9</tspan></text>
<text xml:space="preserve" transform="matrix(1 0 0 1 -63.281595 -51.483339)" font-size="9.950897" font-family="CMBX10" font-weight="bold"><tspan y="206.80345" x="139.782 144.28975">si</tspan></text>
<text xml:space="preserve" transform="matrix(1 0 0 1 -63.281595 -51.483339)" font-size="9.950897" font-family="CMTI10" font-style="italic"><tspan y="206.80345" x="150.3797 150.62848 155.20589 158.50959 163.5945 170.33126 175.41617 183.40674 185.94422 194.46219 198.5321 203.61702 207.67699 215.6775 220.25492 224.31488 230.79291 231.05164 235.62905 240.20645 245.29137 251.25196 251.25194 259.75996 263.81993 268.90483 274.49723 277.80094 282.37837 287.97077">&#x00b4;etatdelacaseest&#x00b4;egal`acontenu</tspan></text>
<text xml:space="preserve" transform="matrix(1 0 0 1 -63.281595 -51.483339)" font-size="9.950897" font-family="CMBXTI10" font-weight="bold" font-style="italic"><tspan y="206.80345" x="296.73753 302.0314">et</tspan></text>
<text xml:space="preserve" transform="matrix(1 0 0 1 -63.281595 -51.483339)" font-size="9.950897" font-family="CMTI10" font-style="italic"><tspan y="206.80345" x="309.27565 313.3356 317.41548 322.50038 328.09278 331.39649 335.9739 341.5663 350.33308 354.9105 358.97047 365.70726 373.10078 376.93186 384.4448">(contenuestVIDE</tspan></text>
<text xml:space="preserve" transform="matrix(1 0 0 1 -63.281595 -51.483339)" font-size="9.950897" font-family="CMBXTI10" font-weight="bold" font-style="italic"><tspan y="206.80345" x="394.6146 400.49559">ou</tspan></text>
<text xml:space="preserve" transform="matrix(1 0 0 1 -63.281595 -51.483339)" font-size="9.950897" font-family="CMTI10" font-style="italic"><tspan y="206.80345" x="410.08824 412.6257 415.6707 420.75559 426.348 429.39299 437.5527 442.6376 448.59819 453.68309 458.76799 464.36039 471.85343 474.3909 482.8989 486.9688 492.0537 496.11369 504.12419 508.7016 512.76156">l&#x2019;animaldanslacaseest</tspan><tspan y="218.74393" x="144.75695 149.84186 152.88683 156.9468 161.54412 166.62903 172.22144 175.2664 179.84381 182.38129 186.9587">disponible)</tspan></text>
<text xml:space="preserve" transform="matrix(1 0 0 1 -63.281595 -51.483339)" font-size="9.950897" font-family="CMBX10" font-weight="bold"><tspan y="218.74393" x="194.7204 200.28295 203.45728 209.17905 213.88582">alors</tspan></text>
<path transform="matrix(1,0,0,-1,-63.281595,-51.483339)" stroke-width=".397517" stroke-linecap="butt" stroke-miterlimit="10" stroke-linejoin="miter" fill="none" stroke="#000000" d="M144.957-234.266V-222.324"/>
<text xml:space="preserve" transform="matrix(1 0 0 1 -63.281595 -51.483339)" font-size="6.965528" font-family="CMBX7" font-weight="bold"><tspan y="230.6844" x="66.48514 70.99184">10</tspan></text>
<text xml:space="preserve" transform="matrix(1 0 0 1 -63.281595 -51.483339)" font-size="9.950897" font-family="CMTI10" font-style="italic"><tspan y="230.6844" x="155.10535 162.49887 165.54384 170.62876 175.96244 179.26613 183.84354 191.62514 195.6851 198.73007 203.81499 210.43233 213.4773 218.56221 226.2045 226.2045 234.85184 238.15554 243.24045 247.31037 251.38028 256.46519 260.52516 265.10258">Ajouter(i2,j2)`atabcases</tspan></text>
<text xml:space="preserve" transform="matrix(1 0 0 1 -63.281595 -51.483339)" font-size="9.950897" font-family="CMR10"><tspan y="230.6844" x="269.9984">;</tspan></text>
<text xml:space="preserve" transform="matrix(1 0 0 1 -63.281595 -51.483339)" font-size="6.965528" font-family="CMBX7" font-weight="bold"><tspan y="242.62488" x="66.086627 70.59332">11</tspan></text>
<text xml:space="preserve" transform="matrix(1 0 0 1 -63.281595 -51.483339)" font-size="9.950897" font-family="CMBX10" font-weight="bold"><tspan y="242.62488" x="139.782">&#xfb01;</tspan></text>
<text xml:space="preserve" transform="matrix(1 0 0 1 -63.281595 -51.483339)" font-size="9.950897" font-family="CMBX10" font-weight="bold"><tspan y="242.62488" x="146.13068">n</tspan></text>
<text xml:space="preserve" transform="matrix(1 0 0 1 -63.281595 -51.483339)" font-size="6.965528" font-family="CMBX7" font-weight="bold"><tspan y="255.56015" x="65.68911 70.19581">12</tspan></text>
<text xml:space="preserve" transform="matrix(1 0 0 1 -63.281595 -51.483339)" font-size="9.950897" font-family="CMBX10" font-weight="bold"><tspan y="255.56015" x="124.45763">&#xfb01;</tspan></text>
<text xml:space="preserve" transform="matrix(1 0 0 1 -63.281595 -51.483339)" font-size="9.950897" font-family="CMBX10" font-weight="bold"><tspan y="255.56015" x="130.8063">n</tspan></text>
<text xml:space="preserve" transform="matrix(1 0 0 1 -63.281595 -51.483339)" font-size="6.965528" font-family="CMBX7" font-weight="bold"><tspan y="268.4964" x="65.29059 69.79729">13</tspan></text>
<text xml:space="preserve" transform="matrix(1 0 0 1 -63.281595 -51.483339)" font-size="9.950897" font-family="CMBX10" font-weight="bold"><tspan y="268.4964" x="109.13427">&#xfb01;</tspan></text>
<text xml:space="preserve" transform="matrix(1 0 0 1 -63.281595 -51.483339)" font-size="9.950897" font-family="CMBX10" font-weight="bold"><tspan y="268.4964" x="115.48294">n</tspan></text>
<text xml:space="preserve" transform="matrix(1 0 0 1 -63.281595 -51.483339)" font-size="6.965528" font-family="CMBX7" font-weight="bold"><tspan y="281.43168" x="64.893077 69.39977">14</tspan></text>
<text xml:space="preserve" transform="matrix(1 0 0 1 -63.281595 -51.483339)" font-size="9.950897" font-family="CMBX10" font-weight="bold"><tspan y="281.43168" x="93.809909">&#xfb01;</tspan></text>
<text xml:space="preserve" transform="matrix(1 0 0 1 -63.281595 -51.483339)" font-size="9.950897" font-family="CMBX10" font-weight="bold"><tspan y="281.43168" x="100.15858">n</tspan></text>
<text xml:space="preserve" transform="matrix(1 0 0 1 -63.281595 -51.483339)" font-size="6.965528" font-family="CMBX7" font-weight="bold"><tspan y="293.37318" x="64.893077 69.39977">15</tspan></text>
<text xml:space="preserve" transform="matrix(1 0 0 1 -63.281595 -51.483339)" font-size="9.950897" font-family="CMBX10" font-weight="bold"><tspan y="293.37318" x="93.809909 98.317668">si</tspan></text>
<text xml:space="preserve" transform="matrix(1 0 0 1 -63.281595 -51.483339)" font-size="9.950897" font-family="CMTI10" font-style="italic"><tspan y="293.37318" x="104.815608 108.1193 113.20421 117.28408 121.354007 126.43891 130.49887 135.07628 142.71857 147.28603 150.331 154.9084 158.96837 165.85439 170.43181 175.51673 183.14907 187.72647 190.77144 195.85636">tabcasesn&#x2019;estpasvide</tspan></text>
<text xml:space="preserve" transform="matrix(1 0 0 1 -63.281595 -51.483339)" font-size="9.950897" font-family="CMBX10" font-weight="bold"><tspan y="293.37318" x="204.49373 210.05628 213.2306 218.95238 223.65915">alors</tspan></text>
<path transform="matrix(1,0,0,-1,-63.281595,-51.483339)" stroke-width=".397517" stroke-linecap="butt" stroke-miterlimit="10" stroke-linejoin="miter" fill="none" stroke="#000000" d="M98.984-308.895V-296.953"/>
<text xml:space="preserve" transform="matrix(1 0 0 1 -63.281595 -51.483339)" font-size="6.965528" font-family="CMBX7" font-weight="bold"><tspan y="305.31364" x="65.29059 69.79729">16</tspan></text>
<text xml:space="preserve" transform="matrix(1 0 0 1 -63.281595 -51.483339)" font-size="9.950897" font-family="CMBX10" font-weight="bold"><tspan y="305.31364" x="109.13427 113.84104 119.08517 123.53322 129.25499 135.60367 140.31044 146.68897 151.93309">retourner</tspan></text>
<text xml:space="preserve" transform="matrix(1 0 0 1 -63.281595 -51.483339)" font-size="9.950897" font-family="CMTI10" font-style="italic"><tspan y="305.31364" x="159.96346 165.29714 174.20319 174.46192 179.03932 181.32802 181.58675 186.16416 194.29404 198.87145 204.46385 211.32997 216.41489 218.71355 218.96233 223.53974 228.62465 231.92835 237.01326 240.05823 243.75997 251.8998 256.9847 265.12455 268.42826 273.51316 277.57313 281.64305 286.72795 290.7879 295.36534">un&#x00b4;el&#x00b4;emental&#x00b4;eatoiredetabcases</tspan></text>
<text xml:space="preserve" transform="matrix(1 0 0 1 -63.281595 -51.483339)" font-size="9.950897" font-family="CMR10"><tspan y="305.31364" x="300.26118">;</tspan></text>
<text xml:space="preserve" transform="matrix(1 0 0 1 -63.281595 -51.483339)" font-size="6.965528" font-family="CMBX7" font-weight="bold"><tspan y="317.25413" x="64.893077 69.39977">17</tspan></text>
<text xml:space="preserve" transform="matrix(1 0 0 1 -63.281595 -51.483339)" font-size="9.950897" font-family="CMBX10" font-weight="bold"><tspan y="317.25413" x="93.809909 98.317668 101.492008 107.840679 113.56244">sinon</tspan></text>
<path transform="matrix(1,0,0,-1,-63.281595,-51.483339)" stroke-width=".397517" stroke-linecap="butt" stroke-miterlimit="10" stroke-linejoin="miter" fill="none" stroke="#000000" d="M98.984-332.777V-320.836"/>
<text xml:space="preserve" transform="matrix(1 0 0 1 -63.281595 -51.483339)" font-size="6.965528" font-family="CMBX7" font-weight="bold"><tspan y="329.19459" x="65.29059 69.79729">18</tspan></text>
<text xml:space="preserve" transform="matrix(1 0 0 1 -63.281595 -51.483339)" font-size="9.950897" font-family="CMBX10" font-weight="bold"><tspan y="329.19459" x="109.13427 113.84104 119.08517 123.53322 129.25499 135.60367 140.31044 146.68897 151.93309">retourner</tspan></text>
<text xml:space="preserve" transform="matrix(1 0 0 1 -63.281595 -51.483339)" font-size="9.950897" font-family="CMTI10" font-style="italic"><tspan y="329.19459" x="159.96346 164.02342 171.41695 176.50186 182.09427 186.67168 193.29897 200.69249 205.7774 211.36981 215.94722">(None,None)</tspan></text>
<text xml:space="preserve" transform="matrix(1 0 0 1 -63.281595 -51.483339)" font-size="9.950897" font-family="CMR10"><tspan y="329.19459" x="220.38532">;</tspan></text>
<text xml:space="preserve" transform="matrix(1 0 0 1 -63.281595 -51.483339)" font-size="6.965528" font-family="CMBX7" font-weight="bold"><tspan y="341.13508" x="64.893077 69.39977">19</tspan></text>
<text xml:space="preserve" transform="matrix(1 0 0 1 -63.281595 -51.483339)" font-size="9.950897" font-family="CMBX10" font-weight="bold"><tspan y="341.13508" x="93.809909">&#xfb01;</tspan></text>
<text xml:space="preserve" transform="matrix(1 0 0 1 -63.281595 -51.483339)" font-size="9.950897" font-family="CMBX10" font-weight="bold"><tspan y="341.13508" x="100.15858">n</tspan></text>
<text xml:space="preserve" transform="matrix(1 0 0 1 -63.281595 -51.483339)" font-size="6.965528" font-family="CMBX7" font-weight="bold"><tspan y="354.07136" x="64.49456 69.00126">20</tspan></text>
<text xml:space="preserve" transform="matrix(1 0 0 1 -63.281595 -51.483339)" font-size="9.950897" font-family="CMBX10" font-weight="bold"><tspan y="354.07136" x="78.48654">&#xfb01;</tspan></text>
<text xml:space="preserve" transform="matrix(1 0 0 1 -63.281595 -51.483339)" font-size="9.950897" font-family="CMBX10" font-weight="bold"><tspan y="354.07136" x="84.83521">n</tspan></text>
<path transform="matrix(1,0,0,-1,-63.281595,-51.483339)" stroke-width=".796032" stroke-linecap="butt" stroke-miterlimit="10" stroke-linejoin="miter" fill="none" stroke="#000000" d="M63.562-360.043H530.992"/>
</g>
</svg>
